<svg version="1" xmlns="http://www.w3.org/2000/svg" width="682.667" height="682.667" viewBox="0 0 512 512"><path d="M142 121.7c0 35.8.1 38.3 1.8 38.4h95.8l94 .1 17.8-17.9c9.7-9.8 17.7-18.2 17.7-18.6 0-.7-4.1-5.5-16.6-19.3-1.1-1.2-3.3-3.7-4.9-5.5-1.6-1.9-5.4-6.1-8.5-9.4l-5.6-6h-95.7l-95.8-.1v38.3zm1 64.1c-.6.2-1 14-1 38.5v38.2h191.7l17.7-17.7c9.7-9.7 17.6-18.3 17.6-19.2 0-.8-.6-1.9-1.3-2.3-.7-.4-4.4-4.4-8.2-8.8-3.9-4.4-7.2-8.2-7.5-8.5-.3-.3-4.6-5-9.6-10.5l-9-10h-94.7c-52.1 0-95.2.1-95.7.3zm-.5 107c-.3.3-.5 31-.5 68.2l.1 67.6 36.2-.1h36.2V292.3h-35.7c-19.7 0-36 .2-36.3.5z"/></svg>