<?xml version="1.0" standalone="no"?>
<!DOCTYPE svg PUBLIC "-//W3C//DTD SVG 20010904//EN"
 "http://www.w3.org/TR/2001/REC-SVG-20010904/DTD/svg10.dtd">
<svg version="1.0" xmlns="http://www.w3.org/2000/svg"
 width="512.000000pt" height="512.000000pt" viewBox="0 0 512.000000 512.000000"
 preserveAspectRatio="xMidYMid meet">
<metadata>
Created by potrace 1.11, written by Peter Selinger 2001-2013
</metadata>
<g transform="translate(0.000000,512.000000) scale(0.100000,-0.100000)"
fill="#000000" stroke="none">
<path d="M1420 3903 c0 -358 1 -383 18 -384 9 0 440 0 958 0 l940 -1 178 179
c97 98 177 182 177 186 0 7 -41 55 -166 193 -11 12 -33 37 -49 55 -16 19 -54
61 -85 94 l-56 60 -957 0 -958 1 0 -383z"/>
<path d="M1430 3262 c-6 -2 -10 -140 -10 -385 l0 -382 959 0 958 0 177 177
c97 97 176 183 176 192 0 8 -6 19 -13 23 -7 4 -44 44 -82 88 -39 44 -72 82
-75 85 -3 3 -46 50 -96 105 l-90 100 -947 0 c-521 0 -952 -1 -957 -3z"/>
<path d="M1425 2192 c-3 -3 -5 -310 -5 -682 l1 -676 362 1 362 0 0 681 0 681
-357 0 c-197 0 -360 -2 -363 -5z"/>
</g>
</svg>
