<svg width="267" height="117" viewBox="0 0 267 117" version="1.1" xmlns="http://www.w3.org/2000/svg" xmlns:xlink="http://www.w3.org/1999/xlink">
<title>Group</title>
<desc>Created using Figma</desc>
<g id="Canvas" transform="translate(48955 25227)">
<g id="Group">
<g id="Group">
<g id="Group">
<g id="Group">
<g id="Vector">
<use xlink:href="#path0_fill" transform="translate(-48817.4 -25197.5)" fill="#FFFFFF"/>
</g>
<g id="Vector">
<use xlink:href="#path1_fill" transform="translate(-48807.4 -25197.5)" fill="#FFFFFF"/>
</g>
<g id="Vector">
<use xlink:href="#path2_fill" transform="translate(-48795.1 -25197.5)" fill="#FFFFFF"/>
</g>
<g id="Vector">
<use xlink:href="#path3_fill" transform="translate(-48784.5 -25197.4)" fill="#FFFFFF"/>
</g>
<g id="Vector">
<use xlink:href="#path4_fill" transform="translate(-48771.6 -25197.5)" fill="#FFFFFF"/>
</g>
<g id="Vector">
<use xlink:href="#path5_fill" transform="translate(-48759.3 -25197.5)" fill="#FFFFFF"/>
</g>
<g id="Vector">
<use xlink:href="#path6_fill" transform="translate(-48743.7 -25197.4)" fill="#FFFFFF"/>
</g>
<g id="Vector">
<use xlink:href="#path7_fill" transform="translate(-48732.7 -25197.8)" fill="#FFFFFF"/>
</g>
<g id="Vector">
<use xlink:href="#path8_fill" transform="translate(-48717.4 -25197.5)" fill="#FFFFFF"/>
</g>
<g id="Vector">
<use xlink:href="#path9_fill" transform="translate(-48817.4 -25175.2)" fill="#FFFFFF"/>
</g>
<g id="Vector">
<use xlink:href="#path10_fill" transform="translate(-48809.6 -25175.5)" fill="#FFFFFF"/>
</g>
<g id="Vector">
<use xlink:href="#path11_fill" transform="translate(-48795.7 -25175.2)" fill="#FFFFFF"/>
</g>
<g id="Vector">
<use xlink:href="#path12_fill" transform="translate(-48780.3 -25175.2)" fill="#FFFFFF"/>
</g>
<g id="Vector">
<use xlink:href="#path13_fill" transform="translate(-48767.1 -25175.2)" fill="#FFFFFF"/>
</g>
<g id="Vector">
<use xlink:href="#path14_fill" transform="translate(-48757 -25175.2)" fill="#FFFFFF"/>
</g>
<g id="Vector">
<use xlink:href="#path15_fill" transform="translate(-48745.1 -25175.2)" fill="#FFFFFF"/>
</g>
<g id="Vector">
<use xlink:href="#path16_fill" transform="translate(-48735.8 -25175.5)" fill="#FFFFFF"/>
</g>
<g id="Vector">
<use xlink:href="#path17_fill" transform="translate(-48724.4 -25175.2)" fill="#FFFFFF"/>
</g>
<g id="Vector">
<use xlink:href="#path18_fill" transform="translate(-48711.6 -25175.5)" fill="#FFFFFF"/>
</g>
<g id="Vector">
<use xlink:href="#path19_fill" transform="translate(-48697.6 -25175.2)" fill="#FFFFFF"/>
</g>
<g id="Vector">
<use xlink:href="#path20_fill" transform="translate(-48817.5 -25152.9)" fill="#FFFFFF"/>
</g>
<g id="Vector">
<use xlink:href="#path21_fill" transform="translate(-48811.9 -25152.9)" fill="#FFFFFF"/>
</g>
<g id="Vector">
<use xlink:href="#path22_fill" transform="translate(-48797.1 -25152.9)" fill="#FFFFFF"/>
</g>
<g id="Vector">
<use xlink:href="#path23_fill" transform="translate(-48784.2 -25153.1)" fill="#FFFFFF"/>
</g>
<g id="Vector">
<use xlink:href="#path24_fill" transform="translate(-48769.5 -25152.9)" fill="#FFFFFF"/>
</g>
<g id="Vector">
<use xlink:href="#path25_fill" transform="translate(-48759.9 -25152.9)" fill="#FFFFFF"/>
</g>
<g id="Vector">
<use xlink:href="#path26_fill" transform="translate(-48755 -25152.8)" fill="#FFFFFF"/>
</g>
<g id="Vector">
<use xlink:href="#path27_fill" transform="translate(-48745.4 -25153.1)" fill="#FFFFFF"/>
</g>
<g id="Vector">
<use xlink:href="#path28_fill" transform="translate(-48730.7 -25152.9)" fill="#FFFFFF"/>
</g>
<g id="Vector">
<use xlink:href="#path29_fill" transform="translate(-48718.1 -25152.9)" fill="#FFFFFF"/>
</g>
<g id="Vector">
<use xlink:href="#path30_fill" transform="translate(-48712.4 -25153.3)" fill="#FFFFFF"/>
</g>
<g id="Vector">
<use xlink:href="#path31_fill" transform="translate(-48697.6 -25153)" fill="#FFFFFF"/>
</g>
</g>
</g>
<g id="Vector">
<use xlink:href="#path32_fill" transform="translate(-48832 -25226.7)" fill="#FFFFFF"/>
</g>
<g id="Group">
<g id="Vector">
<use xlink:href="#path33_fill" transform="translate(-48909.8 -25197.5)" fill="#FFFFFF"/>
</g>
<g id="Vector">
<use xlink:href="#path34_fill" transform="translate(-48855.3 -25197.6)" fill="#FFFFFF"/>
</g>
<g id="Group">
<g id="Vector">
<use xlink:href="#path35_fill" transform="translate(-48954.2 -25162.8)" fill="#FFFFFF"/>
</g>
<g id="Vector">
<use xlink:href="#path36_fill" transform="translate(-48954 -25197.6)" fill="#FFFFFF"/>
</g>
<g id="Vector">
<use xlink:href="#path37_fill" transform="translate(-48954 -25180.3)" fill="#FFFFFF"/>
</g>
</g>
</g>
</g>
</g>
</g>
<defs>
<path id="path0_fill" d="M 7.6 1.1C 7.6 1.3 7.6 1.5 7.6 1.6C 7.6 1.7 7.60001 1.9 7.50001 1.9C 7.50001 2 7.4 2 7.4 2.1C 7.4 2.1 7.3 2.2 7.2 2.2L 2.79999 2.2L 2.79999 5.8L 6.9 5.8C 7 5.8 7 5.8 7.1 5.9C 7.1 5.9 7.2 6 7.2 6.1C 7.2 6.2 7.29999 6.3 7.29999 6.4C 7.29999 6.5 7.29999 6.7 7.29999 6.9C 7.29999 7.1 7.29999 7.3 7.29999 7.4C 7.29999 7.5 7.3 7.7 7.2 7.7C 7.2 7.8 7.1 7.9 7.1 7.9C 7.1 7.9 7 8 6.9 8L 2.79999 8L 2.79999 13C 2.79999 13.1 2.8 13.1 2.7 13.2C 2.7 13.3 2.60001 13.3 2.50001 13.3C 2.40001 13.3 2.3 13.4 2.1 13.4C 1.9 13.4 1.7 13.4 1.4 13.4C 1.1 13.4 0.900003 13.4 0.700003 13.4C 0.500003 13.4 0.399994 13.3 0.299994 13.3C 0.199994 13.3 0.0999969 13.2 0.0999969 13.2C 0.0999969 13.1 6.10352e-06 13.1 6.10352e-06 13L 6.10352e-06 0.900002C 6.10352e-06 0.600002 0.100003 0.400001 0.200003 0.200001C 0.400003 0.100001 0.599994 7.10543e-15 0.799994 7.10543e-15L 7.2 7.10543e-15C 7.3 7.10543e-15 7.3 -1.52737e-06 7.4 0.0999985C 7.4 0.0999985 7.50001 0.199999 7.50001 0.299999C 7.50001 0.399999 7.6 0.500001 7.6 0.700001C 7.6 0.800001 7.6 0.899998 7.6 1.1Z"/>
<path id="path1_fill" d="M 10.1 13.2C 10.1 13.3 10.1 13.3 10.1 13.4C 10.1 13.5 10 13.5 9.9 13.5C 9.8 13.5 9.6 13.6 9.4 13.6C 9.2 13.6 8.9 13.6 8.6 13.6C 8.3 13.6 8.1 13.6 7.9 13.6C 7.7 13.6 7.60001 13.6 7.50001 13.5C 7.40001 13.5 7.29999 13.4 7.29999 13.4C 7.29999 13.3 7.2 13.3 7.2 13.2L 6.00001 10.2C 5.90001 9.9 5.7 9.6 5.6 9.3C 5.5 9 5.3 8.8 5.1 8.6C 4.9 8.4 4.70001 8.3 4.50001 8.2C 4.30001 8.1 4 8.1 3.7 8.1L 2.79999 8.1L 2.79999 13.3C 2.79999 13.4 2.8 13.4 2.7 13.5C 2.7 13.6 2.60001 13.6 2.50001 13.6C 2.40001 13.6 2.3 13.7 2.1 13.7C 1.9 13.7 1.7 13.7 1.4 13.7C 1.1 13.7 0.900003 13.7 0.700003 13.7C 0.500003 13.7 0.399994 13.7 0.299994 13.6C 0.199994 13.6 0.0999969 13.5 0.0999969 13.5C 0.0999969 13.4 6.10352e-06 13.4 6.10352e-06 13.3L 6.10352e-06 0.900002C 6.10352e-06 0.600002 0.100003 0.400001 0.200003 0.200001C 0.400003 0.100001 0.499994 7.10543e-15 0.799994 7.10543e-15L 4.29999 7.10543e-15C 4.69999 7.10543e-15 4.9 7.10543e-15 5.2 7.10543e-15C 5.4 7.10543e-15 5.59999 -1.52737e-06 5.79999 0.0999985C 6.29999 0.199998 6.79999 0.3 7.29999 0.5C 7.69999 0.7 8.1 0.900001 8.4 1.2C 8.7 1.5 8.9 1.9 9.1 2.3C 9.3 2.7 9.29999 3.2 9.29999 3.7C 9.29999 4.2 9.2 4.6 9.1 4.9C 9 5.3 8.8 5.6 8.6 5.9C 8.4 6.2 8.09999 6.4 7.79999 6.7C 7.49999 6.9 7.1 7.1 6.7 7.2C 6.9 7.3 7.09999 7.4 7.29999 7.6C 7.49999 7.7 7.59999 7.9 7.79999 8.1C 7.99999 8.3 8.1 8.5 8.2 8.8C 8.3 9.1 8.5 9.3 8.6 9.7L 9.7 12.4C 9.8 12.7 9.9 12.9 9.9 13C 10 13 10.1 13.1 10.1 13.2ZM 6.50001 4C 6.50001 3.6 6.4 3.2 6.2 2.9C 6 2.6 5.7 2.4 5.2 2.3C 5.1 2.3 4.9 2.2 4.7 2.2C 4.5 2.2 4.30001 2.2 4.00001 2.2L 2.79999 2.2L 2.79999 6L 4.2 6C 4.6 6 4.9 6 5.2 5.9C 5.5 5.8 5.7 5.7 5.9 5.5C 6.1 5.3 6.19999 5.1 6.29999 4.9C 6.49999 4.6 6.50001 4.3 6.50001 4Z"/>
<path id="path2_fill" d="M 7.99999 12.5C 7.99999 12.7 7.99999 12.9 7.99999 13C 7.99999 13.1 8 13.2 7.9 13.3C 7.9 13.4 7.8 13.4 7.8 13.5C 7.7 13.5 7.7 13.6 7.6 13.6L 0.799997 13.6C 0.599997 13.6 0.400006 13.5 0.200006 13.4C 6.09457e-06 13.3 -6.10352e-06 13 -6.10352e-06 12.7L -6.10352e-06 0.900002C -6.10352e-06 0.600002 0.100006 0.400001 0.200006 0.200001C 0.400006 0.100001 0.499997 7.10543e-15 0.799997 7.10543e-15L 7.49999 7.10543e-15C 7.59999 7.10543e-15 7.60001 -1.52737e-06 7.70001 0.0999985C 7.70001 0.0999985 7.8 0.199999 7.8 0.299999C 7.8 0.399999 7.9 0.499998 7.9 0.599998C 7.9 0.699998 7.9 0.899998 7.9 1.1C 7.9 1.3 7.9 1.5 7.9 1.6C 7.9 1.7 7.9 1.8 7.8 1.9C 7.8 2 7.70001 2 7.70001 2.1C 7.70001 2.1 7.59999 2.2 7.49999 2.2L 2.70001 2.2L 2.70001 5.5L 6.8 5.5C 6.9 5.5 6.89999 5.5 6.99999 5.6C 7.09999 5.6 7.1 5.7 7.1 5.8C 7.1 5.9 7.20001 6 7.20001 6.1C 7.20001 6.2 7.20001 6.4 7.20001 6.6C 7.20001 6.8 7.20001 7 7.20001 7.1C 7.20001 7.2 7.2 7.3 7.1 7.4C 7.1 7.5 6.99999 7.5 6.99999 7.6C 6.89999 7.6 6.9 7.7 6.8 7.7L 2.70001 7.7L 2.70001 11.5L 7.6 11.5C 7.7 11.5 7.7 11.5 7.8 11.6C 7.9 11.6 7.9 11.7 7.9 11.8C 7.9 11.9 7.99999 12 7.99999 12.1C 7.99999 12.1 7.99999 12.3 7.99999 12.5Z"/>
<path id="path3_fill" d="M 11.2 12.5C 11.2 12.7 11.2 12.8 11.1 12.9C 11 13 11 13.1 10.9 13.2C 10.8 13.3 10.7 13.3 10.6 13.4C 10.5 13.4 10.3 13.5 10.2 13.5L 9 13.5C 8.8 13.5 8.49999 13.5 8.39999 13.4C 8.19999 13.4 8.09999 13.3 7.89999 13.1C 7.79999 13 7.6 12.8 7.5 12.6C 7.4 12.4 7.2 12.1 7 11.7L 3.60001 5.4C 3.40001 5 3.2 4.6 3 4.2C 2.8 3.8 2.6 3.3 2.5 2.9C 2.5 3.4 2.50001 3.9 2.60001 4.4C 2.60001 4.9 2.60001 5.4 2.60001 5.9L 2.60001 13C 2.60001 13.1 2.6 13.1 2.5 13.2C 2.5 13.3 2.4 13.3 2.3 13.3C 2.2 13.3 2.09999 13.4 1.89999 13.4C 1.69999 13.4 1.5 13.4 1.3 13.4C 1.1 13.4 0.899997 13.4 0.699997 13.4C 0.499997 13.4 0.400003 13.3 0.300003 13.3C 0.200003 13.3 0.100006 13.2 0.100006 13.2C 0.100006 13.1 -2.84217e-14 13.1 -2.84217e-14 13L -2.84217e-14 0.9C -2.84217e-14 0.6 0.100003 0.299999 0.300003 0.199999C 0.500003 -7.59959e-07 0.7 -1.52588e-06 1 -1.52588e-06L 2.5 -1.52588e-06C 2.8 -1.52588e-06 3 7.59959e-07 3.2 0.100001C 3.4 0.100001 3.5 0.200002 3.7 0.300002C 3.8 0.400002 4.00001 0.499999 4.10001 0.699999C 4.20001 0.899999 4.4 1.1 4.5 1.4L 7.10001 6.3C 7.30001 6.6 7.40001 6.9 7.60001 7.2C 7.80001 7.5 7.9 7.8 8 8.1C 8.1 8.4 8.29999 8.7 8.39999 9C 8.49999 9.3 8.7 9.6 8.8 9.8C 8.8 9.3 8.8 8.8 8.8 8.3C 8.8 7.8 8.8 7.3 8.8 6.8L 8.8 0.499998C 8.8 0.399998 8.79999 0.400002 8.89999 0.300002C 8.89999 0.200002 9.00001 0.199999 9.10001 0.199999C 9.20001 0.199999 9.3 0.100001 9.5 0.100001C 9.7 0.100001 9.90001 0.100001 10.1 0.100001C 10.3 0.100001 10.5 0.100001 10.7 0.100001C 10.9 0.100001 11 0.0999992 11.1 0.199999C 11.2 0.199999 11.2 0.300002 11.3 0.300002C 11.3 0.400002 11.4 0.399998 11.4 0.499998L 11.4 12.5L 11.2 12.5Z"/>
<path id="path4_fill" d="M 10.4 1.1C 10.4 1.3 10.4 1.5 10.4 1.6C 10.4 1.7 10.4 1.9 10.3 1.9C 10.3 2 10.2 2.1 10.2 2.1C 10.1 2.1 10.1 2.2 9.99999 2.2L 6.6 2.2L 6.6 13.1C 6.6 13.2 6.59999 13.2 6.49999 13.3C 6.49999 13.4 6.4 13.4 6.3 13.4C 6.2 13.4 6.1 13.5 5.9 13.5C 5.7 13.5 5.50001 13.5 5.20001 13.5C 4.90001 13.5 4.69999 13.5 4.49999 13.5C 4.29999 13.5 4.2 13.5 4.1 13.4C 4 13.4 3.9 13.3 3.9 13.3C 3.9 13.2 3.8 13.2 3.8 13.1L 3.8 2.3L 0.400003 2.3C 0.300003 2.3 0.300006 2.3 0.200006 2.2C 0.200006 2.2 0.1 2.1 0.1 2C 0.1 1.9 -6.10352e-06 1.8 -6.10352e-06 1.7C -6.10352e-06 1.6 -6.10352e-06 1.4 -6.10352e-06 1.2C -6.10352e-06 1 -6.10352e-06 0.800001 -6.10352e-06 0.700001C -6.10352e-06 0.600001 0 0.399999 0.1 0.299999C 0.1 0.199999 0.200006 0.199998 0.200006 0.0999985C 0.200006 0.0999985 0.300003 7.10543e-15 0.400003 7.10543e-15L 9.9 7.10543e-15C 10 7.10543e-15 10 -1.52737e-06 10.1 0.0999985C 10.2 0.0999985 10.2 0.199999 10.2 0.299999C 10.2 0.399999 10.3 0.500001 10.3 0.700001C 10.4 0.800001 10.4 0.899998 10.4 1.1Z"/>
<path id="path5_fill" d="M 8 12.5C 8 12.7 8 12.9 8 13C 8 13.1 8.00001 13.2 7.90001 13.3C 7.90001 13.4 7.8 13.4 7.8 13.5C 7.7 13.5 7.7 13.6 7.6 13.6L 0.8 13.6C 0.6 13.6 0.399994 13.5 0.199994 13.4C -6.10948e-06 13.3 -3.05176e-06 13 -3.05176e-06 12.7L -3.05176e-06 0.900002C -3.05176e-06 0.600002 0.0999939 0.400001 0.199994 0.200001C 0.399994 0.100001 0.6 7.10543e-15 0.8 7.10543e-15L 7.6 7.10543e-15C 7.7 7.10543e-15 7.7 -1.52737e-06 7.8 0.0999985C 7.8 0.0999985 7.90001 0.199999 7.90001 0.299999C 7.90001 0.399999 8 0.499998 8 0.599998C 8 0.699998 8 0.899998 8 1.1C 8 1.3 8 1.5 8 1.6C 8 1.7 8.00001 1.8 7.90001 1.9C 7.90001 2 7.8 2 7.8 2.1C 7.8 2.1 7.7 2.2 7.6 2.2L 2.8 2.2L 2.8 5.5L 6.90001 5.5C 7.00001 5.5 7 5.5 7.1 5.6C 7.2 5.6 7.19999 5.7 7.19999 5.8C 7.19999 5.9 7.3 6 7.3 6.1C 7.3 6.2 7.3 6.4 7.3 6.6C 7.3 6.8 7.3 7 7.3 7.1C 7.3 7.2 7.29999 7.3 7.19999 7.4C 7.19999 7.5 7.1 7.5 7.1 7.6C 7 7.6 7.00001 7.7 6.90001 7.7L 2.8 7.7L 2.8 11.5L 7.69999 11.5C 7.79999 11.5 7.80001 11.5 7.90001 11.6C 8.00001 11.6 8 11.7 8 11.8C 8 11.9 8.1 12 8.1 12.1C 8 12.1 8 12.3 8 12.5Z"/>
<path id="path6_fill" d="M 9.30001 4C 9.30001 4.8 9.2 5.4 8.9 6C 8.7 6.6 8.3 7.1 7.9 7.5C 7.4 7.9 6.9 8.2 6.2 8.4C 5.5 8.6 4.8 8.7 3.9 8.7L 2.80001 8.7L 2.80001 13C 2.80001 13.1 2.8 13.1 2.7 13.2C 2.7 13.3 2.6 13.3 2.5 13.3C 2.4 13.3 2.29999 13.4 2.09999 13.4C 1.89999 13.4 1.7 13.4 1.4 13.4C 1.1 13.4 0.9 13.4 0.7 13.4C 0.5 13.4 0.400006 13.4 0.300006 13.3C 0.200006 13.3 0.0999939 13.2 0.0999939 13.2C 0.0999939 13.1 3.05176e-06 13.1 3.05176e-06 13L 3.05176e-06 0.9C 3.05176e-06 0.6 0.100006 0.299999 0.300006 0.199999C 0.500006 -7.59959e-07 0.700003 -1.52588e-06 1 -1.52588e-06L 4.2 -1.52588e-06C 4.5 -1.52588e-06 4.79999 -1.52588e-06 5.09999 -1.52588e-06C 5.39999 -1.52588e-06 5.69999 0.0999992 6.09999 0.199999C 6.49999 0.299999 6.90001 0.400001 7.30001 0.600001C 7.70001 0.800001 8.1 1.1 8.4 1.4C 8.7 1.7 8.89999 2.1 9.09999 2.6C 9.19999 3 9.30001 3.5 9.30001 4ZM 6.4 4.2C 6.4 3.7 6.29999 3.3 6.09999 3C 5.89999 2.7 5.7 2.5 5.5 2.3C 5.3 2.1 5 2.1 4.7 2C 4.4 2 4.2 1.9 3.9 1.9L 2.7 1.9L 2.7 6.5L 3.9 6.5C 4.3 6.5 4.7 6.4 5 6.3C 5.3 6.2 5.5 6 5.7 5.8C 5.9 5.6 5.99999 5.3 6.09999 5C 6.39999 4.9 6.4 4.6 6.4 4.2Z"/>
<path id="path7_fill" d="M 12.8 6.9C 12.8 8 12.7 9 12.4 9.9C 12.1 10.8 11.7 11.5 11.2 12.2C 10.7 12.8 10 13.3 9.2 13.6C 8.4 13.9 7.40001 14.1 6.40001 14.1C 5.30001 14.1 4.39999 14 3.59999 13.7C 2.79999 13.4 2.19999 13 1.59999 12.4C 1.09999 11.8 0.700012 11.1 0.400012 10.2C 0.100012 9.3 -1.2207e-05 8.3 -1.2207e-05 7.1C -1.2207e-05 6 0.100012 5 0.400012 4.1C 0.700012 3.2 1.09999 2.5 1.59999 1.9C 2.09999 1.3 2.79999 0.800001 3.59999 0.500001C 4.39999 0.200001 5.40001 7.62939e-07 6.40001 7.62939e-07C 7.40001 7.62939e-07 8.29999 0.0999985 9.09999 0.399998C 9.89999 0.699998 10.5 1.1 11.1 1.7C 11.6 2.3 12 3 12.3 3.8C 12.7 4.7 12.8 5.8 12.8 6.9ZM 9.90001 7.1C 9.90001 6.4 9.8 5.7 9.7 5.2C 9.6 4.6 9.39999 4.1 9.09999 3.7C 8.79999 3.3 8.49999 3 7.99999 2.7C 7.59999 2.5 7.00001 2.4 6.30001 2.4C 5.60001 2.4 5.09999 2.5 4.59999 2.8C 4.09999 3.1 3.79999 3.4 3.49999 3.8C 3.19999 4.2 3.00001 4.7 2.90001 5.3C 2.80001 5.9 2.7 6.5 2.7 7.1C 2.7 7.8 2.80001 8.5 2.90001 9.1C 3.00001 9.7 3.19999 10.2 3.49999 10.6C 3.79999 11 4.09999 11.3 4.59999 11.6C 4.99999 11.8 5.60001 11.9 6.30001 11.9C 7.00001 11.9 7.49999 11.8 7.99999 11.5C 8.49999 11.3 8.79999 10.9 9.09999 10.5C 9.39999 10.1 9.6 9.6 9.7 9C 9.9 8.3 9.90001 7.7 9.90001 7.1Z"/>
<path id="path8_fill" d="M 10.1 13.2C 10.1 13.3 10.1 13.3 10.1 13.4C 10.1 13.5 10 13.5 9.9 13.5C 9.8 13.5 9.6 13.6 9.4 13.6C 9.2 13.6 8.90001 13.6 8.60001 13.6C 8.30001 13.6 8.1 13.6 7.9 13.6C 7.7 13.6 7.60001 13.6 7.50001 13.5C 7.40001 13.5 7.29999 13.4 7.29999 13.4C 7.29999 13.3 7.19999 13.3 7.19999 13.2L 6.00001 10.2C 5.90001 9.9 5.70001 9.6 5.60001 9.3C 5.50001 9 5.30001 8.8 5.10001 8.6C 4.90001 8.4 4.70001 8.3 4.50001 8.2C 4.30001 8.1 3.99999 8.1 3.69999 8.1L 2.79999 8.1L 2.79999 13.3C 2.79999 13.4 2.79999 13.4 2.69999 13.5C 2.69999 13.6 2.60001 13.6 2.50001 13.6C 2.40001 13.6 2.30001 13.7 2.10001 13.7C 1.90001 13.7 1.7 13.7 1.4 13.7C 1.1 13.7 0.899988 13.7 0.699988 13.7C 0.499988 13.7 0.399994 13.7 0.299994 13.6C 0.199994 13.6 0.100012 13.5 0.100012 13.5C 0.100012 13.4 6.10352e-06 13.4 6.10352e-06 13.3L 6.10352e-06 0.900002C 6.10352e-06 0.600002 0.0999878 0.400001 0.199988 0.200001C 0.399988 0.100001 0.599994 7.10543e-15 0.799994 7.10543e-15L 4.29999 7.10543e-15C 4.69999 7.10543e-15 4.89999 7.10543e-15 5.19999 7.10543e-15C 5.39999 7.10543e-15 5.59999 -1.52737e-06 5.79999 0.0999985C 6.29999 0.199998 6.79999 0.3 7.29999 0.5C 7.69999 0.7 8.1 0.900001 8.4 1.2C 8.7 1.5 8.90001 1.9 9.10001 2.3C 9.30001 2.7 9.29999 3.2 9.29999 3.7C 9.29999 4.2 9.20001 4.6 9.10001 4.9C 9.00001 5.3 8.80001 5.6 8.60001 5.9C 8.40001 6.2 8.09999 6.4 7.79999 6.7C 7.49999 6.9 7.09999 7.1 6.69999 7.2C 6.89999 7.3 7.09999 7.4 7.29999 7.6C 7.49999 7.8 7.59999 7.9 7.79999 8.1C 7.99999 8.3 8.09999 8.5 8.19999 8.8C 8.29999 9.1 8.50001 9.3 8.60001 9.7L 9.69999 12.4C 9.79999 12.7 9.9 12.9 9.9 13C 10.1 13 10.1 13.1 10.1 13.2ZM 6.50001 4C 6.50001 3.6 6.39999 3.2 6.19999 2.9C 5.99999 2.6 5.69999 2.4 5.19999 2.3C 5.09999 2.3 4.89999 2.2 4.69999 2.2C 4.49999 2.2 4.30001 2.2 4.00001 2.2L 2.79999 2.2L 2.79999 6L 4.19999 6C 4.59999 6 4.89999 6 5.19999 5.9C 5.49999 5.8 5.7 5.7 5.9 5.5C 6.1 5.3 6.19999 5.1 6.29999 4.9C 6.49999 4.6 6.50001 4.3 6.50001 4Z"/>
<path id="path9_fill" d="M 7.4 12.4C 7.4 12.6 7.4 12.8 7.4 12.9C 7.4 13 7.39999 13.2 7.29999 13.3C 7.29999 13.4 7.2 13.5 7.2 13.5C 7.1 13.5 7.10001 13.6 7.00001 13.6L 0.799994 13.6C 0.599994 13.6 0.400003 13.5 0.200003 13.4C 3.05474e-06 13.3 6.10352e-06 13 6.10352e-06 12.7L 6.10352e-06 0.399997C 6.10352e-06 0.299997 -3.05474e-06 0.3 0.0999969 0.2C 0.0999969 0.1 0.199994 0.100002 0.299994 0.100002C 0.399994 0.100002 0.500003 3.05176e-06 0.700003 3.05176e-06C 0.900003 3.05176e-06 1.1 3.05176e-06 1.4 3.05176e-06C 1.7 3.05176e-06 1.9 3.05176e-06 2.1 3.05176e-06C 2.3 3.05176e-06 2.40001 1.52737e-06 2.50001 0.100002C 2.60001 0.100002 2.7 0.2 2.7 0.2C 2.7 0.3 2.79999 0.299997 2.79999 0.399997L 2.79999 11.3L 7.1 11.3C 7.2 11.3 7.19999 11.3 7.29999 11.4C 7.39999 11.4 7.4 11.5 7.4 11.6C 7.4 11.7 7.50001 11.8 7.50001 11.9C 7.40001 12 7.4 12.2 7.4 12.4Z"/>
<path id="path10_fill" d="M 12.8 6.9C 12.8 8 12.7 9 12.4 9.9C 12.1 10.8 11.7 11.5 11.2 12.2C 10.6 12.8 10 13.3 9.20001 13.6C 8.40001 13.9 7.4 14.1 6.4 14.1C 5.3 14.1 4.4 14 3.6 13.7C 2.8 13.4 2.2 13 1.6 12.4C 1.1 11.8 0.700003 11.1 0.400003 10.2C 0.100003 9.3 -6.10352e-06 8.3 -6.10352e-06 7.1C -6.10352e-06 6 0.100003 5 0.400003 4.1C 0.700003 3.2 1.1 2.5 1.6 1.9C 2.2 1.3 2.8 0.8 3.6 0.5C 4.4 0.2 5.4 0 6.4 0C 7.4 0 8.3 0.100002 9.1 0.400002C 9.9 0.700002 10.5 1.1 11.1 1.7C 11.6 2.3 12 3 12.3 3.8C 12.6 4.7 12.8 5.7 12.8 6.9ZM 9.9 7.1C 9.9 6.4 9.80001 5.7 9.70001 5.2C 9.60001 4.6 9.4 4.1 9.1 3.7C 8.8 3.3 8.49999 3 7.99999 2.7C 7.59999 2.5 7 2.4 6.3 2.4C 5.6 2.4 5.1 2.5 4.6 2.8C 4.1 3.1 3.79999 3.4 3.49999 3.8C 3.19999 4.2 3 4.7 2.9 5.3C 2.8 5.9 2.70001 6.5 2.70001 7.1C 2.70001 7.8 2.8 8.5 2.9 9.1C 3 9.7 3.19999 10.2 3.49999 10.6C 3.79999 11 4.1 11.3 4.6 11.6C 5 11.8 5.6 11.9 6.3 11.9C 7 11.9 7.49999 11.8 7.99999 11.5C 8.49999 11.2 8.8 10.9 9.1 10.5C 9.4 10.1 9.60001 9.6 9.70001 9C 9.80001 8.3 9.9 7.7 9.9 7.1Z"/>
<path id="path11_fill" d="M 8.9 9.5C 8.9 10.2 8.8 10.8 8.5 11.4C 8.2 11.9 7.9 12.4 7.4 12.7C 6.9 13.1 6.40001 13.3 5.80001 13.5C 5.20001 13.7 4.5 13.8 3.9 13.8C 3.4 13.8 2.99999 13.8 2.59999 13.7C 2.19999 13.6 1.8 13.5 1.5 13.4C 1.2 13.3 0.9 13.2 0.7 13.1C 0.5 13 0.300006 12.9 0.300006 12.8C 0.200006 12.7 0.0999939 12.6 0.0999939 12.4C 0.0999939 12.2 3.05176e-06 12 3.05176e-06 11.7C 3.05176e-06 11.5 3.05176e-06 11.3 3.05176e-06 11.2C 3.05176e-06 11.1 -6.10203e-06 10.9 0.0999939 10.8C 0.0999939 10.7 0.2 10.6 0.2 10.6C 0.3 10.6 0.299997 10.5 0.399997 10.5C 0.499997 10.5 0.600006 10.6 0.800006 10.7C 1.00001 10.8 1.2 10.9 1.5 11.1C 1.8 11.2 2.1 11.4 2.5 11.5C 2.9 11.6 3.30001 11.7 3.80001 11.7C 4.10001 11.7 4.4 11.7 4.7 11.6C 5 11.5 5.2 11.4 5.4 11.3C 5.6 11.2 5.70001 11 5.80001 10.8C 5.90001 10.6 5.9 10.3 5.9 10.1C 5.9 9.8 5.8 9.5 5.7 9.3C 5.5 9.1 5.3 8.9 5 8.7C 4.7 8.5 4.39999 8.4 4.09999 8.2C 3.79999 8 3.4 7.9 3 7.7C 2.6 7.5 2.3 7.3 1.9 7.1C 1.6 6.9 1.3 6.6 1 6.3C 0.700003 6 0.500006 5.7 0.300006 5.3C 0.100006 4.9 3.05176e-06 4.4 3.05176e-06 3.8C 3.05176e-06 3.2 0.0999969 2.6 0.399997 2.1C 0.599997 1.6 0.999997 1.2 1.4 0.899997C 1.8 0.599997 2.30001 0.3 2.80001 0.2C 3.40001 0 3.89999 3.05176e-06 4.59999 3.05176e-06C 4.89999 3.05176e-06 5.19999 1.52737e-06 5.59999 0.100002C 5.99999 0.200002 6.2 0.199998 6.5 0.299998C 6.8 0.399998 7 0.500001 7.2 0.600002C 7.4 0.700002 7.59999 0.799997 7.59999 0.899997C 7.69999 0.999997 7.7 1 7.7 1.1C 7.7 1.1 7.70001 1.2 7.80001 1.3C 7.80001 1.4 7.80001 1.5 7.80001 1.6C 7.80001 1.7 7.80001 1.9 7.80001 2.1C 7.80001 2.3 7.80001 2.5 7.80001 2.6C 7.80001 2.7 7.8 2.9 7.7 2.9C 7.7 3 7.59999 3.1 7.59999 3.1C 7.59999 3.1 7.5 3.2 7.4 3.2C 7.3 3.2 7.2 3.2 7 3.1C 6.8 3 6.6 2.9 6.4 2.8C 6.2 2.7 5.89999 2.6 5.59999 2.5C 5.29999 2.4 4.9 2.4 4.5 2.4C 4.2 2.4 3.9 2.4 3.7 2.5C 3.5 2.6 3.29999 2.7 3.09999 2.8C 2.89999 2.9 2.80001 3.1 2.80001 3.3C 2.70001 3.5 2.7 3.7 2.7 3.9C 2.7 4.2 2.8 4.5 2.9 4.7C 3.1 4.9 3.29999 5.1 3.59999 5.3C 3.89999 5.5 4.2 5.6 4.5 5.8C 4.8 6 5.19999 6.1 5.59999 6.3C 5.99999 6.5 6.3 6.7 6.7 6.9C 7 7.1 7.39999 7.4 7.59999 7.7C 7.89999 8 8.10001 8.3 8.30001 8.7C 8.80001 8.5 8.9 8.9 8.9 9.5Z"/>
<path id="path12_fill" d="M 11.2 6.6C 11.2 7.8 11 8.9 10.7 9.8C 10.4 10.7 9.9 11.4 9.3 12C 8.7 12.6 8 13 7.1 13.2C 6.2 13.5 5.2 13.6 4 13.6L 0.8 13.6C 0.6 13.6 0.399994 13.5 0.199994 13.4C -6.10948e-06 13.3 -3.05176e-06 13 -3.05176e-06 12.7L -3.05176e-06 0.899997C -3.05176e-06 0.599997 0.0999939 0.4 0.199994 0.2C 0.399994 0.1 0.5 3.05176e-06 0.8 3.05176e-06L 4.3 3.05176e-06C 5.5 3.05176e-06 6.50001 0.0999969 7.40001 0.399997C 8.20001 0.699997 8.9 1.1 9.5 1.7C 10.1 2.3 10.5 2.9 10.8 3.8C 11 4.6 11.2 5.5 11.2 6.6ZM 8.3 6.7C 8.3 6.1 8.2 5.5 8.1 4.9C 8 4.3 7.70001 3.9 7.40001 3.5C 7.10001 3.1 6.6 2.8 6.1 2.6C 5.6 2.4 4.9 2.3 4.1 2.3L 2.69999 2.3L 2.69999 11.5L 4.1 11.5C 4.9 11.5 5.5 11.4 6 11.2C 6.5 11 6.9 10.7 7.3 10.3C 7.6 9.9 7.9 9.4 8.1 8.8C 8.3 8.1 8.3 7.4 8.3 6.7Z"/>
<path id="path13_fill" d="M 7.99999 12.5C 7.99999 12.7 7.99999 12.9 7.99999 13C 7.99999 13.1 8 13.2 7.9 13.3C 7.9 13.4 7.8 13.4 7.8 13.5C 7.7 13.5 7.7 13.6 7.6 13.6L 0.799997 13.6C 0.599997 13.6 0.400006 13.5 0.200006 13.4C 6.09457e-06 13.3 -6.10352e-06 13 -6.10352e-06 12.7L -6.10352e-06 0.899997C -6.10352e-06 0.599997 0.100006 0.4 0.200006 0.2C 0.400006 0.1 0.499997 3.05176e-06 0.799997 3.05176e-06L 7.49999 3.05176e-06C 7.59999 3.05176e-06 7.60001 1.52737e-06 7.70001 0.100002C 7.70001 0.100002 7.8 0.199998 7.8 0.299998C 7.8 0.399998 7.9 0.500001 7.9 0.600002C 7.9 0.700002 7.9 0.900002 7.9 1.1C 7.9 1.3 7.9 1.5 7.9 1.6C 7.9 1.7 7.9 1.8 7.8 1.9C 7.8 2 7.70001 2 7.70001 2.1C 7.70001 2.1 7.59999 2.2 7.49999 2.2L 2.70001 2.2L 2.70001 5.5L 6.8 5.5C 6.9 5.5 6.89999 5.5 6.99999 5.6C 7.09999 5.6 7.1 5.7 7.1 5.8C 7.1 5.9 7.20001 6 7.20001 6.1C 7.20001 6.2 7.20001 6.4 7.20001 6.6C 7.20001 6.8 7.20001 7 7.20001 7.1C 7.20001 7.2 7.2 7.3 7.1 7.4C 7.1 7.5 6.99999 7.5 6.99999 7.6C 6.89999 7.6 6.9 7.7 6.8 7.7L 2.70001 7.7L 2.70001 11.5L 7.6 11.5C 7.7 11.5 7.7 11.5 7.8 11.6C 7.9 11.6 7.9 11.7 7.9 11.8C 7.9 11.9 7.99999 12 7.99999 12.1C 7.99999 12.1 7.99999 12.3 7.99999 12.5Z"/>
<path id="path14_fill" d="M 10.1 13.2C 10.1 13.3 10.1 13.3 10.1 13.4C 10.1 13.5 9.99999 13.5 9.89999 13.5C 9.79999 13.5 9.59999 13.6 9.39999 13.6C 9.19999 13.6 8.90001 13.6 8.60001 13.6C 8.30001 13.6 8.09999 13.6 7.89999 13.6C 7.69999 13.6 7.6 13.6 7.5 13.5C 7.4 13.5 7.3 13.4 7.3 13.4C 7.3 13.3 7.2 13.3 7.2 13.2L 6 10.2C 5.9 9.9 5.70001 9.6 5.60001 9.3C 5.50001 9 5.30001 8.8 5.10001 8.6C 4.90001 8.4 4.7 8.3 4.5 8.2C 4.3 8.1 4 8.1 3.7 8.1L 2.8 8.1L 2.8 13.2C 2.8 13.3 2.8 13.3 2.7 13.4C 2.7 13.5 2.6 13.5 2.5 13.5C 2.4 13.5 2.30001 13.6 2.10001 13.6C 1.90001 13.6 1.69999 13.6 1.39999 13.6C 1.09999 13.6 0.899997 13.6 0.699997 13.6C 0.499997 13.6 0.400003 13.6 0.300003 13.5C 0.200003 13.5 0.100006 13.4 0.100006 13.4C 0.100006 13.3 -5.68434e-14 13.3 -5.68434e-14 13.2L -5.68434e-14 0.899997C -5.68434e-14 0.599997 0.0999969 0.4 0.199997 0.2C 0.399997 0.1 0.500003 3.05176e-06 0.800003 3.05176e-06L 4.3 3.05176e-06C 4.7 3.05176e-06 4.9 3.05176e-06 5.2 3.05176e-06C 5.4 3.05176e-06 5.6 1.52737e-06 5.8 0.100002C 6.3 0.200002 6.8 0.300003 7.3 0.500003C 7.7 0.700003 8.09999 0.9 8.39999 1.2C 8.69999 1.5 8.90001 1.9 9.10001 2.3C 9.30001 2.7 9.3 3.2 9.3 3.7C 9.3 4.2 9.20001 4.6 9.10001 4.9C 9.00001 5.3 8.80001 5.6 8.60001 5.9C 8.40001 6.2 8.1 6.4 7.8 6.7C 7.5 6.9 7.1 7.1 6.7 7.2C 6.9 7.3 7.1 7.4 7.3 7.6C 7.5 7.7 7.6 7.9 7.8 8.1C 8 8.3 8.1 8.5 8.2 8.8C 8.3 9.1 8.50001 9.3 8.60001 9.7L 9.7 12.4C 9.8 12.7 9.89999 12.9 9.89999 13C 10.1 13 10.1 13.1 10.1 13.2ZM 6.60001 4C 6.60001 3.6 6.5 3.2 6.3 2.9C 6.1 2.6 5.8 2.4 5.3 2.3C 5.2 2.3 5 2.2 4.8 2.2C 4.6 2.2 4.40001 2.2 4.10001 2.2L 2.89999 2.2L 2.89999 6L 4.3 6C 4.7 6 5 6 5.3 5.9C 5.6 5.8 5.8 5.7 6 5.5C 6.2 5.3 6.29999 5.1 6.39999 4.9C 6.49999 4.6 6.60001 4.3 6.60001 4Z"/>
<path id="path15_fill" d="M 7.99999 12.5C 7.99999 12.7 7.99999 12.9 7.99999 13C 7.99999 13.1 8 13.2 7.9 13.3C 7.9 13.4 7.8 13.4 7.8 13.5C 7.7 13.5 7.7 13.6 7.6 13.6L 0.799997 13.6C 0.599997 13.6 0.400006 13.5 0.200006 13.4C 6.09457e-06 13.3 -6.10352e-06 13 -6.10352e-06 12.7L -6.10352e-06 0.899997C -6.10352e-06 0.599997 0.100006 0.4 0.200006 0.2C 0.400006 0.1 0.499997 3.05176e-06 0.799997 3.05176e-06L 7.49999 3.05176e-06C 7.59999 3.05176e-06 7.60001 1.52737e-06 7.70001 0.100002C 7.70001 0.100002 7.8 0.199998 7.8 0.299998C 7.8 0.399998 7.9 0.500001 7.9 0.600002C 7.9 0.700002 7.9 0.900002 7.9 1.1C 7.9 1.3 7.9 1.5 7.9 1.6C 7.9 1.7 7.9 1.8 7.8 1.9C 7.7 2 7.70001 2 7.70001 2.1C 7.70001 2.1 7.59999 2.2 7.49999 2.2L 2.70001 2.2L 2.70001 5.5L 6.8 5.5C 6.9 5.5 6.89999 5.5 6.99999 5.6C 7.09999 5.6 7.1 5.7 7.1 5.8C 7.1 5.9 7.20001 6 7.20001 6.1C 7.20001 6.2 7.20001 6.4 7.20001 6.6C 7.20001 6.8 7.20001 7 7.20001 7.1C 7.20001 7.2 7.2 7.3 7.1 7.4C 7.1 7.5 6.99999 7.5 6.99999 7.6C 6.89999 7.6 6.9 7.7 6.8 7.7L 2.70001 7.7L 2.70001 11.5L 7.6 11.5C 7.7 11.5 7.7 11.5 7.8 11.6C 7.9 11.6 7.9 11.7 7.9 11.8C 7.9 11.9 7.99999 12 7.99999 12.1C 7.99999 12.1 7.99999 12.3 7.99999 12.5Z"/>
<path id="path16_fill" d="M 9.90001 11.8C 9.90001 12 9.90001 12.1 9.90001 12.2C 9.90001 12.3 9.90001 12.4 9.90001 12.5C 9.90001 12.6 9.9 12.7 9.8 12.7C 9.8 12.8 9.69999 12.8 9.59999 12.9C 9.49999 13 9.39999 13.1 9.19999 13.2C 8.99999 13.3 8.70001 13.4 8.40001 13.6C 8.10001 13.7 7.7 13.8 7.3 13.9C 6.9 14 6.50001 14 6.00001 14C 5.10001 14 4.20001 13.9 3.50001 13.6C 2.80001 13.3 2.1 12.9 1.6 12.3C 1.1 11.7 0.700006 11 0.400006 10.2C 0.100006 9.4 -3.05176e-06 8.4 -3.05176e-06 7.2C -3.05176e-06 6.1 0.199997 5 0.499997 4.1C 0.799997 3.2 1.2 2.5 1.8 1.9C 2.4 1.3 3 0.8 3.8 0.5C 4.6 0.2 5.4 0 6.3 0C 6.7 0 7.00001 -1.52737e-06 7.40001 0.0999985C 7.70001 0.199998 8.10001 0.200003 8.40001 0.300003C 8.70001 0.400003 8.99999 0.499998 9.19999 0.599998C 9.39999 0.699998 9.59999 0.800002 9.69999 0.900002C 9.79999 1 9.90001 1.1 9.90001 1.1C 9.90001 1.2 10 1.2 10 1.3C 10 1.4 10 1.5 10 1.6C 10 1.7 10 1.9 10 2.1C 10 2.3 10 2.5 10 2.6C 10 2.7 10 2.9 9.90001 3C 9.90001 3.1 9.8 3.2 9.8 3.2C 9.8 3.2 9.69999 3.3 9.59999 3.3C 9.49999 3.3 9.39999 3.2 9.19999 3.1C 8.99999 3 8.79999 2.8 8.59999 2.7C 8.29999 2.6 7.99999 2.4 7.69999 2.3C 7.29999 2.2 6.90001 2.1 6.40001 2.1C 5.90001 2.1 5.40001 2.2 5.00001 2.4C 4.60001 2.6 4.20001 2.9 3.90001 3.3C 3.60001 3.7 3.39999 4.2 3.19999 4.8C 2.99999 5.4 3.00001 6 3.00001 6.8C 3.00001 7.6 3.09999 8.3 3.19999 8.9C 3.39999 9.5 3.60001 10 3.90001 10.3C 4.20001 10.7 4.60001 11 5.00001 11.1C 5.40001 11.3 5.90001 11.4 6.40001 11.4C 6.90001 11.4 7.29999 11.3 7.69999 11.2C 8.09999 11.1 8.39999 11 8.59999 10.8C 8.89999 10.7 9.09999 10.5 9.19999 10.4C 9.29999 10.3 9.49999 10.2 9.59999 10.2C 9.69999 10.2 9.7 10.2 9.8 10.2C 9.8 10.2 9.90001 10.3 9.90001 10.4C 9.90001 10.5 9.90001 10.6 10 10.7C 9.90001 11.3 9.90001 11.5 9.90001 11.8Z"/>
<path id="path17_fill" d="M 10.7 13.2C 10.7 13.3 10.7 13.3 10.6 13.4C 10.6 13.5 10.5 13.5 10.4 13.5C 10.3 13.5 10.2 13.6 10 13.6C 9.80001 13.6 9.59999 13.6 9.29999 13.6C 8.99999 13.6 8.80001 13.6 8.60001 13.6C 8.40001 13.6 8.29999 13.6 8.19999 13.5C 8.09999 13.5 8.00001 13.4 8.00001 13.4C 8.00001 13.3 7.9 13.3 7.9 13.2L 7.9 7.7L 2.79999 7.7L 2.79999 13.2C 2.79999 13.3 2.79999 13.3 2.69999 13.4C 2.69999 13.5 2.60001 13.5 2.50001 13.5C 2.40001 13.5 2.30001 13.6 2.10001 13.6C 1.90001 13.6 1.7 13.6 1.4 13.6C 1.1 13.6 0.899988 13.6 0.699988 13.6C 0.499988 13.6 0.399994 13.6 0.299994 13.5C 0.199994 13.5 0.100012 13.4 0.100012 13.4C 0.100012 13.3 6.10352e-06 13.3 6.10352e-06 13.2L 6.10352e-06 0.399997C 6.10352e-06 0.299997 1.22041e-05 0.3 0.100012 0.2C 0.100012 0.1 0.199994 0.100002 0.299994 0.100002C 0.399994 0.100002 0.499988 3.05176e-06 0.699988 3.05176e-06C 0.899988 3.05176e-06 1.1 3.05176e-06 1.4 3.05176e-06C 1.7 3.05176e-06 1.90001 3.05176e-06 2.10001 3.05176e-06C 2.30001 3.05176e-06 2.40001 1.52737e-06 2.50001 0.100002C 2.60001 0.100002 2.69999 0.2 2.69999 0.2C 2.69999 0.3 2.79999 0.299997 2.79999 0.399997L 2.79999 5.4L 7.9 5.4L 7.9 0.399997C 7.9 0.299997 7.90001 0.3 8.00001 0.2C 8.00001 0.1 8.09999 0.100002 8.19999 0.100002C 8.29999 0.100002 8.40001 3.05176e-06 8.60001 3.05176e-06C 8.80001 3.05176e-06 8.99999 3.05176e-06 9.29999 3.05176e-06C 9.59999 3.05176e-06 9.80001 3.05176e-06 10 3.05176e-06C 10.2 3.05176e-06 10.3 1.52737e-06 10.4 0.100002C 10.5 0.100002 10.6 0.2 10.6 0.2C 10.6 0.3 10.7 0.299997 10.7 0.399997L 10.7 13.2Z"/>
<path id="path18_fill" d="M 12.8 6.9C 12.8 8 12.7 9 12.4 9.9C 12.1 10.8 11.7 11.5 11.2 12.2C 10.7 12.8 10 13.3 9.20001 13.6C 8.40001 13.9 7.39999 14.1 6.39999 14.1C 5.29999 14.1 4.4 14 3.6 13.7C 2.8 13.4 2.2 13 1.6 12.4C 1.1 11.8 0.699988 11.1 0.399988 10.2C 0.0999878 9.3 -6.10352e-06 8.3 -6.10352e-06 7.1C -6.10352e-06 6 0.0999878 5 0.399988 4.1C 0.699988 3.2 1.1 2.5 1.6 1.9C 2.1 1.3 2.8 0.8 3.6 0.5C 4.4 0.2 5.39999 0 6.39999 0C 7.39999 0 8.3 0.100002 9.1 0.400002C 9.9 0.700002 10.5 1.1 11.1 1.7C 11.6 2.3 12 3 12.3 3.8C 12.7 4.7 12.8 5.7 12.8 6.9ZM 9.89999 7.1C 9.89999 6.4 9.80001 5.7 9.70001 5.2C 9.60001 4.6 9.4 4.1 9.1 3.7C 8.8 3.3 8.49999 3 7.99999 2.7C 7.59999 2.5 7.00001 2.4 6.30001 2.4C 5.60001 2.4 5.1 2.5 4.6 2.8C 4.1 3.1 3.79999 3.4 3.49999 3.8C 3.19999 4.2 2.99999 4.7 2.89999 5.3C 2.79999 5.9 2.70001 6.5 2.70001 7.1C 2.70001 7.8 2.79999 8.5 2.89999 9.1C 2.99999 9.7 3.19999 10.2 3.49999 10.6C 3.79999 11 4.1 11.3 4.6 11.6C 5 11.8 5.60001 11.9 6.30001 11.9C 7.00001 11.9 7.49999 11.8 7.99999 11.5C 8.49999 11.2 8.8 10.9 9.1 10.5C 9.4 10.1 9.60001 9.6 9.70001 9C 9.90001 8.3 9.89999 7.7 9.89999 7.1Z"/>
<path id="path19_fill" d="M 8.89999 9.5C 8.89999 10.2 8.79999 10.8 8.49999 11.4C 8.19999 11.9 7.89999 12.4 7.39999 12.7C 6.89999 13.1 6.40001 13.3 5.80001 13.5C 5.20001 13.7 4.49999 13.8 3.89999 13.8C 3.39999 13.8 3 13.8 2.6 13.7C 2.2 13.6 1.79999 13.5 1.49999 13.4C 1.19999 13.3 0.900006 13.2 0.700006 13.1C 0.500006 13 0.300012 12.9 0.300012 12.8C 0.200012 12.7 0.1 12.6 0.1 12.4C 0.1 12.2 -6.10352e-06 12 -6.10352e-06 11.7C -6.10352e-06 11.5 -6.10352e-06 11.3 -6.10352e-06 11.2C -6.10352e-06 11.1 0 10.9 0.1 10.8C 0.1 10.7 0.200006 10.6 0.200006 10.6C 0.300006 10.6 0.299988 10.5 0.399988 10.5C 0.499988 10.5 0.600012 10.6 0.800012 10.7C 1.00001 10.8 1.19999 10.9 1.49999 11.1C 1.79999 11.2 2.09999 11.4 2.49999 11.5C 2.89999 11.6 3.30001 11.7 3.80001 11.7C 4.10001 11.7 4.40001 11.7 4.70001 11.6C 5.00001 11.5 5.19999 11.4 5.39999 11.3C 5.59999 11.2 5.70001 11 5.80001 10.8C 5.90001 10.6 5.89999 10.3 5.89999 10.1C 5.89999 9.8 5.80001 9.5 5.70001 9.3C 5.50001 9.1 5.29999 8.9 4.99999 8.7C 4.69999 8.5 4.4 8.4 4.1 8.2C 3.8 8 3.39999 7.9 2.99999 7.7C 2.59999 7.5 2.29999 7.3 1.89999 7.1C 1.59999 6.9 1.29999 6.6 0.999994 6.3C 0.699994 6 0.500012 5.7 0.300012 5.3C 0.100012 4.9 0.1 4.4 0.1 3.8C 0.1 3.2 0.199994 2.6 0.499994 2.1C 0.699994 1.6 1.09999 1.2 1.49999 0.899997C 1.89999 0.599997 2.39999 0.3 2.89999 0.2C 3.49999 0 4.00001 3.05176e-06 4.70001 3.05176e-06C 5.00001 3.05176e-06 5.30001 1.52737e-06 5.70001 0.100002C 6.00001 0.100002 6.3 0.199998 6.6 0.299998C 6.9 0.399998 7.10001 0.500001 7.30001 0.600002C 7.50001 0.700002 7.70001 0.799997 7.70001 0.899997C 7.80001 0.999997 7.80001 1 7.80001 1.1C 7.80001 1.1 7.79999 1.2 7.89999 1.3C 7.89999 1.4 7.89999 1.5 7.89999 1.6C 7.89999 1.7 7.89999 1.9 7.89999 2.1C 7.89999 2.3 7.89999 2.5 7.89999 2.6C 7.89999 2.7 7.90001 2.9 7.80001 2.9C 7.80001 3 7.70001 3.1 7.70001 3.1C 7.70001 3.1 7.59999 3.2 7.49999 3.2C 7.39999 3.2 7.3 3.2 7.1 3.1C 6.9 3 6.69999 2.9 6.49999 2.8C 6.29999 2.7 6.00001 2.6 5.70001 2.5C 5.40001 2.4 5 2.4 4.6 2.4C 4.3 2.4 4.00001 2.4 3.80001 2.5C 3.60001 2.6 3.40001 2.7 3.20001 2.8C 3.10001 2.9 2.89999 3.1 2.89999 3.3C 2.79999 3.5 2.80001 3.7 2.80001 3.9C 2.80001 4.2 2.89999 4.5 2.99999 4.7C 3.19999 4.9 3.40001 5.1 3.70001 5.3C 4.00001 5.5 4.3 5.6 4.6 5.8C 4.9 6 5.30001 6.1 5.70001 6.3C 6.10001 6.5 6.40001 6.7 6.80001 6.9C 7.10001 7.1 7.50001 7.4 7.70001 7.7C 8.00001 8 8.19999 8.3 8.39999 8.7C 8.79999 8.5 8.89999 8.9 8.89999 9.5Z"/>
<path id="path20_fill" d="M 2.8 13.2C 2.8 13.3 2.8 13.3 2.7 13.4C 2.7 13.5 2.6 13.5 2.5 13.5C 2.4 13.5 2.30001 13.6 2.10001 13.6C 1.90001 13.6 1.69999 13.6 1.39999 13.6C 1.09999 13.6 0.899997 13.6 0.699997 13.6C 0.499997 13.6 0.400003 13.6 0.300003 13.5C 0.200003 13.5 0.100006 13.4 0.100006 13.4C 0.100006 13.3 -5.68434e-14 13.3 -5.68434e-14 13.2L -5.68434e-14 0.4C -5.68434e-14 0.3 6.10203e-06 0.300003 0.100006 0.200003C 0.100006 0.100003 0.200003 0.0999969 0.300003 0.0999969C 0.400003 0.0999969 0.499997 -1.52588e-06 0.699997 -1.52588e-06C 0.899997 -1.52588e-06 1.09999 -1.52588e-06 1.39999 -1.52588e-06C 1.69999 -1.52588e-06 1.90001 -1.52588e-06 2.10001 -1.52588e-06C 2.30001 -1.52588e-06 2.4 -3.05474e-06 2.5 0.0999969C 2.6 0.0999969 2.7 0.200003 2.7 0.200003C 2.7 0.300003 2.8 0.3 2.8 0.4L 2.8 13.2Z"/>
<path id="path21_fill" d="M 11.6 2.1C 11.6 2.3 11.6 2.5 11.6 2.6C 11.6 2.7 11.6 2.9 11.5 2.9C 11.5 3 11.4 3 11.4 3.1C 11.4 3.1 11.3 3.2 11.2 3.2C 11.1 3.2 11 3.1 10.8 3C 10.6 2.9 10.3 2.7 10 2.6C 9.70001 2.5 9.29999 2.3 8.79999 2.2C 8.29999 2.1 7.8 2 7.2 2C 6.5 2 6 2.1 5.4 2.3C 4.9 2.5 4.40001 2.8 4.00001 3.3C 3.60001 3.7 3.3 4.2 3.1 4.8C 2.9 5.4 2.79999 6 2.79999 6.7C 2.79999 7.5 2.9 8.2 3.1 8.7C 3.3 9.3 3.60001 9.8 4.00001 10.2C 4.40001 10.6 4.79999 10.9 5.29999 11.1C 5.79999 11.3 6.40001 11.4 7.00001 11.4C 7.30001 11.4 7.6 11.4 7.9 11.3C 8.2 11.2 8.5 11.1 8.7 11L 8.7 7.9L 6.1 7.9C 6 7.9 5.89999 7.8 5.79999 7.7C 5.69999 7.5 5.7 7.3 5.7 6.9C 5.7 6.7 5.7 6.5 5.7 6.4C 5.7 6.3 5.69999 6.2 5.79999 6.1C 5.79999 6 5.9 6 5.9 5.9C 5.9 5.9 6 5.8 6.1 5.8L 10.7 5.8C 10.8 5.8 10.9 5.8 11 5.9C 11.1 5.9 11.2 6 11.2 6.1C 11.3 6.2 11.3 6.3 11.4 6.4C 11.4 6.5 11.5 6.6 11.5 6.8L 11.5 12.2C 11.5 12.4 11.5 12.6 11.4 12.7C 11.3 12.9 11.2 13 11 13.1C 10.8 13.2 10.5 13.3 10.2 13.4C 9.9 13.5 9.5 13.6 9.2 13.7C 8.8 13.8 8.5 13.8 8.1 13.9C 7.7 13.9 7.40001 14 7.00001 14C 5.90001 14 5 13.8 4.1 13.5C 3.2 13.2 2.5 12.7 1.9 12.2C 1.3 11.6 0.900006 10.9 0.500006 10C 0.200006 9.2 6.10352e-06 8.2 6.10352e-06 7.1C 6.10352e-06 6 0.200006 5 0.500006 4.1C 0.800006 3.2 1.3 2.5 1.9 1.9C 2.5 1.3 3.3 0.799999 4.1 0.499998C 5 0.199998 5.90001 -1.52588e-06 7.00001 -1.52588e-06C 7.60001 -1.52588e-06 8.1 -3.05474e-06 8.6 0.0999969C 9.1 0.199997 9.5 0.3 9.9 0.4C 10.3 0.5 10.6 0.600002 10.8 0.800002C 11 0.900002 11.2 0.999997 11.3 1.1C 11.4 1.2 11.5 1.3 11.5 1.5C 11.6 1.5 11.6 1.8 11.6 2.1Z"/>
<path id="path22_fill" d="M 11.2 8.5C 11.2 9.3 11.1 10.1 10.8 10.7C 10.6 11.4 10.2 11.9 9.70001 12.4C 9.20001 12.9 8.6 13.2 7.9 13.4C 7.2 13.6 6.39999 13.8 5.49999 13.8C 4.69999 13.8 3.90001 13.7 3.20001 13.5C 2.50001 13.3 1.99999 13 1.49999 12.5C 0.999994 12.1 0.700003 11.5 0.400003 10.9C 0.200003 10.3 -6.10352e-06 9.5 -6.10352e-06 8.6L -6.10352e-06 0.4C -6.10352e-06 0.3 0 0.300003 0.1 0.200003C 0.1 0.100003 0.199997 0.0999969 0.299997 0.0999969C 0.399997 0.0999969 0.500006 -1.52588e-06 0.700006 -1.52588e-06C 0.900006 -1.52588e-06 1.1 -1.52588e-06 1.4 -1.52588e-06C 1.7 -1.52588e-06 1.9 -1.52588e-06 2.1 -1.52588e-06C 2.3 -1.52588e-06 2.39999 -3.05474e-06 2.49999 0.0999969C 2.59999 0.0999969 2.70001 0.200003 2.70001 0.200003C 2.70001 0.300003 2.8 0.3 2.8 0.4L 2.8 8.4C 2.8 8.9 2.89999 9.4 2.99999 9.8C 3.09999 10.2 3.3 10.5 3.6 10.8C 3.8 11.1 4.09999 11.3 4.49999 11.4C 4.79999 11.5 5.20001 11.6 5.70001 11.6C 6.10001 11.6 6.5 11.5 6.9 11.4C 7.2 11.3 7.5 11.1 7.8 10.8C 8 10.5 8.2 10.2 8.3 9.9C 8.4 9.5 8.49999 9.1 8.49999 8.6L 8.49999 0.499998C 8.49999 0.399998 8.5 0.400002 8.6 0.300002C 8.6 0.200002 8.7 0.200003 8.8 0.200003C 8.9 0.200003 9.00001 0.0999969 9.20001 0.0999969C 9.40001 0.0999969 9.6 0.0999969 9.9 0.0999969C 10.2 0.0999969 10.4 0.0999969 10.6 0.0999969C 10.8 0.0999969 10.9 0.100003 11 0.200003C 11.1 0.200003 11.2 0.300002 11.2 0.300002C 11.2 0.400002 11.3 0.399998 11.3 0.499998L 11.3 8.5L 11.2 8.5Z"/>
<path id="path23_fill" d="M 12.3 12.7C 12.4 12.9 12.4 13.1 12.5 13.3C 12.5 13.4 12.5 13.6 12.4 13.6C 12.3 13.7 12.2 13.7 12 13.7C 11.8 13.7 11.5 13.7 11.2 13.7C 10.8 13.7 10.6 13.7 10.4 13.7C 10.2 13.7 10.1 13.7 9.9 13.6C 9.8 13.6 9.7 13.5 9.7 13.5C 9.7 13.4 9.59999 13.4 9.59999 13.3L 8.7 10.6L 3.59999 10.6L 2.7 13.2C 2.7 13.3 2.59999 13.4 2.59999 13.4C 2.59999 13.5 2.5 13.5 2.4 13.6C 2.3 13.6 2.2 13.7 2 13.7C 1.8 13.7 1.60001 13.7 1.30001 13.7C 1.00001 13.7 0.700003 13.7 0.500003 13.7C 0.300003 13.7 0.199994 13.6 0.0999939 13.5C -6.10203e-06 13.4 3.05176e-06 13.3 3.05176e-06 13.2C 3.05176e-06 13.1 0.1 12.9 0.2 12.6L 4.4 0.6C 4.4 0.5 4.5 0.399997 4.5 0.299997C 4.6 0.199997 4.60001 0.2 4.80001 0.1C 4.90001 0.1 5.10001 1.52588e-06 5.30001 1.52588e-06C 5.50001 1.52588e-06 5.8 1.52588e-06 6.2 1.52588e-06C 6.6 1.52588e-06 6.9 1.52588e-06 7.2 1.52588e-06C 7.4 1.52588e-06 7.60001 0 7.80001 0.1C 7.90001 0.1 7.99999 0.199997 8.09999 0.299997C 8.19999 0.399997 8.20001 0.5 8.30001 0.6L 12.3 12.7ZM 6.09999 2.8L 4.2 8.5L 8 8.5L 6.09999 2.8Z"/>
<path id="path24_fill" d="M 7.39999 12.4C 7.39999 12.6 7.39999 12.8 7.39999 12.9C 7.39999 13 7.4 13.2 7.3 13.3C 7.3 13.4 7.2 13.5 7.2 13.5C 7.1 13.5 7.1 13.6 7 13.6L 0.800003 13.6C 0.600003 13.6 0.399997 13.5 0.199997 13.4C -3.05474e-06 13.3 -5.68434e-14 13 -5.68434e-14 12.7L -5.68434e-14 0.4C -5.68434e-14 0.3 6.10203e-06 0.300003 0.100006 0.200003C 0.100006 0.100003 0.200003 0.0999969 0.300003 0.0999969C 0.400003 0.0999969 0.499997 -1.52588e-06 0.699997 -1.52588e-06C 0.899997 -1.52588e-06 1.09999 -1.52588e-06 1.39999 -1.52588e-06C 1.69999 -1.52588e-06 1.90001 -1.52588e-06 2.10001 -1.52588e-06C 2.30001 -1.52588e-06 2.4 -3.05474e-06 2.5 0.0999969C 2.6 0.0999969 2.7 0.200003 2.7 0.200003C 2.7 0.300003 2.8 0.3 2.8 0.4L 2.8 11.3L 7.10001 11.3C 7.20001 11.3 7.2 11.3 7.3 11.4C 7.4 11.4 7.39999 11.5 7.39999 11.6C 7.39999 11.7 7.5 11.8 7.5 11.9C 7.4 12 7.39999 12.2 7.39999 12.4Z"/>
<path id="path25_fill" d="M 2.79999 13.2C 2.79999 13.3 2.8 13.3 2.7 13.4C 2.7 13.5 2.60001 13.5 2.50001 13.5C 2.40001 13.5 2.3 13.6 2.1 13.6C 1.9 13.6 1.7 13.6 1.4 13.6C 1.1 13.6 0.900003 13.6 0.700003 13.6C 0.500003 13.6 0.399994 13.6 0.299994 13.5C 0.199994 13.5 0.0999969 13.4 0.0999969 13.4C 0.0999969 13.3 6.10352e-06 13.3 6.10352e-06 13.2L 6.10352e-06 0.4C 6.10352e-06 0.3 -3.05474e-06 0.300003 0.0999969 0.200003C 0.0999969 0.100003 0.199994 0.0999969 0.299994 0.0999969C 0.399994 0.0999969 0.500003 -1.52588e-06 0.700003 -1.52588e-06C 0.900003 -1.52588e-06 1.1 -1.52588e-06 1.4 -1.52588e-06C 1.7 -1.52588e-06 1.9 -1.52588e-06 2.1 -1.52588e-06C 2.3 -1.52588e-06 2.40001 -3.05474e-06 2.50001 0.0999969C 2.60001 0.0999969 2.7 0.200003 2.7 0.200003C 2.7 0.300003 2.79999 0.3 2.79999 0.4L 2.79999 13.2Z"/>
<path id="path26_fill" d="M 10.4 0.999997C 10.4 1.2 10.4 1.4 10.4 1.5C 10.4 1.6 10.4 1.8 10.3 1.8C 10.3 1.9 10.2 2 10.2 2C 10.1 2 10.1 2.1 10 2.1L 6.60001 2.1L 6.60001 13C 6.60001 13.1 6.6 13.1 6.5 13.2C 6.5 13.3 6.4 13.3 6.3 13.3C 6.2 13.3 6.09999 13.4 5.89999 13.4C 5.69999 13.4 5.5 13.4 5.2 13.4C 4.9 13.4 4.7 13.4 4.5 13.4C 4.3 13.4 4.20001 13.4 4.10001 13.3C 4.00001 13.3 3.89999 13.2 3.89999 13.2C 3.89999 13.1 3.8 13.1 3.8 13L 3.8 2.2L 0.399994 2.2C 0.299994 2.2 0.299997 2.2 0.199997 2.1C 0.199997 2.1 0.100006 2 0.100006 1.9C 0.100006 1.8 -8.52651e-14 1.7 -8.52651e-14 1.6C -8.52651e-14 1.5 -8.52651e-14 1.3 -8.52651e-14 1.1C -8.52651e-14 0.900003 -8.52651e-14 0.700003 -8.52651e-14 0.600003C -8.52651e-14 0.500003 6.10203e-06 0.3 0.100006 0.3C 0.100006 0.2 0.199997 0.100003 0.199997 0.100003C 0.199997 0.100003 0.299994 -3.05176e-06 0.399994 -3.05176e-06L 9.89999 -3.05176e-06C 9.99999 -3.05176e-06 10 3.04729e-06 10.1 0.100003C 10.2 0.100003 10.2 0.2 10.2 0.3C 10.2 0.4 10.3 0.500003 10.3 0.600003C 10.4 0.600003 10.4 0.799997 10.4 0.999997Z"/>
<path id="path27_fill" d="M 12.3 12.7C 12.4 12.9 12.4 13.1 12.5 13.3C 12.5 13.4 12.5 13.6 12.4 13.6C 12.3 13.7 12.2 13.7 12 13.7C 11.8 13.7 11.5 13.7 11.2 13.7C 10.8 13.7 10.6 13.7 10.4 13.7C 10.2 13.7 10.1 13.7 9.9 13.6C 9.8 13.6 9.7 13.5 9.7 13.5C 9.7 13.4 9.6 13.4 9.6 13.3L 8.7 10.6L 3.6 10.6L 2.7 13.2C 2.7 13.3 2.6 13.4 2.6 13.4C 2.6 13.5 2.5 13.5 2.4 13.6C 2.3 13.6 2.20001 13.7 2.00001 13.7C 1.80001 13.7 1.59999 13.7 1.29999 13.7C 0.999994 13.7 0.700006 13.7 0.500006 13.7C 0.300006 13.7 0.199997 13.6 0.0999969 13.5C -3.05474e-06 13.4 6.10352e-06 13.3 6.10352e-06 13.2C 6.10352e-06 13.1 0.100003 12.9 0.200003 12.6L 4.4 0.6C 4.4 0.5 4.50001 0.399997 4.50001 0.299997C 4.60001 0.199997 4.59999 0.2 4.79999 0.1C 4.89999 0.1 5.09999 1.52588e-06 5.29999 1.52588e-06C 5.49999 1.52588e-06 5.8 1.52588e-06 6.2 1.52588e-06C 6.6 1.52588e-06 6.9 1.52588e-06 7.2 1.52588e-06C 7.4 1.52588e-06 7.59999 0 7.79999 0.1C 7.89999 0.1 8 0.199997 8.1 0.299997C 8.2 0.399997 8.19999 0.5 8.29999 0.6L 12.3 12.7ZM 6.1 2.8L 4.2 8.5L 8.00001 8.5L 6.1 2.8Z"/>
<path id="path28_fill" d="M 10.1 13.2C 10.1 13.3 10.1 13.3 10.1 13.4C 10.1 13.5 10 13.5 9.90001 13.5C 9.80001 13.5 9.60001 13.6 9.40001 13.6C 9.20001 13.6 8.89999 13.6 8.59999 13.6C 8.29999 13.6 8.10001 13.6 7.90001 13.6C 7.70001 13.6 7.59999 13.6 7.49999 13.5C 7.39999 13.5 7.30001 13.4 7.30001 13.4C 7.30001 13.3 7.2 13.3 7.2 13.2L 5.99999 10.2C 5.89999 9.9 5.69999 9.6 5.59999 9.3C 5.49999 9 5.29999 8.8 5.09999 8.6C 4.89999 8.4 4.69999 8.3 4.49999 8.2C 4.29999 8.1 4 8.1 3.7 8.1L 2.80001 8.1L 2.80001 13.3C 2.80001 13.4 2.8 13.4 2.7 13.5C 2.7 13.6 2.59999 13.6 2.49999 13.6C 2.39999 13.6 2.29999 13.7 2.09999 13.7C 1.89999 13.7 1.70001 13.7 1.40001 13.7C 1.10001 13.7 0.9 13.7 0.7 13.7C 0.5 13.7 0.400006 13.7 0.300006 13.6C 0.200006 13.6 0.0999939 13.5 0.0999939 13.5C 0.0999939 13.4 -1.2207e-05 13.4 -1.2207e-05 13.3L -1.2207e-05 0.9C -1.2207e-05 0.6 0.1 0.400003 0.2 0.200003C 0.4 0.100003 0.500006 -1.52588e-06 0.800006 -1.52588e-06L 4.30001 -1.52588e-06C 4.70001 -1.52588e-06 4.9 -1.52588e-06 5.2 -1.52588e-06C 5.4 -1.52588e-06 5.60001 -3.05474e-06 5.80001 0.0999969C 6.30001 0.199997 6.80001 0.299998 7.30001 0.499998C 7.70001 0.699998 8.10001 0.900003 8.40001 1.2C 8.70001 1.5 8.89999 1.9 9.09999 2.3C 9.29999 2.7 9.30001 3.2 9.30001 3.7C 9.30001 4.2 9.19999 4.6 9.09999 4.9C 8.99999 5.3 8.79999 5.6 8.59999 5.9C 8.39999 6.2 8.10001 6.4 7.80001 6.7C 7.50001 6.9 7.1 7.1 6.7 7.2C 6.9 7.3 7.10001 7.4 7.30001 7.6C 7.50001 7.7 7.60001 7.9 7.80001 8.1C 8.00001 8.3 8.1 8.5 8.2 8.8C 8.3 9.1 8.49999 9.3 8.59999 9.7L 9.7 12.4C 9.8 12.7 9.90001 12.9 9.90001 13C 10.1 13 10.1 13.1 10.1 13.2ZM 6.59999 4C 6.59999 3.6 6.50001 3.2 6.30001 2.9C 6.10001 2.6 5.80001 2.4 5.30001 2.3C 5.20001 2.3 5.00001 2.2 4.80001 2.2C 4.60001 2.2 4.39999 2.2 4.09999 2.2L 2.90001 2.2L 2.90001 6L 4.30001 6C 4.70001 6 5.00001 6 5.30001 5.9C 5.60001 5.8 5.79999 5.7 5.99999 5.5C 6.19999 5.3 6.30001 5.1 6.40001 4.9C 6.50001 4.6 6.59999 4.3 6.59999 4Z"/>
<path id="path29_fill" d="M 2.80001 13.2C 2.80001 13.3 2.80001 13.3 2.70001 13.4C 2.70001 13.5 2.59999 13.5 2.49999 13.5C 2.39999 13.5 2.3 13.6 2.1 13.6C 1.9 13.6 1.69999 13.6 1.39999 13.6C 1.09999 13.6 0.900006 13.6 0.700006 13.6C 0.500006 13.6 0.400012 13.6 0.300012 13.5C 0.200012 13.5 0.1 13.4 0.1 13.4C 0.1 13.3 -6.10352e-06 13.3 -6.10352e-06 13.2L -6.10352e-06 0.4C -6.10352e-06 0.3 0 0.300003 0.1 0.200003C 0.1 0.100003 0.200012 0.0999969 0.300012 0.0999969C 0.400012 0.0999969 0.500006 -1.52588e-06 0.700006 -1.52588e-06C 0.900006 -1.52588e-06 1.09999 -1.52588e-06 1.39999 -1.52588e-06C 1.69999 -1.52588e-06 1.9 -1.52588e-06 2.1 -1.52588e-06C 2.3 -1.52588e-06 2.39999 -3.05474e-06 2.49999 0.0999969C 2.59999 0.0999969 2.70001 0.200003 2.70001 0.200003C 2.70001 0.300003 2.80001 0.3 2.80001 0.4L 2.80001 13.2Z"/>
<path id="path30_fill" d="M 12.8 7C 12.8 8.1 12.7 9.1 12.4 10C 12.1 10.9 11.7 11.6 11.2 12.2C 10.6 12.8 9.99999 13.3 9.19999 13.6C 8.39999 13.9 7.4 14.1 6.4 14.1C 5.3 14.1 4.40001 14 3.60001 13.7C 2.80001 13.4 2.20001 13 1.60001 12.4C 1.10001 11.8 0.7 11.1 0.4 10.2C 0.1 9.3 6.10352e-06 8.3 6.10352e-06 7.1C 6.10352e-06 6 0.1 5 0.4 4.1C 0.7 3.2 1.10001 2.5 1.60001 1.9C 2.20001 1.3 2.80001 0.799997 3.60001 0.499997C 4.40001 0.199997 5.4 -3.05176e-06 6.4 -3.05176e-06C 7.4 -3.05176e-06 8.30001 0.0999985 9.10001 0.399998C 9.90001 0.699998 10.5 1.1 11.1 1.7C 11.6 2.3 12 3 12.3 3.8C 12.7 4.8 12.8 5.8 12.8 7ZM 9.9 7.2C 9.9 6.5 9.79999 5.8 9.69999 5.3C 9.59999 4.7 9.40001 4.2 9.10001 3.8C 8.80001 3.4 8.50001 3.1 8.00001 2.8C 7.60001 2.6 6.99999 2.5 6.29999 2.5C 5.59999 2.5 5.10001 2.6 4.60001 2.9C 4.10001 3.2 3.80001 3.5 3.50001 3.9C 3.20001 4.3 3 4.8 2.9 5.4C 2.8 6 2.69999 6.6 2.69999 7.2C 2.69999 7.9 2.8 8.6 2.9 9.2C 3 9.8 3.20001 10.3 3.50001 10.7C 3.80001 11.1 4.10001 11.4 4.60001 11.7C 5.00001 11.9 5.59999 12 6.29999 12C 6.99999 12 7.50001 11.9 8.00001 11.6C 8.50001 11.3 8.80001 11 9.10001 10.6C 9.40001 10.2 9.59999 9.7 9.69999 9.1C 9.89999 8.4 9.9 7.8 9.9 7.2Z"/>
<path id="path31_fill" d="M 8.89999 9.6C 8.89999 10.3 8.79999 10.9 8.49999 11.5C 8.19999 12 7.89999 12.5 7.39999 12.8C 6.89999 13.2 6.40001 13.4 5.80001 13.6C 5.20001 13.8 4.49999 13.9 3.89999 13.9C 3.39999 13.9 3 13.9 2.6 13.8C 2.2 13.7 1.79999 13.6 1.49999 13.5C 1.19999 13.4 0.900006 13.3 0.700006 13.2C 0.500006 13.1 0.300012 13 0.300012 12.9C 0.200012 12.8 0.1 12.7 0.1 12.5C 0.1 12.3 -6.10352e-06 12.1 -6.10352e-06 11.8C -6.10352e-06 11.6 -6.10352e-06 11.4 -6.10352e-06 11.3C -6.10352e-06 11.2 0 11 0.1 10.9C 0.1 10.8 0.200006 10.7 0.200006 10.7C 0.300006 10.7 0.299988 10.6 0.399988 10.6C 0.499988 10.6 0.600012 10.7 0.800012 10.8C 1.00001 10.9 1.19999 11 1.49999 11.2C 1.79999 11.3 2.09999 11.5 2.49999 11.6C 2.89999 11.7 3.30001 11.8 3.80001 11.8C 4.10001 11.8 4.40001 11.8 4.70001 11.7C 5.00001 11.6 5.19999 11.5 5.39999 11.4C 5.59999 11.3 5.70001 11.1 5.80001 10.9C 5.90001 10.7 5.89999 10.4 5.89999 10.2C 5.89999 9.9 5.80001 9.6 5.70001 9.4C 5.50001 9.2 5.29999 9 4.99999 8.8C 4.69999 8.6 4.4 8.5 4.1 8.3C 3.8 8.1 3.39999 8 2.99999 7.8C 2.59999 7.6 2.29999 7.4 1.89999 7.2C 1.59999 7 1.29999 6.7 0.999994 6.4C 0.699994 6.1 0.500012 5.8 0.300012 5.3C 0.100012 4.9 -6.10352e-06 4.4 -6.10352e-06 3.8C -6.10352e-06 3.2 0.0999878 2.6 0.399988 2.1C 0.599988 1.6 0.999988 1.2 1.39999 0.900002C 1.79999 0.600002 2.30001 0.299997 2.80001 0.199997C 3.40001 -3.05474e-06 3.9 -2.84217e-14 4.6 -2.84217e-14C 4.9 -2.84217e-14 5.2 -1.52737e-06 5.6 0.0999985C 5.9 0.0999985 6.19999 0.200003 6.49999 0.300003C 6.79999 0.400003 7.00001 0.499998 7.20001 0.599998C 7.40001 0.699998 7.6 0.800002 7.6 0.900002C 7.7 1 7.70001 0.999998 7.70001 1.1C 7.70001 1.1 7.70001 1.2 7.80001 1.3C 7.80001 1.4 7.80001 1.5 7.80001 1.6C 7.80001 1.7 7.80001 1.9 7.80001 2.1C 7.80001 2.3 7.80001 2.5 7.80001 2.6C 7.80001 2.7 7.80001 2.9 7.70001 2.9C 7.70001 3 7.6 3.1 7.6 3.1C 7.6 3.1 7.49999 3.2 7.39999 3.2C 7.29999 3.2 7.19999 3.2 6.99999 3.1C 6.79999 3 6.59999 2.9 6.39999 2.8C 6.19999 2.7 5.9 2.6 5.6 2.5C 5.3 2.4 4.89999 2.4 4.49999 2.4C 4.19999 2.4 3.90001 2.4 3.70001 2.5C 3.50001 2.6 3.3 2.7 3.1 2.8C 2.9 2.9 2.80001 3.1 2.80001 3.3C 2.70001 3.5 2.70001 3.7 2.70001 3.9C 2.70001 4.2 2.79999 4.5 2.89999 4.7C 3.09999 4.9 3.3 5.1 3.6 5.3C 3.9 5.5 4.19999 5.6 4.49999 5.8C 4.79999 5.9 5.2 6.1 5.6 6.3C 6 6.5 6.30001 6.7 6.70001 6.9C 7.00001 7.1 7.4 7.4 7.6 7.7C 7.9 8 8.10001 8.3 8.30001 8.7C 8.80001 8.6 8.89999 9 8.89999 9.6Z"/>
<path id="path32_fill" d="M 3 0L 0 0L 0 116.3L 3 116.3L 3 0Z"/>
<path id="path33_fill" d="M 48.2 28.1C 48.2 33.4 47.5 38 46.1 41.7C 44.7 45.5 42.7 48.6 40.1 51C 37.5 53.4 34.3 55.1 30.6 56.3C 26.9 57.4 22.4 58 17.3 58L 3.5 58C 2.5 58 1.7 57.7 0.999997 57.1C 0.299997 56.5 -3.05176e-06 55.6 -3.05176e-06 54.3L -3.05176e-06 3.7C -3.05176e-06 2.4 0.299997 1.4 0.999997 0.900002C 1.7 0.300002 2.5 -7.10543e-15 3.5 -7.10543e-15L 18.4 -7.10543e-15C 23.6 -7.10543e-15 28 0.599999 31.6 1.8C 35.2 3 38.2 4.8 40.7 7.2C 43.2 9.6 45 12.5 46.3 16C 47.5 19.4 48.2 23.5 48.2 28.1ZM 36 28.5C 36 25.7 35.7 23.2 35 20.8C 34.3 18.4 33.3 16.4 31.9 14.7C 30.5 13 28.7 11.6 26.4 10.6C 24.2 9.6 21.3 9.1 17.6 9.1L 11.6 9.1L 11.6 48.5L 17.7 48.5C 20.9 48.5 23.6 48.1 25.9 47.2C 28.1 46.4 30 45.1 31.4 43.4C 32.9 41.7 34 39.6 34.7 37.1C 35.6 34.8 36 31.8 36 28.5Z"/>
<path id="path34_fill" d="M 11.8 56.1C 11.8 56.4 11.7 56.7 11.5 56.9C 11.3 57.1 11 57.3 10.5 57.5C 10.1 57.6 9.49999 57.8 8.69999 57.9C 7.99999 58 7.00001 58 5.90001 58C 4.80001 58 3.8 58 3.1 57.9C 2.3 57.8 1.7 57.7 1.3 57.5C 0.9 57.4 0.5 57.2 0.3 56.9C 0.1 56.7 -3.05176e-06 56.4 -3.05176e-06 56.1L -3.05176e-06 1.9C -3.05176e-06 1.6 0.1 1.3 0.3 1.1C 0.5 0.9 0.8 0.700002 1.3 0.500002C 1.8 0.400002 2.4 0.2 3.1 0.1C 3.8 0 4.80001 1.52588e-06 5.90001 1.52588e-06C 7.10001 1.52588e-06 7.99999 0 8.69999 0.1C 9.39999 0.2 10 0.300002 10.5 0.500002C 10.9 0.600002 11.3 0.8 11.5 1.1C 11.7 1.3 11.8 1.6 11.8 1.9L 11.8 56.1Z"/>
<path id="path35_fill" d="M 11.6 1.1C 11.4 0.900003 11.1 0.699997 10.6 0.499997C 10.2 0.299997 9.6 0.200003 8.8 0.100003C 8.1 3.04729e-06 7.1 -3.05176e-06 6 -3.05176e-06L 5.9 -3.05176e-06C 4.8 -3.05176e-06 3.8 3.04729e-06 3.1 0.100003C 2.4 0.200003 1.8 0.299997 1.3 0.499997C 0.799999 0.699997 0.499998 0.900003 0.299998 1.1C 0.0999985 1.3 -7.62939e-07 1.6 -7.62939e-07 1.9L -7.62939e-07 21.2C -7.62939e-07 21.5 0.0999985 21.8 0.299998 22C 0.499998 22.2 0.799999 22.4 1.3 22.6C 1.7 22.8 2.3 22.9 3.1 23C 3.8 23.1 4.8 23.1 5.9 23.1L 6 23.1C 7.1 23.1 8.1 23.1 8.8 23C 9.5 22.9 10.1 22.8 10.6 22.6C 11.1 22.4 11.4 22.2 11.6 22C 11.8 21.8 11.9 21.5 11.9 21.2L 11.9 1.9C 11.9 1.6 11.8 1.3 11.6 1.1Z"/>
<path id="path36_fill" d="M 31.5 1.52588e-06L 0 1.52588e-06L 0 12.5L 31.5 12.5L 37.8 6.3L 31.5 1.52588e-06Z"/>
<path id="path37_fill" d="M 31.5 -3.05176e-06L 0 -3.05176e-06L 0 12.5L 31.5 12.5L 37.8 6.3L 31.5 -3.05176e-06Z"/>
</defs>
</svg>
