<svg xmlns="http://www.w3.org/2000/svg" xmlns:xlink="http://www.w3.org/1999/xlink" width="180.249" height="78.358"><g transform="translate(62250.993 34526.445) scale(1.26057)"><clipPath id="a" clip-rule="evenodd"><path d="M-49402-27402h180v87h-180z" fill="#fff"/></clipPath><g clip-path="url(#a)"><use xlink:href="#path0_fill" transform="translate(-49309.6 -27374)" width="100%" height="100%" fill="#808285"/><use xlink:href="#path1_fill" transform="translate(-49304.2 -27374)" width="100%" height="100%" fill="#808285"/><use xlink:href="#path2_fill" transform="translate(-49297.6 -27374)" width="100%" height="100%" fill="#808285"/><use xlink:href="#path3_fill" transform="translate(-49291.9 -27373.9)" width="100%" height="100%" fill="#808285"/><use xlink:href="#path4_fill" transform="translate(-49285 -27374)" width="100%" height="100%" fill="#808285"/><use xlink:href="#path5_fill" transform="translate(-49278.4 -27374)" width="100%" height="100%" fill="#808285"/><use xlink:href="#path6_fill" transform="translate(-49270 -27373.9)" width="100%" height="100%" fill="#808285"/><use xlink:href="#path7_fill" transform="translate(-49264 -27374.1)" width="100%" height="100%" fill="#808285"/><use xlink:href="#path8_fill" transform="translate(-49255.8 -27374)" width="100%" height="100%" fill="#808285"/><use xlink:href="#path9_fill" transform="translate(-49309.6 -27362.1)" width="100%" height="100%" fill="#808285"/><use xlink:href="#path10_fill" transform="translate(-49305.4 -27362.2)" width="100%" height="100%" fill="#808285"/><use xlink:href="#path11_fill" transform="translate(-49298 -27362.1)" width="100%" height="100%" fill="#808285"/><use xlink:href="#path12_fill" transform="translate(-49289.7 -27362.1)" width="100%" height="100%" fill="#808285"/><use xlink:href="#path13_fill" transform="translate(-49282.6 -27362.1)" width="100%" height="100%" fill="#808285"/><use xlink:href="#path14_fill" transform="translate(-49277.1 -27362.1)" width="100%" height="100%" fill="#808285"/><use xlink:href="#path13_fill" transform="translate(-49270.7 -27362.1)" width="100%" height="100%" fill="#808285"/><use xlink:href="#path15_fill" transform="translate(-49265.7 -27362.2)" width="100%" height="100%" fill="#808285"/><use xlink:href="#path16_fill" transform="translate(-49259.6 -27362.1)" width="100%" height="100%" fill="#808285"/><use xlink:href="#path17_fill" transform="translate(-49252.7 -27362.2)" width="100%" height="100%" fill="#808285"/><use xlink:href="#path18_fill" transform="translate(-49245.1 -27362.1)" width="100%" height="100%" fill="#808285"/><use xlink:href="#path19_fill" transform="translate(-49309.7 -27350.1)" width="100%" height="100%" fill="#808285"/><use xlink:href="#path20_fill" transform="translate(-49306.7 -27350.1)" width="100%" height="100%" fill="#808285"/><use xlink:href="#path21_fill" transform="translate(-49298.7 -27350.1)" width="100%" height="100%" fill="#808285"/><use xlink:href="#path22_fill" transform="translate(-49291.8 -27350.2)" width="100%" height="100%" fill="#808285"/><use xlink:href="#path23_fill" transform="translate(-49283.9 -27350.1)" width="100%" height="100%" fill="#808285"/><use xlink:href="#path24_fill" transform="translate(-49278.7 -27350.1)" width="100%" height="100%" fill="#808285"/><use xlink:href="#path25_fill" transform="translate(-49276 -27350.1)" width="100%" height="100%" fill="#808285"/><use xlink:href="#path26_fill" transform="translate(-49270.9 -27350.2)" width="100%" height="100%" fill="#808285"/><use xlink:href="#path27_fill" transform="translate(-49263 -27350.1)" width="100%" height="100%" fill="#808285"/><use xlink:href="#path28_fill" transform="translate(-49256.2 -27350.1)" width="100%" height="100%" fill="#808285"/><use xlink:href="#path29_fill" transform="translate(-49253.1 -27350.3)" width="100%" height="100%" fill="#808285"/><use xlink:href="#path30_fill" transform="translate(-49245.1 -27350.1)" width="100%" height="100%" fill="#808285"/><use xlink:href="#path31_fill" transform="translate(-49317.5 -27389.6)" width="100%" height="100%" fill="#e31f26"/><use xlink:href="#path32_fill" transform="translate(-49317.5 -27379.2)" width="100%" height="100%" fill="#f7941e"/><use xlink:href="#path33_fill" transform="translate(-49317.5 -27368.8)" width="100%" height="100%" fill="#f9ec00"/><use xlink:href="#path31_fill" transform="translate(-49317.5 -27358.5)" width="100%" height="100%" fill="#289048"/><use xlink:href="#path32_fill" transform="translate(-49317.5 -27348.2)" width="100%" height="100%" fill="#3069b3"/><use xlink:href="#path34_fill" transform="translate(-49317.5 -27337.8)" width="100%" height="100%" fill="#6f2c91"/><use xlink:href="#path35_fill" transform="translate(-49359.4 -27374)" width="100%" height="100%" fill="#ffc233"/><use xlink:href="#path36_fill" transform="translate(-49330 -27374)" width="100%" height="100%" fill="#ffc233"/><use xlink:href="#path37_fill" transform="translate(-49383.3 -27355.4)" width="100%" height="100%" fill="#ffc233"/><use xlink:href="#path38_fill" transform="translate(-49383.2 -27374)" width="100%" height="100%" fill="#9f2065"/><use xlink:href="#path39_fill" transform="translate(-49383.2 -27364.8)" width="100%" height="100%" fill="#9f2065"/></g></g><defs id="defs235"><path id="path20_fill" d="M6.244 1.122v.267c0 .053 0 .16-.054.16 0 .053-.054.053-.054.107 0 0-.053.053-.107.053s-.108-.053-.216-.107c-.107-.053-.269-.16-.43-.213-.162-.054-.377-.16-.646-.214-.27-.053-.538-.107-.861-.107-.377 0-.646.054-.97.16a1.79 1.79 0 00-.753.534 2.006 2.006 0 00-.484.802c-.108.32-.162.64-.162 1.014 0 .428.054.801.162 1.068.107.32.269.588.484.802.215.213.43.373.7.48.269.107.592.16.915.16.161 0 .323 0 .484-.053.162-.053.323-.107.431-.16V4.219h-1.4c-.053 0-.107-.053-.161-.107-.054-.106-.054-.213-.054-.427v-.267c0-.053 0-.107.054-.16 0-.054.054-.054.054-.107 0 0 .054-.053.107-.053H5.76c.053 0 .107 0 .161.053.054 0 .108.053.108.107.054.053.054.107.107.16 0 .053.054.107.054.214v2.884c0 .106 0 .213-.054.267a.419.419 0 01-.215.213c-.108.054-.27.107-.43.16-.162.054-.377.107-.539.16-.215.054-.377.054-.592.108-.215 0-.377.053-.592.053a4.774 4.774 0 01-1.561-.267c-.485-.16-.861-.427-1.184-.694C.7 6.249.484 5.82.269 5.34A4.434 4.434 0 010 3.79c0-.587.108-1.12.27-1.601.16-.481.43-.855.753-1.175.323-.32.753-.588 1.184-.748A4.8 4.8 0 013.768 0c.323 0 .592 0 .861.053.27.054.485.107.7.16.215.054.377.107.484.214.108.054.216.107.27.16.053.054.107.107.107.214.054 0 .054.16.054.32z"/><path id="path0_fill" d="M4.09.587v.268c0 .053 0 .16-.053.16 0 .053-.054.053-.054.107 0 0-.054.053-.107.053H1.507v1.923h2.207c.054 0 .054 0 .108.053 0 0 .054.053.054.107 0 .053.053.107.053.16v.534c0 .054 0 .16-.053.16 0 .054-.054.107-.054.107s-.054.054-.108.054H1.507v2.67c0 .053 0 .053-.054.107 0 .053-.053.053-.107.053s-.108.054-.216.054H.377c-.108 0-.162-.054-.216-.054-.053 0-.107-.053-.107-.053 0-.054-.054-.054-.054-.107V.48C0 .32.054.214.108.107.215.053.323 0 .43 0h3.445c.053 0 .053 0 .107.053 0 0 .054.054.054.107 0 .054.054.107.054.214v.213z"/><path id="path2_fill" d="M4.306 6.676v.267c0 .053 0 .107-.054.16 0 .054-.053.054-.053.107-.054 0-.054.053-.108.053H.43c-.108 0-.216-.053-.323-.106C0 7.103 0 6.943 0 6.783V.48C0 .32.054.214.108.107.215.053.269 0 .43 0h3.606c.054 0 .054 0 .108.053 0 0 .054.054.054.107 0 .054.053.107.053.16v.535c0 .053 0 .106-.053.16 0 .053-.054.053-.054.107 0 0-.054.053-.108.053H1.453v1.762H3.66c.054 0 .054 0 .108.054.054 0 .054.053.054.107 0 .053.054.106.054.16v.534c0 .053 0 .107-.054.16 0 .054-.054.054-.054.107-.054 0-.054.053-.108.053H1.453v2.03h2.638c.054 0 .054 0 .108.053.053 0 .053.054.053.107s.054.107.054.16v.214z"/><path id="path3_fill" d="M6.029 6.676c0 .107 0 .16-.054.213-.054.054-.054.107-.108.16-.054.054-.107.054-.161.108-.054 0-.162.053-.216.053h-.646c-.107 0-.269 0-.322-.053-.108 0-.162-.054-.27-.16a1.167 1.167 0 01-.215-.268c-.054-.107-.161-.267-.27-.48l-1.83-3.365-.322-.64a3.69 3.69 0 01-.27-.695c0 .267 0 .534.055.8v4.595c0 .053 0 .053-.054.107 0 .053-.054.053-.108.053s-.108.054-.215.054H.377c-.108 0-.162-.054-.216-.054-.053 0-.107-.053-.107-.053 0-.054-.054-.054-.054-.107V.48C0 .32.054.16.161.107.27 0 .377 0 .538 0h.808c.161 0 .269 0 .376.053.108 0 .162.054.27.107.053.054.161.107.215.214.054.107.161.213.215.374l1.4 2.617c.107.16.161.32.269.48.108.16.161.32.215.481.054.16.162.32.216.48.053.16.161.321.215.428V.267c0-.053 0-.053.054-.107 0-.053.053-.053.107-.053s.108-.054.216-.054h.646c.107 0 .161 0 .215.054.054 0 .054.053.108.053 0 .054.053.054.053.107v6.409z"/><path id="path4_fill" d="M5.598.587v.268c0 .053 0 .16-.054.16 0 .053-.054.107-.054.107-.053 0-.053.053-.107.053h-1.83v5.821c0 .054 0 .054-.054.107 0 .054-.054.054-.108.054s-.108.053-.215.053h-.754c-.107 0-.161 0-.215-.053-.054 0-.108-.054-.108-.054 0-.053-.054-.053-.054-.107V1.228H.215c-.054 0-.054 0-.107-.053 0 0-.054-.053-.054-.107C.054 1.015 0 .961 0 .908V.374C0 .32 0 .214.054.16c0-.053.054-.053.054-.107C.108.053.16 0 .215 0H5.33c.054 0 .054 0 .108.053.053 0 .053.054.053.107 0 .054.054.107.054.214.054.053.054.107.054.213z"/><path id="path5_fill" d="M4.306 6.676v.267c0 .053 0 .107-.054.16 0 .054-.053.054-.053.107-.054 0-.054.053-.108.053H.43c-.108 0-.216-.053-.323-.106C0 7.103 0 6.943 0 6.783V.48C0 .32.054.214.108.107.215.053.323 0 .43 0h3.66c.054 0 .054 0 .108.053 0 0 .053.054.053.107 0 .054.054.107.054.16v.535c0 .053 0 .106-.054.16 0 .053-.053.053-.053.107 0 0-.054.053-.108.053H1.507v1.762h2.207c.054 0 .054 0 .108.054.054 0 .054.053.054.107 0 .053.053.106.053.16v.534c0 .053 0 .107-.053.16 0 .054-.054.054-.054.107-.054 0-.054.053-.108.053H1.507v2.03h2.638c.054 0 .054 0 .107.053.054 0 .054.054.054.107s.054.107.054.16c-.054 0-.054.107-.054.214z"/><path id="path6_fill" d="M5.006 2.136c0 .428-.054.748-.215 1.068-.108.32-.323.588-.539.802a2.495 2.495 0 01-.915.48c-.376.107-.753.16-1.238.16h-.592v2.297c0 .053 0 .053-.054.107 0 .053-.053.053-.107.053s-.108.054-.216.054H.377c-.108 0-.162 0-.216-.054-.053 0-.107-.053-.107-.053 0-.054-.054-.054-.054-.107V.48C0 .32.054.16.161.107.27 0 .377 0 .538 0h2.207c.162 0 .323.053.538.107.216.053.431.107.646.213.216.107.431.267.593.428.161.16.269.374.376.64.054.214.108.481.108.748zm-1.561.107c0-.267-.054-.48-.162-.64-.107-.161-.215-.268-.322-.375-.108-.053-.27-.106-.431-.16-.162 0-.27-.053-.43-.053h-.647V3.47H2.1c.216 0 .43-.053.592-.106.162-.054.27-.16.377-.267.108-.107.162-.267.215-.428.162-.053.162-.213.162-.427z"/><path id="path7_fill" d="M6.89 3.685c0 .588-.054 1.122-.215 1.602a4.472 4.472 0 01-.646 1.229 2.6 2.6 0 01-1.077.747 4.45 4.45 0 01-1.507.267c-.592 0-1.077-.053-1.507-.213A2.87 2.87 0 01.86 6.622a3.517 3.517 0 01-.646-1.174C.054 4.967 0 4.433 0 3.792 0 3.204.054 2.67.215 2.19c.162-.481.377-.855.646-1.175A2.6 2.6 0 011.938.267 4.45 4.45 0 013.445 0c.538 0 1.023.053 1.453.214.43.16.754.373 1.077.694.269.32.484.694.646 1.121.215.481.269 1.069.269 1.656zm-1.561.107a5.34 5.34 0 00-.108-1.015 1.8 1.8 0 00-.323-.8 1.914 1.914 0 00-.592-.535c-.215-.107-.538-.16-.915-.16s-.646.053-.915.213c-.27.16-.43.32-.592.534a1.8 1.8 0 00-.323.802c-.054.32-.108.64-.108.96 0 .375.054.749.108 1.069a1.8 1.8 0 00.323.801c.161.214.323.374.592.534.215.107.538.16.915.16s.646-.053.915-.213c.27-.16.43-.32.592-.534a1.8 1.8 0 00.323-.801c.108-.374.108-.695.108-1.015z"/><path id="path8_fill" d="M5.437 7.05v.107c0 .053-.054.053-.108.053s-.162.053-.27.053h-.806c-.107 0-.161 0-.215-.053-.054 0-.108-.053-.108-.053 0-.054-.053-.054-.053-.107L3.23 5.448c-.054-.16-.162-.32-.216-.481-.053-.16-.161-.267-.269-.374-.107-.107-.215-.16-.323-.214-.107-.053-.269-.053-.43-.053h-.485v2.777c0 .054 0 .054-.054.107 0 .053-.053.053-.107.053s-.108.054-.216.054H.377c-.108 0-.162 0-.216-.054-.053 0-.107-.053-.107-.053 0-.053-.054-.053-.054-.107V.481C0 .32.054.214.108.107.215.053.323 0 .43 0h2.368c.108 0 .215 0 .323.053.27.054.538.107.807.214.216.107.431.214.593.374.161.16.269.374.376.587.108.214.108.481.108.748s-.054.48-.108.64c-.053.215-.161.375-.269.535-.107.16-.269.267-.43.427a1.997 1.997 0 01-.593.267c.108.054.216.107.323.214.108.053.162.16.27.267a.86.86 0 01.215.374c.054.16.161.267.215.48l.592 1.442c.054.16.108.267.108.32.108 0 .108.054.108.108zM3.499 2.136a1.07 1.07 0 00-.162-.587c-.107-.16-.269-.267-.538-.32-.054 0-.161-.054-.27-.054H1.508v2.03h.754c.215 0 .377 0 .538-.054a.87.87 0 00.377-.214c.107-.106.161-.213.215-.32.108-.16.108-.32.108-.48z"/><path id="path9_fill" d="M3.983 6.622v.267c0 .054 0 .16-.054.214 0 .054-.053.107-.053.107-.054 0-.054.053-.108.053H.43c-.108 0-.216-.053-.323-.106C0 7.103 0 6.943 0 6.783V.213C0 .16 0 .16.054.108.054.053.108.053.16.053.215.053.27 0 .377 0h.753c.108 0 .162 0 .216.053.054 0 .107.054.107.054 0 .053.054.053.054.107v5.821h2.315c.054 0 .054 0 .107.053.054 0 .054.054.054.107 0 .054.054.107.054.16-.054.054-.054.16-.054.267z"/><path id="path10_fill" d="M6.89 3.685c0 .588-.054 1.122-.215 1.602a4.472 4.472 0 01-.646 1.229c-.323.32-.646.587-1.077.747a4.45 4.45 0 01-1.507.267c-.592 0-1.077-.053-1.507-.213A2.87 2.87 0 01.86 6.622a3.517 3.517 0 01-.646-1.174C.054 4.967 0 4.433 0 3.792 0 3.204.054 2.67.215 2.19c.162-.481.377-.855.646-1.175.323-.32.646-.588 1.077-.748A4.45 4.45 0 013.445 0c.538 0 1.023.053 1.453.214.431.16.754.373 1.077.694.269.32.484.694.646 1.121a5.1 5.1 0 01.269 1.656zm-1.561.107a5.34 5.34 0 00-.108-1.015 1.8 1.8 0 00-.323-.8 1.914 1.914 0 00-.592-.535c-.215-.107-.538-.16-.915-.16s-.646.053-.915.213c-.27.16-.43.32-.592.534a1.8 1.8 0 00-.323.802c-.054.32-.108.64-.108.96 0 .375.054.749.108 1.069a1.8 1.8 0 00.323.801c.161.214.323.374.592.534.215.107.538.16.915.16s.646-.053.915-.213c.27-.16.43-.32.592-.534a1.8 1.8 0 00.323-.801c.054-.374.108-.695.108-1.015z"/><path id="path11_fill" d="M4.79 5.074c0 .374-.053.694-.215 1.014-.161.267-.323.534-.592.695-.269.213-.538.32-.861.427a3.4 3.4 0 01-1.023.16c-.269 0-.484 0-.7-.053a8.893 8.893 0 01-.592-.16c-.161-.054-.323-.107-.43-.16C.269 6.942.16 6.89.16 6.836c-.053-.054-.107-.108-.107-.215C.054 6.516 0 6.41 0 6.25v-.267c0-.054 0-.16.054-.214 0-.053.054-.107.054-.107.053 0 .053-.053.107-.053s.108.053.216.107c.107.053.215.106.376.213.162.054.323.16.539.214.215.053.43.107.7.107.16 0 .322 0 .484-.054.161-.053.269-.107.377-.16.107-.053.161-.16.215-.267.054-.107.054-.267.054-.374a1 1 0 00-.108-.427 2.24 2.24 0 00-.377-.32c-.161-.107-.323-.16-.484-.268a5.095 5.095 0 01-.592-.267c-.215-.106-.377-.213-.592-.32C.86 3.685.7 3.525.538 3.365a1.927 1.927 0 01-.377-.534C.054 2.617 0 2.35 0 2.029c0-.32.054-.64.215-.907C.323.855.538.64.754.48c.215-.16.484-.32.753-.374C1.83 0 2.1 0 2.477 0c.16 0 .322 0 .537.053.162 0 .323.054.485.107.161.054.269.107.377.16.107.054.215.107.215.16.054.054.054.054.054.107 0 0 0 .054.054.107v.696c0 .053 0 .16-.054.16 0 .053-.054.107-.054.107s-.054.053-.108.053-.107 0-.215-.053l-.323-.16a3.725 3.725 0 00-.43-.16c-.162-.054-.377-.054-.593-.054-.161 0-.323 0-.43.053l-.323.16a.293.293 0 00-.162.267c-.054.107-.054.214-.054.32a1 1 0 00.108.428c.108.107.215.214.377.32.161.107.323.16.484.268.162.106.377.16.592.267.216.106.377.213.592.32.162.107.377.267.485.427.161.16.269.32.377.534.269-.106.323.107.323.428z"/><path id="path12_fill" d="M6.029 3.525c0 .64-.108 1.228-.27 1.709a2.96 2.96 0 01-.753 1.175c-.323.32-.7.534-1.184.64-.485.16-1.023.214-1.669.214H.431c-.108 0-.216-.053-.323-.106C0 7.103 0 6.943 0 6.783V.48C0 .32.054.214.108.107.215.053.269 0 .43 0h1.884c.646 0 1.184.053 1.668.214.43.16.808.373 1.13.694.324.32.539.64.7 1.121.108.428.216.908.216 1.496zm-1.561.053c0-.32-.054-.64-.108-.961-.054-.267-.215-.534-.377-.748-.161-.213-.43-.374-.7-.48-.269-.107-.645-.16-1.076-.16h-.754v4.913h.754c.43 0 .754-.054 1.023-.16.269-.107.484-.267.7-.481.16-.214.322-.48.43-.801.108-.374.108-.748.108-1.122z"/><path id="path13_fill" d="M4.306 6.676v.267c0 .053 0 .107-.054.16 0 .054-.053.054-.053.107-.054 0-.054.053-.108.053H.43c-.108 0-.216-.053-.323-.106C0 7.103 0 6.943 0 6.783V.48C0 .32.054.214.108.107.215.053.269 0 .43 0h3.606c.054 0 .054 0 .108.053 0 0 .054.054.054.107 0 .054.053.107.053.16v.535c0 .053 0 .106-.053.16 0 .053-.054.053-.054.107 0 0-.054.053-.108.053H1.453v1.762H3.66c.054 0 .054 0 .108.054.054 0 .054.053.054.107 0 .053.054.106.054.16v.534c0 .053 0 .107-.054.16 0 .054-.054.054-.054.107-.054 0-.054.053-.108.053H1.453v2.03h2.638c.054 0 .054 0 .108.053.053 0 .053.054.053.107s.054.107.054.16v.214z"/><path id="path14_fill" d="M5.437 7.05v.107c0 .053-.054.053-.108.053s-.162.053-.27.053h-.806c-.107 0-.161 0-.215-.053-.054 0-.108-.053-.108-.053 0-.054-.053-.054-.053-.107L3.23 5.448c-.054-.16-.162-.32-.216-.481-.053-.16-.161-.267-.269-.374-.107-.107-.215-.16-.323-.214-.107-.053-.269-.053-.43-.053h-.485V7.05c0 .053 0 .053-.054.107 0 .053-.053.053-.107.053s-.108.053-.216.053H.377c-.108 0-.162 0-.216-.053-.053 0-.107-.053-.107-.053C.054 7.103 0 7.103 0 7.05V.48C0 .32.054.215.108.108.215.053.269 0 .43 0h2.368c.108 0 .215 0 .323.053.27.054.538.107.807.214.216.107.431.214.593.374.161.16.269.374.376.587.108.214.108.481.108.748s-.054.48-.108.64c-.053.215-.161.375-.269.535-.107.16-.269.267-.43.427a1.997 1.997 0 01-.593.267c.108.054.216.107.323.214.108.053.162.16.27.267a.86.86 0 01.215.374c.054.16.161.267.215.48l.592 1.442c.054.16.108.267.108.32.108 0 .108.054.108.108zM3.553 2.136a1.07 1.07 0 00-.162-.587c-.108-.16-.269-.267-.538-.32-.054 0-.162-.054-.27-.054H1.562v2.03h.754c.215 0 .376 0 .538-.054a.87.87 0 00.377-.214c.107-.106.161-.213.215-.32.054-.16.108-.32.108-.48z"/><path id="path15_fill" d="M5.329 6.302v.374c0 .053 0 .107-.054.107 0 .053-.054.053-.108.107a.742.742 0 01-.215.16c-.108.053-.269.107-.43.213a8.88 8.88 0 01-.593.16c-.215.054-.43.054-.7.054-.484 0-.968-.053-1.345-.214-.377-.16-.754-.373-1.023-.694a3.834 3.834 0 01-.646-1.121C.054 5.02 0 4.486 0 3.845 0 3.258.108 2.67.27 2.19c.16-.481.376-.855.699-1.175.323-.32.646-.588 1.076-.748C2.476.107 2.907 0 3.391 0c.215 0 .377 0 .592.053.162.054.377.054.539.107.161.054.322.107.43.16.108.054.215.107.27.16l.107.107c0 .054.054.054.054.107v.696c0 .053 0 .16-.054.213 0 .054-.054.107-.054.107s-.054.053-.108.053c-.053 0-.107-.053-.215-.106-.108-.054-.215-.16-.323-.214a4.285 4.285 0 00-.484-.214c-.216-.053-.43-.106-.7-.106-.27 0-.538.053-.754.16a1.68 1.68 0 00-.592.48c-.161.214-.269.481-.377.802-.107.32-.107.64-.107 1.068 0 .427.054.8.107 1.121.108.32.216.588.377.748.162.214.377.374.592.427.216.107.485.16.754.16.27 0 .484-.053.7-.106.215-.054.377-.107.484-.214a.828.828 0 00.323-.214c.108-.053.162-.106.215-.106h.108s.054.053.054.106c0 .054 0 .107.054.16-.054.321-.054.428-.054.588z"/><path id="path16_fill" d="M5.76 7.05c0 .053 0 .053-.054.107 0 .053-.054.053-.108.053s-.108.053-.215.053h-.754c-.107 0-.161 0-.215-.053-.054 0-.108-.053-.108-.053 0-.054-.054-.054-.054-.107V4.112H1.507V7.05c0 .053 0 .053-.054.107 0 .053-.053.053-.107.053s-.108.053-.216.053H.377c-.108 0-.162 0-.216-.053-.053 0-.107-.053-.107-.053C.054 7.103 0 7.103 0 7.05V.214C0 .16 0 .16.054.107.054.053.108.053.16.053.215.053.27 0 .377 0h.753c.108 0 .162 0 .216.053.054 0 .107.054.107.054 0 .053.054.053.054.107v2.67h2.745V.214c0-.054 0-.054.054-.107 0-.054.054-.054.108-.054S4.522 0 4.629 0h.754c.107 0 .161 0 .215.053.054 0 .108.054.108.054 0 .053.054.053.054.107z"/><path id="path17_fill" d="M6.89 3.685c0 .588-.054 1.122-.215 1.602a4.472 4.472 0 01-.646 1.229 2.6 2.6 0 01-1.077.747 4.45 4.45 0 01-1.507.267c-.592 0-1.077-.053-1.507-.213A2.87 2.87 0 01.86 6.622a3.517 3.517 0 01-.646-1.174C.054 4.967 0 4.433 0 3.792 0 3.204.054 2.67.215 2.19c.162-.481.377-.855.646-1.175A2.6 2.6 0 011.938.267 4.45 4.45 0 013.445 0c.538 0 1.023.053 1.453.214.431.16.754.373 1.077.694.269.32.484.694.646 1.121.215.481.269 1.015.269 1.656zm-1.561.107a5.34 5.34 0 00-.108-1.015 1.8 1.8 0 00-.323-.8 1.914 1.914 0 00-.592-.535c-.215-.107-.538-.16-.915-.16s-.646.053-.915.213c-.27.16-.43.32-.592.534a1.8 1.8 0 00-.323.802c-.054.32-.108.64-.108.96 0 .375.054.749.108 1.069a1.8 1.8 0 00.323.801c.161.214.323.374.592.534.215.107.538.16.915.16s.646-.053.915-.213c.27-.16.43-.32.592-.534a1.8 1.8 0 00.323-.801c.108-.374.108-.695.108-1.015z"/><path id="path18_fill" d="M4.79 5.074c0 .374-.053.694-.215 1.014-.161.267-.323.534-.592.695-.269.213-.538.32-.861.427a3.4 3.4 0 01-1.023.16c-.269 0-.484 0-.7-.053-.215-.054-.43-.107-.592-.16a3.729 3.729 0 01-.43-.16C.269 6.942.16 6.89.16 6.836c-.053-.054-.107-.108-.107-.215C.054 6.516 0 6.41 0 6.25v-.267c0-.054 0-.16.054-.214 0-.053.054-.107.054-.107.053 0 .053-.053.107-.053s.108.053.216.107c.107.053.215.106.376.213.162.054.323.16.539.214.215.053.43.107.7.107.16 0 .322 0 .484-.054.161-.053.269-.107.377-.16.107-.053.161-.16.215-.267.054-.107.054-.267.054-.374a1 1 0 00-.108-.427 2.24 2.24 0 00-.377-.32c-.161-.107-.323-.16-.484-.268a5.095 5.095 0 01-.592-.267c-.215-.106-.377-.213-.592-.32C.86 3.685.7 3.525.538 3.365a1.927 1.927 0 01-.377-.534C.054 2.617.054 2.35.054 2.029c0-.32.054-.64.215-.907C.377.855.592.64.807.48c.216-.16.485-.32.754-.374C1.884 0 2.153 0 2.53 0c.161 0 .323 0 .538.053.162 0 .323.054.485.107.161.054.269.107.376.16.108.054.216.107.216.16.054.054.054.054.054.107 0 0 0 .054.053.107v.696c0 .053 0 .16-.053.16 0 .053-.054.107-.054.107s-.054.053-.108.053-.108 0-.215-.053l-.323-.16a3.725 3.725 0 00-.43-.16c-.162-.054-.378-.054-.593-.054-.161 0-.323 0-.43.053l-.324.16c-.053.054-.161.16-.161.267-.054.107-.054.214-.054.32a1 1 0 00.108.428c.107.107.215.214.377.32.161.107.323.16.484.268.162.106.377.16.592.267.216.106.377.213.592.32.162.107.377.267.485.427.161.16.269.32.377.534.215-.106.269.107.269.428z"/><path id="path19_fill" d="M1.507 7.05c0 .053 0 .053-.054.107 0 .053-.053.053-.107.053s-.108.053-.216.053H.377c-.108 0-.162 0-.216-.053-.053 0-.107-.053-.107-.053C.054 7.103 0 7.103 0 7.05V.214C0 .16 0 .16.054.107.054.053.108.053.16.053.215.053.27 0 .377 0h.753c.108 0 .162 0 .216.053.054 0 .107.054.107.054 0 .053.054.053.054.107z"/><path id="path1_fill" d="M5.437 7.05v.107c0 .053-.054.053-.108.053s-.162.053-.27.053h-.806c-.107 0-.161 0-.215-.053-.054 0-.108-.053-.108-.053 0-.054-.053-.054-.053-.107L3.23 5.448c-.054-.16-.162-.32-.216-.481-.053-.16-.161-.267-.269-.374a1.127 1.127 0 00-.323-.214c-.107-.053-.269-.053-.43-.053h-.485v2.777c0 .054 0 .054-.054.107 0 .053-.053.053-.107.053s-.108.054-.216.054H.377c-.108 0-.162 0-.216-.054-.053 0-.107-.053-.107-.053 0-.053-.054-.053-.054-.107V.481C0 .32.054.214.108.107.215.053.269 0 .43 0h2.368c.108 0 .215 0 .323.053.27.054.538.107.807.214.216.107.431.214.593.374.161.16.269.374.376.587.108.214.108.481.108.748s-.054.48-.108.64c-.053.215-.161.375-.269.535-.107.16-.269.267-.43.427a1.997 1.997 0 01-.593.267c.108.054.216.107.323.214.108.053.162.16.27.267a.86.86 0 01.215.374c.054.16.161.267.215.48l.592 1.442c.054.16.108.267.108.32.054 0 .108.054.108.108zM3.499 2.136a1.07 1.07 0 00-.162-.587c-.107-.16-.269-.267-.538-.32-.054 0-.161-.054-.27-.054H1.508v2.03h.754c.215 0 .377 0 .538-.054a.87.87 0 00.377-.214c.107-.106.161-.213.215-.32.108-.16.108-.32.108-.48z"/><path id="path21_fill" d="M6.029 4.54c0 .427-.054.854-.216 1.175-.107.373-.323.64-.592.907-.269.268-.592.428-.969.535-.376.106-.807.213-1.291.213-.431 0-.862-.053-1.239-.16a1.978 1.978 0 01-.915-.534c-.269-.214-.43-.534-.592-.855A3.876 3.876 0 010 4.593V.213C0 .16 0 .16.054.108.054.053.108.053.16.053.215.053.27 0 .377 0h.753c.108 0 .162 0 .216.053.054 0 .107.054.107.054 0 .053.054.053.054.107v4.272c0 .267.054.534.108.748.054.214.161.374.323.534a.78.78 0 00.484.32c.162.054.377.107.646.107.216 0 .43-.053.646-.107a1.27 1.27 0 00.485-.32c.107-.16.215-.32.269-.48.054-.214.107-.428.107-.695V.267c0-.053 0-.053.054-.107 0-.053.054-.053.108-.053s.107-.054.215-.054h.754c.107 0 .161 0 .215.054.054 0 .108.053.108.053 0 .054.054.054.054.107V4.54z"/><path id="path22_fill" d="M6.62 6.783c.055.16.055.213.108.32 0 .054 0 .16-.053.16-.054.054-.108.054-.216.054H5.6c-.109 0-.162 0-.27-.054-.054 0-.108-.053-.108-.053 0-.053-.054-.053-.054-.107l-.484-1.442H1.938L1.453 7.05c0 .053-.053.107-.053.107 0 .053-.054.053-.108.106-.054 0-.108.054-.215.054H.27c-.109 0-.162-.054-.216-.107C0 7.157 0 7.103 0 7.05c0-.054.054-.16.108-.32L2.368.32c0-.053.054-.106.054-.16.054-.053.054-.053.162-.107.054 0 .161-.053.269-.053h1.023c.107 0 .215 0 .323.053.053 0 .107.054.161.107.054.054.054.107.108.16zM3.284 1.495L2.261 4.54h2.045z"/><path id="path23_fill" d="M3.983 6.622v.267c0 .054 0 .16-.054.214 0 .054-.053.107-.053.107-.054 0-.054.053-.108.053H.43c-.108 0-.216-.053-.323-.106C0 7.103 0 6.943 0 6.783V.213C0 .16 0 .16.054.108.054.053.108.053.16.053.215.053.27 0 .377 0h.753c.108 0 .162 0 .216.053.054 0 .107.054.107.054 0 .053.054.053.054.107v5.821h2.315c.054 0 .054 0 .107.053.054 0 .054.054.054.107 0 .054.054.107.054.16-.054.054-.054.16-.054.267z"/><path id="path24_fill" d="M1.507 7.05c0 .053 0 .053-.054.107 0 .053-.053.053-.107.053s-.108.053-.216.053H.377c-.108 0-.162 0-.216-.053-.053 0-.107-.053-.107-.053C.054 7.103 0 7.103 0 7.05V.214C0 .16 0 .16.054.107.054.053.108.053.16.053.215.053.27 0 .377 0h.753c.108 0 .162 0 .216.053.054 0 .107.054.107.054 0 .053.054.053.054.107z"/><path id="path25_fill" d="M5.598.587v.268c0 .053 0 .16-.054.16 0 .053-.054.107-.054.107-.053 0-.053.053-.107.053h-1.83v5.821c0 .054 0 .054-.054.107 0 .054-.054.054-.108.054s-.108.053-.215.053h-.754c-.107 0-.161 0-.215-.053-.054 0-.108-.054-.108-.054 0-.053-.054-.053-.054-.107V1.228H.215c-.054 0-.054 0-.107-.053 0 0-.054-.053-.054-.107C.054 1.015 0 .961 0 .908V.374C0 .32 0 .214.054.16c0-.053.054-.053.054-.107C.108.053.16 0 .215 0H5.33c.054 0 .054 0 .108.053.053 0 .053.054.053.107 0 .054.054.107.054.214.054 0 .054.107.054.213z"/><path id="path26_fill" d="M6.62 6.783c.055.16.055.213.108.32 0 .054 0 .16-.053.16-.054.054-.108.054-.216.054H5.6c-.109 0-.162 0-.27-.054-.054 0-.108-.053-.108-.053 0-.053-.054-.053-.054-.107l-.484-1.442H1.938L1.453 7.05c0 .053-.053.107-.053.107 0 .053-.054.053-.108.106-.054 0-.108.054-.215.054H.27c-.109 0-.162-.054-.216-.107C0 7.157 0 7.103 0 7.05c0-.054.054-.16.108-.32L2.368.32c0-.053.054-.106.054-.16.054-.053.054-.053.162-.107.054 0 .161-.053.269-.053h1.023c.107 0 .215 0 .323.053.053 0 .107.054.161.107.054.054.054.107.108.16zM3.284 1.495L2.261 4.54h2.045z"/><path id="path27_fill" d="M5.437 7.05v.107c0 .053-.054.053-.108.053s-.162.053-.27.053h-.806c-.107 0-.161 0-.215-.053-.054 0-.108-.053-.108-.053 0-.054-.053-.054-.053-.107L3.23 5.448c-.054-.16-.162-.32-.216-.481-.053-.16-.161-.267-.269-.374a1.127 1.127 0 00-.323-.214c-.107-.053-.269-.053-.43-.053h-.485v2.777c0 .054 0 .054-.054.107 0 .053-.053.053-.107.053s-.108.054-.216.054H.377c-.108 0-.162 0-.216-.054-.053 0-.107-.053-.107-.053 0-.053-.054-.053-.054-.107V.481C0 .32.054.214.108.107.215.053.269 0 .43 0h2.368c.108 0 .215 0 .323.053.27.054.538.107.807.214.216.107.431.214.593.374.161.16.269.374.376.587.108.214.108.481.108.748s-.054.48-.108.64c-.054.215-.161.375-.269.535-.107.16-.269.267-.43.427a1.998 1.998 0 01-.593.267c.108.054.216.107.323.214.108.053.162.16.27.267a.86.86 0 01.215.374c.054.16.161.267.215.48l.592 1.442c.054.16.108.267.108.32.108 0 .108.054.108.108zM3.553 2.136a1.07 1.07 0 00-.162-.587c-.107-.16-.269-.267-.538-.32-.054 0-.162-.054-.27-.054H1.562v2.03h.754c.215 0 .376 0 .538-.054a.87.87 0 00.377-.214c.107-.106.161-.213.215-.32.054-.16.108-.32.108-.48z"/><path id="path28_fill" d="M1.507 7.05c0 .053 0 .053-.054.107 0 .053-.053.053-.107.053s-.108.053-.216.053H.377c-.108 0-.162 0-.216-.053-.053 0-.107-.053-.107-.053C.054 7.103 0 7.103 0 7.05V.214C0 .16 0 .16.054.107.054.053.108.053.16.053.215.053.27 0 .377 0h.753c.108 0 .162 0 .216.053.054 0 .107.054.107.054 0 .053.054.053.054.107z"/><path id="path29_fill" d="M6.89 3.685c0 .588-.054 1.122-.215 1.602a4.472 4.472 0 01-.646 1.229c-.323.32-.646.587-1.077.747a4.45 4.45 0 01-1.507.267c-.592 0-1.077-.053-1.507-.213A2.87 2.87 0 01.86 6.622a3.517 3.517 0 01-.646-1.174C.054 4.967 0 4.433 0 3.792 0 3.204.054 2.67.215 2.19c.162-.481.377-.855.646-1.175.323-.32.646-.588 1.077-.748A4.45 4.45 0 013.445 0c.538 0 1.023.053 1.453.214.431.16.754.373 1.077.694.269.32.484.694.646 1.121.215.481.269 1.015.269 1.656zm-1.561.107a5.34 5.34 0 00-.108-1.015 1.8 1.8 0 00-.323-.8 1.914 1.914 0 00-.592-.535c-.215-.107-.538-.16-.915-.16s-.646.053-.915.213c-.27.16-.43.32-.592.534a1.8 1.8 0 00-.323.802c-.054.32-.108.64-.108.96 0 .375.054.749.108 1.069a1.8 1.8 0 00.323.801c.161.214.323.374.592.534.215.107.538.16.915.16s.646-.053.915-.213c.27-.16.43-.32.592-.534a1.8 1.8 0 00.323-.801c.108-.374.108-.695.108-1.015z"/><path id="path30_fill" d="M4.79 5.074c0 .374-.053.694-.215 1.014-.161.267-.323.534-.592.695-.269.213-.538.32-.861.427a3.4 3.4 0 01-1.023.16c-.269 0-.484 0-.7-.053-.215-.054-.43-.107-.592-.16a3.729 3.729 0 01-.43-.16C.269 6.942.16 6.89.16 6.836c-.053-.054-.107-.108-.107-.215C.054 6.516 0 6.41 0 6.25v-.267c0-.054 0-.16.054-.214 0-.053.054-.107.054-.107.053 0 .053-.053.107-.053s.108.053.216.107c.107.053.215.106.376.213.162.054.323.16.539.214.215.053.43.107.7.107.16 0 .322 0 .484-.054.161-.053.269-.107.377-.16.107-.053.161-.16.215-.267.054-.107.054-.267.054-.374a1 1 0 00-.108-.427 2.24 2.24 0 00-.377-.32c-.161-.107-.323-.16-.484-.268-.162-.106-.377-.16-.592-.267-.215-.106-.377-.213-.592-.32C.86 3.685.7 3.525.538 3.365a1.927 1.927 0 01-.377-.534C.054 2.617 0 2.35 0 2.029c0-.32.054-.64.215-.907C.323.855.538.64.754.48c.215-.16.484-.32.753-.374C1.83 0 2.1 0 2.477 0c.16 0 .322 0 .537.053.216.054.323.054.485.107.161.054.269.107.377.16.107.054.215.107.215.16.054.054.054.054.054.107 0 0 0 .054.054.107v.696c0 .053 0 .16-.054.16 0 .053-.054.107-.054.107s-.054.053-.108.053a.41.41 0 01-.215-.053l-.323-.16a3.727 3.727 0 00-.43-.16c-.162-.054-.377-.054-.593-.054-.161 0-.323 0-.43.053l-.323.16a.293.293 0 00-.162.267.673.673 0 00-.054.32 1 1 0 00.108.428c.108.107.215.214.377.32.161.107.323.16.484.268.162.053.377.16.592.267.216.106.377.213.592.32.162.107.377.267.485.427.161.16.269.32.377.534.269-.106.323.107.323.428z"/><path id="path31_fill" d="M1.615 0H0v10.361h1.615z"/><path id="path32_fill" d="M1.615 0H0v10.361h1.615z"/><path id="path33_fill" d="M1.615 0H0v10.361h1.615z"/><path id="path34_fill" d="M1.615 0H0v10.361h1.615z"/><path id="path35_fill" d="M25.945 15.007c0 2.83-.377 5.288-1.13 7.264-.754 2.03-1.83 3.685-3.23 4.967-1.4 1.281-3.122 2.19-5.114 2.83-1.991.588-4.414.908-7.159.908H1.884c-.538 0-.969-.16-1.346-.48C.161 30.174 0 29.693 0 29V1.976C0 1.282.161.748.538.481.915.16 1.346 0 1.884 0h8.02c2.8 0 5.168.32 7.106.961 1.937.641 3.552 1.603 4.898 2.884 1.346 1.282 2.314 2.83 3.014 4.7.646 1.816 1.023 4.006 1.023 6.462zm-6.567.214c0-1.442-.162-2.83-.538-4.112a8.165 8.165 0 00-1.67-3.259c-.753-.908-1.722-1.656-2.96-2.19-1.185-.534-2.746-.801-4.737-.801h-3.23v21.042h3.284c1.722 0 3.175-.213 4.413-.694 1.185-.427 2.207-1.121 2.96-2.03.808-.907 1.4-2.029 1.777-3.364.485-1.228.7-2.83.7-4.593z"/><path id="path36_fill" d="M6.352 29.961c0 .16-.054.32-.162.428-.107.106-.269.213-.538.32-.215.053-.538.16-.969.214-.377.053-.915.053-1.507.053-.592 0-1.13 0-1.507-.053-.431-.054-.754-.107-.97-.214-.215-.053-.43-.16-.538-.32A.604.604 0 010 29.96V1.015c0-.16.054-.32.161-.428C.27.481.431.374.7.267c.269-.053.592-.16.969-.214C2.045 0 2.584 0 3.176 0c.646 0 1.13 0 1.507.053.377.054.7.107.969.214.215.053.43.16.538.32a.604.604 0 01.162.428z"/><path id="path37_fill" d="M6.244.587c-.108-.106-.27-.213-.538-.32-.216-.107-.539-.16-.97-.214C4.36 0 3.823 0 3.23 0h-.054c-.592 0-1.13 0-1.507.053-.377.054-.7.107-.97.214C.432.374.27.481.162.587A.604.604 0 000 1.015v10.307c0 .16.054.32.161.428.108.106.27.213.539.32.215.107.538.16.969.214.376.053.915.053 1.507.053h.054c.592 0 1.13 0 1.507-.053.377-.054.7-.107.969-.214s.43-.214.538-.32a.604.604 0 00.162-.428V1.015c0-.16-.054-.32-.162-.428z"/><path id="path38_fill" d="M16.956 0H0v6.676h16.956l3.39-3.311z"/><path id="path39_fill" d="M16.956 0H0v6.676h16.956l3.39-3.311z"/></defs></svg>