<svg width="267" height="117" xmlns="http://www.w3.org/2000/svg" xmlns:xlink="http://www.w3.org/1999/xlink"><use xlink:href="#path0_fill" transform="translate(137.6 29.5)" fill="#FFF"/><use xlink:href="#path1_fill" transform="translate(147.6 29.5)" fill="#FFF"/><use xlink:href="#path2_fill" transform="translate(159.9 29.5)" fill="#FFF"/><use xlink:href="#path3_fill" transform="translate(170.5 29.6)" fill="#FFF"/><use xlink:href="#path4_fill" transform="translate(183.4 29.5)" fill="#FFF"/><use xlink:href="#path5_fill" transform="translate(195.7 29.5)" fill="#FFF"/><use xlink:href="#path6_fill" transform="translate(211.3 29.6)" fill="#FFF"/><use xlink:href="#path7_fill" transform="translate(222.3 29.2)" fill="#FFF"/><use xlink:href="#path8_fill" transform="translate(237.6 29.5)" fill="#FFF"/><use xlink:href="#path9_fill" transform="translate(137.6 51.8)" fill="#FFF"/><use xlink:href="#path10_fill" transform="translate(145.4 51.5)" fill="#FFF"/><use xlink:href="#path11_fill" transform="translate(159.3 51.8)" fill="#FFF"/><use xlink:href="#path12_fill" transform="translate(174.7 51.8)" fill="#FFF"/><use xlink:href="#path13_fill" transform="translate(187.9 51.8)" fill="#FFF"/><use xlink:href="#path14_fill" transform="translate(198 51.8)" fill="#FFF"/><use xlink:href="#path15_fill" transform="translate(209.9 51.8)" fill="#FFF"/><use xlink:href="#path16_fill" transform="translate(219.2 51.5)" fill="#FFF"/><use xlink:href="#path17_fill" transform="translate(230.6 51.8)" fill="#FFF"/><use xlink:href="#path18_fill" transform="translate(243.4 51.5)" fill="#FFF"/><use xlink:href="#path19_fill" transform="translate(257.4 51.8)" fill="#FFF"/><use xlink:href="#path20_fill" transform="translate(137.5 74.1)" fill="#FFF"/><use xlink:href="#path21_fill" transform="translate(143.1 74.1)" fill="#FFF"/><use xlink:href="#path22_fill" transform="translate(157.9 74.1)" fill="#FFF"/><use xlink:href="#path23_fill" transform="translate(170.8 73.9)" fill="#FFF"/><use xlink:href="#path24_fill" transform="translate(185.5 74.1)" fill="#FFF"/><use xlink:href="#path25_fill" transform="translate(195.1 74.1)" fill="#FFF"/><use xlink:href="#path26_fill" transform="translate(200 74.2)" fill="#FFF"/><use xlink:href="#path27_fill" transform="translate(209.6 73.9)" fill="#FFF"/><use xlink:href="#path28_fill" transform="translate(224.3 74.1)" fill="#FFF"/><use xlink:href="#path29_fill" transform="translate(236.9 74.1)" fill="#FFF"/><use xlink:href="#path30_fill" transform="translate(242.6 73.7)" fill="#FFF"/><use xlink:href="#path31_fill" transform="translate(257.4 74)" fill="#FFF"/><use xlink:href="#path32_fill" transform="translate(123 .3)" fill="#FFF"/><g fill="#FFF"><use xlink:href="#path33_fill" transform="translate(45.2 29.5)"/><use xlink:href="#path34_fill" transform="translate(99.7 29.4)"/><use xlink:href="#path35_fill" transform="translate(.8 64.2)"/><use xlink:href="#path36_fill" transform="translate(1 29.4)"/><use xlink:href="#path37_fill" transform="translate(1 46.7)"/></g><defs><path id="path0_fill" d="M7.6 1.1v.5c0 .1 0 .3-.1.3 0 .1-.1.1-.1.2 0 0-.1.1-.2.1H2.8v3.6h4.1c.1 0 .1 0 .2.1 0 0 .1.1.1.2s.1.2.1.3v1c0 .1 0 .3-.1.3 0 .1-.1.2-.1.2S7 8 6.9 8H2.8v5c0 .1 0 .1-.1.2 0 .1-.1.1-.2.1s-.2.1-.4.1H.7c-.2 0-.3-.1-.4-.1-.1 0-.2-.1-.2-.1 0-.1-.1-.1-.1-.2V.9C0 .6.1.4.2.2.4.1.6 0 .8 0h6.4c.1 0 .1 0 .2.1 0 0 .1.1.1.2s.1.2.1.4v.4z"/><path id="path1_fill" d="M10.1 13.2v.2c0 .1-.1.1-.2.1s-.3.1-.5.1H7.9c-.2 0-.3 0-.4-.1-.1 0-.2-.1-.2-.1 0-.1-.1-.1-.1-.2l-1.2-3c-.1-.3-.3-.6-.4-.9-.1-.3-.3-.5-.5-.7-.2-.2-.4-.3-.6-.4-.2-.1-.5-.1-.8-.1h-.9v5.2c0 .1 0 .1-.1.2 0 .1-.1.1-.2.1s-.2.1-.4.1H.7c-.2 0-.3 0-.4-.1-.1 0-.2-.1-.2-.1 0-.1-.1-.1-.1-.2V.9C0 .6.1.4.2.2.4.1.5 0 .8 0h4.4c.2 0 .4 0 .6.1.5.1 1 .2 1.5.4.4.2.8.4 1.1.7.3.3.5.7.7 1.1.2.4.2.9.2 1.4 0 .5-.1.9-.2 1.2-.1.4-.3.7-.5 1-.2.3-.5.5-.8.8-.3.2-.7.4-1.1.5.2.1.4.2.6.4.2.1.3.3.5.5s.3.4.4.7c.1.3.3.5.4.9l1.1 2.7c.1.3.2.5.2.6.1 0 .2.1.2.2zM6.5 4c0-.4-.1-.8-.3-1.1-.2-.3-.5-.5-1-.6-.1 0-.3-.1-.5-.1H2.8V6h1.4c.4 0 .7 0 1-.1.3-.1.5-.2.7-.4.2-.2.3-.4.4-.6.2-.3.2-.6.2-.9z"/><path id="path2_fill" d="M8 12.5v.5c0 .1 0 .2-.1.3 0 .1-.1.1-.1.2-.1 0-.1.1-.2.1H.8c-.2 0-.4-.1-.6-.2-.2-.1-.2-.4-.2-.7V.9C0 .6.1.4.2.2.4.1.5 0 .8 0h6.7c.1 0 .1 0 .2.1 0 0 .1.1.1.2s.1.2.1.3v1c0 .1 0 .2-.1.3 0 .1-.1.1-.1.2 0 0-.1.1-.2.1H2.7v3.3h4.1c.1 0 .1 0 .2.1.1 0 .1.1.1.2s.1.2.1.3v1c0 .1 0 .2-.1.3 0 .1-.1.1-.1.2-.1 0-.1.1-.2.1H2.7v3.8h4.9c.1 0 .1 0 .2.1.1 0 .1.1.1.2s.1.2.1.3v.4z"/><path id="path3_fill" d="M11.2 12.5c0 .2 0 .3-.1.4-.1.1-.1.2-.2.3-.1.1-.2.1-.3.2-.1 0-.3.1-.4.1H9c-.2 0-.5 0-.6-.1-.2 0-.3-.1-.5-.3-.1-.1-.3-.3-.4-.5-.1-.2-.3-.5-.5-.9L3.6 5.4 3 4.2c-.2-.4-.4-.9-.5-1.3 0 .5 0 1 .1 1.5V13c0 .1 0 .1-.1.2 0 .1-.1.1-.2.1s-.2.1-.4.1H.7c-.2 0-.3-.1-.4-.1-.1 0-.2-.1-.2-.1 0-.1-.1-.1-.1-.2V.9C0 .6.1.3.3.2.5 0 .7 0 1 0h1.5c.3 0 .5 0 .7.1.2 0 .3.1.5.2.1.1.3.2.4.4.1.2.3.4.4.7l2.6 4.9c.2.3.3.6.5.9.2.3.3.6.4.9.1.3.3.6.4.9.1.3.3.6.4.8V.5c0-.1 0-.1.1-.2 0-.1.1-.1.2-.1s.2-.1.4-.1h1.2c.2 0 .3 0 .4.1.1 0 .1.1.2.1 0 .1.1.1.1.2v12h-.2z"/><path id="path4_fill" d="M10.4 1.1v.5c0 .1 0 .3-.1.3 0 .1-.1.2-.1.2-.1 0-.1.1-.2.1H6.6v10.9c0 .1 0 .1-.1.2 0 .1-.1.1-.2.1s-.2.1-.4.1H4.5c-.2 0-.3 0-.4-.1-.1 0-.2-.1-.2-.1 0-.1-.1-.1-.1-.2V2.3H.4c-.1 0-.1 0-.2-.1 0 0-.1-.1-.1-.2S0 1.8 0 1.7v-1C0 .6 0 .4.1.3.1.2.2.2.2.1.2.1.3 0 .4 0h9.5c.1 0 .1 0 .2.1.1 0 .1.1.1.2s.1.2.1.4c.1.1.1.2.1.4z"/><path id="path5_fill" d="M8 12.5v.5c0 .1 0 .2-.1.3 0 .1-.1.1-.1.2-.1 0-.1.1-.2.1H.8c-.2 0-.4-.1-.6-.2-.2-.1-.2-.4-.2-.7V.9C0 .6.1.4.2.2.4.1.6 0 .8 0h6.8c.1 0 .1 0 .2.1 0 0 .1.1.1.2s.1.2.1.3v1c0 .1 0 .2-.1.3 0 .1-.1.1-.1.2 0 0-.1.1-.2.1H2.8v3.3h4.1c.1 0 .1 0 .2.1.1 0 .1.1.1.2s.1.2.1.3v1c0 .1 0 .2-.1.3 0 .1-.1.1-.1.2-.1 0-.1.1-.2.1H2.8v3.8h4.9c.1 0 .1 0 .2.1.1 0 .1.1.1.2s.1.2.1.3c-.1 0-.1.2-.1.4z"/><path id="path6_fill" d="M9.3 4c0 .8-.1 1.4-.4 2-.2.6-.6 1.1-1 1.5-.5.4-1 .7-1.7.9-.7.2-1.4.3-2.3.3H2.8V13c0 .1 0 .1-.1.2 0 .1-.1.1-.2.1s-.2.1-.4.1H.7c-.2 0-.3 0-.4-.1-.1 0-.2-.1-.2-.1 0-.1-.1-.1-.1-.2V.9C0 .6.1.3.3.2.5 0 .7 0 1 0h4.1c.3 0 .6.1 1 .2s.8.2 1.2.4c.4.2.8.5 1.1.8.3.3.5.7.7 1.2.1.4.2.9.2 1.4zm-2.9.2c0-.5-.1-.9-.3-1.2-.2-.3-.4-.5-.6-.7-.2-.2-.5-.2-.8-.3-.3 0-.5-.1-.8-.1H2.7v4.6h1.2c.4 0 .8-.1 1.1-.2.3-.1.5-.3.7-.5.2-.2.3-.5.4-.8.3-.1.3-.4.3-.8z"/><path id="path7_fill" d="M12.8 6.9c0 1.1-.1 2.1-.4 3-.3.9-.7 1.6-1.2 2.3-.5.6-1.2 1.1-2 1.4-.8.3-1.8.5-2.8.5-1.1 0-2-.1-2.8-.4-.8-.3-1.4-.7-2-1.3-.5-.6-.9-1.3-1.2-2.2C.1 9.3 0 8.3 0 7.1c0-1.1.1-2.1.4-3 .3-.9.7-1.6 1.2-2.2.5-.6 1.2-1.1 2-1.4C4.4.2 5.4 0 6.4 0c1 0 1.9.1 2.7.4.8.3 1.4.7 2 1.3.5.6.9 1.3 1.2 2.1.4.9.5 2 .5 3.1zm-2.9.2c0-.7-.1-1.4-.2-1.9-.1-.6-.3-1.1-.6-1.5-.3-.4-.6-.7-1.1-1-.4-.2-1-.3-1.7-.3s-1.2.1-1.7.4c-.5.3-.8.6-1.1 1-.3.4-.5.9-.6 1.5-.1.6-.2 1.2-.2 1.8 0 .7.1 1.4.2 2 .1.6.3 1.1.6 1.5.3.4.6.7 1.1 1 .4.2 1 .3 1.7.3s1.2-.1 1.7-.4c.5-.2.8-.6 1.1-1 .3-.4.5-.9.6-1.5.2-.7.2-1.3.2-1.9z"/><path id="path8_fill" d="M10.1 13.2v.2c0 .1-.1.1-.2.1s-.3.1-.5.1H7.9c-.2 0-.3 0-.4-.1-.1 0-.2-.1-.2-.1 0-.1-.1-.1-.1-.2l-1.2-3c-.1-.3-.3-.6-.4-.9-.1-.3-.3-.5-.5-.7-.2-.2-.4-.3-.6-.4-.2-.1-.5-.1-.8-.1h-.9v5.2c0 .1 0 .1-.1.2 0 .1-.1.1-.2.1s-.2.1-.4.1H.7c-.2 0-.3 0-.4-.1-.1 0-.2-.1-.2-.1 0-.1-.1-.1-.1-.2V.9C0 .6.1.4.2.2.4.1.6 0 .8 0h4.4c.2 0 .4 0 .6.1.5.1 1 .2 1.5.4.4.2.8.4 1.1.7.3.3.5.7.7 1.1.2.4.2.9.2 1.4 0 .5-.1.9-.2 1.2-.1.4-.3.7-.5 1-.2.3-.5.5-.8.8-.3.2-.7.4-1.1.5.2.1.4.2.6.4l.5.5c.2.2.3.4.4.7.1.3.3.5.4.9l1.1 2.7c.1.3.2.5.2.6.2 0 .2.1.2.2zM6.5 4c0-.4-.1-.8-.3-1.1-.2-.3-.5-.5-1-.6-.1 0-.3-.1-.5-.1H2.8V6h1.4c.4 0 .7 0 1-.1.3-.1.5-.2.7-.4.2-.2.3-.4.4-.6.2-.3.2-.6.2-.9z"/><path id="path9_fill" d="M7.4 12.4v.5c0 .1 0 .3-.1.4 0 .1-.1.2-.1.2-.1 0-.1.1-.2.1H.8c-.2 0-.4-.1-.6-.2-.2-.1-.2-.4-.2-.7V.4C0 .3 0 .3.1.2.1.1.2.1.3.1S.5 0 .7 0h1.4c.2 0 .3 0 .4.1.1 0 .2.1.2.1 0 .1.1.1.1.2v10.9h4.3c.1 0 .1 0 .2.1.1 0 .1.1.1.2s.1.2.1.3c-.1.1-.1.3-.1.5z"/><path id="path10_fill" d="M12.8 6.9c0 1.1-.1 2.1-.4 3-.3.9-.7 1.6-1.2 2.3-.6.6-1.2 1.1-2 1.4-.8.3-1.8.5-2.8.5-1.1 0-2-.1-2.8-.4-.8-.3-1.4-.7-2-1.3-.5-.6-.9-1.3-1.2-2.2C.1 9.3 0 8.3 0 7.1c0-1.1.1-2.1.4-3 .3-.9.7-1.6 1.2-2.2.6-.6 1.2-1.1 2-1.4C4.4.2 5.4 0 6.4 0c1 0 1.9.1 2.7.4.8.3 1.4.7 2 1.3.5.6.9 1.3 1.2 2.1.3.9.5 1.9.5 3.1zm-2.9.2c0-.7-.1-1.4-.2-1.9-.1-.6-.3-1.1-.6-1.5-.3-.4-.6-.7-1.1-1-.4-.2-1-.3-1.7-.3s-1.2.1-1.7.4c-.5.3-.8.6-1.1 1-.3.4-.5.9-.6 1.5-.1.6-.2 1.2-.2 1.8 0 .7.1 1.4.2 2 .1.6.3 1.1.6 1.5.3.4.6.7 1.1 1 .4.2 1 .3 1.7.3s1.2-.1 1.7-.4c.5-.3.8-.6 1.1-1 .3-.4.5-.9.6-1.5.1-.7.2-1.3.2-1.9z"/><path id="path11_fill" d="M8.9 9.5c0 .7-.1 1.3-.4 1.9-.3.5-.6 1-1.1 1.3-.5.4-1 .6-1.6.8-.6.2-1.3.3-1.9.3-.5 0-.9 0-1.3-.1s-.8-.2-1.1-.3c-.3-.1-.6-.2-.8-.3-.2-.1-.4-.2-.4-.3-.1-.1-.2-.2-.2-.4S0 12 0 11.7v-.5c0-.1 0-.3.1-.4 0-.1.1-.2.1-.2.1 0 .1-.1.2-.1s.2.1.4.2.4.2.7.4c.3.1.6.3 1 .4.4.1.8.2 1.3.2.3 0 .6 0 .9-.1.3-.1.5-.2.7-.3.2-.1.3-.3.4-.5.1-.2.1-.5.1-.7 0-.3-.1-.6-.2-.8-.2-.2-.4-.4-.7-.6-.3-.2-.6-.3-.9-.5-.3-.2-.7-.3-1.1-.5-.4-.2-.7-.4-1.1-.6-.3-.2-.6-.5-.9-.8-.3-.3-.5-.6-.7-1-.2-.4-.3-.9-.3-1.5s.1-1.2.4-1.7c.2-.5.6-.9 1-1.2.4-.3.9-.6 1.4-.7C3.4 0 3.9 0 4.6 0c.3 0 .6 0 1 .1s.6.1.9.2c.3.1.5.2.7.3.2.1.4.2.4.3.1.1.1.1.1.2 0 0 0 .1.1.2v1.3c0 .1 0 .3-.1.3 0 .1-.1.2-.1.2s-.1.1-.2.1-.2 0-.4-.1l-.6-.3c-.2-.1-.5-.2-.8-.3-.3-.1-.7-.1-1.1-.1-.3 0-.6 0-.8.1l-.6.3c-.2.1-.3.3-.3.5-.1.2-.1.4-.1.6 0 .3.1.6.2.8.2.2.4.4.7.6.3.2.6.3.9.5.3.2.7.3 1.1.5.4.2.7.4 1.1.6.3.2.7.5.9.8.3.3.5.6.7 1 .5-.2.6.2.6.8z"/><path id="path12_fill" d="M11.2 6.6c0 1.2-.2 2.3-.5 3.2-.3.9-.8 1.6-1.4 2.2-.6.6-1.3 1-2.2 1.2-.9.3-1.9.4-3.1.4H.8c-.2 0-.4-.1-.6-.2-.2-.1-.2-.4-.2-.7V.9C0 .6.1.4.2.2.4.1.5 0 .8 0h3.5c1.2 0 2.2.1 3.1.4.8.3 1.5.7 2.1 1.3.6.6 1 1.2 1.3 2.1.2.8.4 1.7.4 2.8zm-2.9.1c0-.6-.1-1.2-.2-1.8-.1-.6-.4-1-.7-1.4-.3-.4-.8-.7-1.3-.9-.5-.2-1.2-.3-2-.3H2.7v9.2h1.4c.8 0 1.4-.1 1.9-.3.5-.2.9-.5 1.3-.9.3-.4.6-.9.8-1.5.2-.7.2-1.4.2-2.1z"/><path id="path13_fill" d="M8 12.5v.5c0 .1 0 .2-.1.3 0 .1-.1.1-.1.2-.1 0-.1.1-.2.1H.8c-.2 0-.4-.1-.6-.2-.2-.1-.2-.4-.2-.7V.9C0 .6.1.4.2.2.4.1.5 0 .8 0h6.7c.1 0 .1 0 .2.1 0 0 .1.1.1.2s.1.2.1.3v1c0 .1 0 .2-.1.3 0 .1-.1.1-.1.2 0 0-.1.1-.2.1H2.7v3.3h4.1c.1 0 .1 0 .2.1.1 0 .1.1.1.2s.1.2.1.3v1c0 .1 0 .2-.1.3 0 .1-.1.1-.1.2-.1 0-.1.1-.2.1H2.7v3.8h4.9c.1 0 .1 0 .2.1.1 0 .1.1.1.2s.1.2.1.3v.4z"/><path id="path14_fill" d="M10.1 13.2v.2c0 .1-.1.1-.2.1s-.3.1-.5.1H7.9c-.2 0-.3 0-.4-.1-.1 0-.2-.1-.2-.1 0-.1-.1-.1-.1-.2l-1.2-3c-.1-.3-.3-.6-.4-.9-.1-.3-.3-.5-.5-.7-.2-.2-.4-.3-.6-.4-.2-.1-.5-.1-.8-.1h-.9v5.1c0 .1 0 .1-.1.2 0 .1-.1.1-.2.1s-.2.1-.4.1H.7c-.2 0-.3 0-.4-.1-.1 0-.2-.1-.2-.1 0-.1-.1-.1-.1-.2V.9C0 .6.1.4.2.2.4.1.5 0 .8 0h4.4c.2 0 .4 0 .6.1.5.1 1 .2 1.5.4.4.2.8.4 1.1.7.3.3.5.7.7 1.1.2.4.2.9.2 1.4 0 .5-.1.9-.2 1.2-.1.4-.3.7-.5 1-.2.3-.5.5-.8.8-.3.2-.7.4-1.1.5.2.1.4.2.6.4.2.1.3.3.5.5s.3.4.4.7c.1.3.3.5.4.9l1.1 2.7c.1.3.2.5.2.6.2 0 .2.1.2.2zM6.6 4c0-.4-.1-.8-.3-1.1-.2-.3-.5-.5-1-.6-.1 0-.3-.1-.5-.1H2.9V6h1.4c.4 0 .7 0 1-.1.3-.1.5-.2.7-.4.2-.2.3-.4.4-.6.1-.3.2-.6.2-.9z"/><path id="path15_fill" d="M8 12.5v.5c0 .1 0 .2-.1.3 0 .1-.1.1-.1.2-.1 0-.1.1-.2.1H.8c-.2 0-.4-.1-.6-.2-.2-.1-.2-.4-.2-.7V.9C0 .6.1.4.2.2.4.1.5 0 .8 0h6.7c.1 0 .1 0 .2.1 0 0 .1.1.1.2s.1.2.1.3v1c0 .1 0 .2-.1.3-.1.1-.1.1-.1.2 0 0-.1.1-.2.1H2.7v3.3h4.1c.1 0 .1 0 .2.1.1 0 .1.1.1.2s.1.2.1.3v1c0 .1 0 .2-.1.3 0 .1-.1.1-.1.2-.1 0-.1.1-.2.1H2.7v3.8h4.9c.1 0 .1 0 .2.1.1 0 .1.1.1.2s.1.2.1.3v.4z"/><path id="path16_fill" d="M9.9 11.8v.7c0 .1 0 .2-.1.2 0 .1-.1.1-.2.2s-.2.2-.4.3c-.2.1-.5.2-.8.4-.3.1-.7.2-1.1.3-.4.1-.8.1-1.3.1-.9 0-1.8-.1-2.5-.4-.7-.3-1.4-.7-1.9-1.3-.5-.6-.9-1.3-1.2-2.1-.3-.8-.4-1.8-.4-3C0 6.1.2 5 .5 4.1c.3-.9.7-1.6 1.3-2.2.6-.6 1.2-1.1 2-1.4C4.6.2 5.4 0 6.3 0c.4 0 .7 0 1.1.1.3.1.7.1 1 .2.3.1.6.2.8.3.2.1.4.2.5.3l.2.2c0 .1.1.1.1.2v1.3c0 .1 0 .3-.1.4 0 .1-.1.2-.1.2s-.1.1-.2.1-.2-.1-.4-.2-.4-.3-.6-.4c-.3-.1-.6-.3-.9-.4-.4-.1-.8-.2-1.3-.2s-1 .1-1.4.3c-.4.2-.8.5-1.1.9-.3.4-.5.9-.7 1.5C3 5.4 3 6 3 6.8s.1 1.5.2 2.1c.2.6.4 1.1.7 1.4.3.4.7.7 1.1.8.4.2.9.3 1.4.3.5 0 .9-.1 1.3-.2s.7-.2.9-.4c.3-.1.5-.3.6-.4.1-.1.3-.2.4-.2h.2s.1.1.1.2 0 .2.1.3c-.1.6-.1.8-.1 1.1z"/><path id="path17_fill" d="M10.7 13.2c0 .1 0 .1-.1.2 0 .1-.1.1-.2.1s-.2.1-.4.1H8.6c-.2 0-.3 0-.4-.1-.1 0-.2-.1-.2-.1 0-.1-.1-.1-.1-.2V7.7H2.8v5.5c0 .1 0 .1-.1.2 0 .1-.1.1-.2.1s-.2.1-.4.1H.7c-.2 0-.3 0-.4-.1-.1 0-.2-.1-.2-.1 0-.1-.1-.1-.1-.2V.4C0 .3 0 .3.1.2.1.1.2.1.3.1S.5 0 .7 0h1.4c.2 0 .3 0 .4.1.1 0 .2.1.2.1 0 .1.1.1.1.2v5h5.1v-5c0-.1 0-.1.1-.2 0-.1.1-.1.2-.1s.2-.1.4-.1H10c.2 0 .3 0 .4.1.1 0 .2.1.2.1 0 .1.1.1.1.2v12.8z"/><path id="path18_fill" d="M12.8 6.9c0 1.1-.1 2.1-.4 3-.3.9-.7 1.6-1.2 2.3-.5.6-1.2 1.1-2 1.4-.8.3-1.8.5-2.8.5-1.1 0-2-.1-2.8-.4-.8-.3-1.4-.7-2-1.3-.5-.6-.9-1.3-1.2-2.2C.1 9.3 0 8.3 0 7.1c0-1.1.1-2.1.4-3 .3-.9.7-1.6 1.2-2.2.5-.6 1.2-1.1 2-1.4C4.4.2 5.4 0 6.4 0c1 0 1.9.1 2.7.4.8.3 1.4.7 2 1.3.5.6.9 1.3 1.2 2.1.4.9.5 1.9.5 3.1zm-2.9.2c0-.7-.1-1.4-.2-1.9-.1-.6-.3-1.1-.6-1.5-.3-.4-.6-.7-1.1-1-.4-.2-1-.3-1.7-.3s-1.2.1-1.7.4c-.5.3-.8.6-1.1 1-.3.4-.5.9-.6 1.5-.1.6-.2 1.2-.2 1.8 0 .7.1 1.4.2 2 .1.6.3 1.1.6 1.5.3.4.6.7 1.1 1 .4.2 1 .3 1.7.3s1.2-.1 1.7-.4c.5-.3.8-.6 1.1-1 .3-.4.5-.9.6-1.5.2-.7.2-1.3.2-1.9z"/><path id="path19_fill" d="M8.9 9.5c0 .7-.1 1.3-.4 1.9-.3.5-.6 1-1.1 1.3-.5.4-1 .6-1.6.8-.6.2-1.3.3-1.9.3-.5 0-.9 0-1.3-.1s-.8-.2-1.1-.3c-.3-.1-.6-.2-.8-.3-.2-.1-.4-.2-.4-.3-.1-.1-.2-.2-.2-.4S0 12 0 11.7v-.5c0-.1 0-.3.1-.4 0-.1.1-.2.1-.2.1 0 .1-.1.2-.1s.2.1.4.2.4.2.7.4c.3.1.6.3 1 .4.4.1.8.2 1.3.2.3 0 .6 0 .9-.1.3-.1.5-.2.7-.3.2-.1.3-.3.4-.5.1-.2.1-.5.1-.7 0-.3-.1-.6-.2-.8-.2-.2-.4-.4-.7-.6-.3-.2-.6-.3-.9-.5-.3-.2-.7-.3-1.1-.5-.4-.2-.7-.4-1.1-.6-.3-.2-.6-.5-.9-.8-.3-.3-.5-.6-.7-1-.2-.4-.2-.9-.2-1.5s.1-1.2.4-1.7c.2-.5.6-.9 1-1.2.4-.3.9-.6 1.4-.7C3.5 0 4 0 4.7 0c.3 0 .6 0 1 .1.3 0 .6.1.9.2.3.1.5.2.7.3.2.1.4.2.4.3.1.1.1.1.1.2 0 0 0 .1.1.2v1.3c0 .1 0 .3-.1.3 0 .1-.1.2-.1.2s-.1.1-.2.1-.2 0-.4-.1l-.6-.3c-.2-.1-.5-.2-.8-.3-.3-.1-.7-.1-1.1-.1-.3 0-.6 0-.8.1l-.6.3c-.1.1-.3.3-.3.5-.1.2-.1.4-.1.6 0 .3.1.6.2.8.2.2.4.4.7.6.3.2.6.3.9.5.3.2.7.3 1.1.5.4.2.7.4 1.1.6.3.2.7.5.9.8.3.3.5.6.7 1 .4-.2.5.2.5.8z"/><path id="path20_fill" d="M2.8 13.2c0 .1 0 .1-.1.2 0 .1-.1.1-.2.1s-.2.1-.4.1H.7c-.2 0-.3 0-.4-.1-.1 0-.2-.1-.2-.1 0-.1-.1-.1-.1-.2V.4C0 .3 0 .3.1.2.1.1.2.1.3.1S.5 0 .7 0h1.4c.2 0 .3 0 .4.1.1 0 .2.1.2.1 0 .1.1.1.1.2v12.8z"/><path id="path21_fill" d="M11.6 2.1v.5c0 .1 0 .3-.1.3 0 .1-.1.1-.1.2 0 0-.1.1-.2.1s-.2-.1-.4-.2-.5-.3-.8-.4c-.3-.1-.7-.3-1.2-.4-.5-.1-1-.2-1.6-.2-.7 0-1.2.1-1.8.3-.5.2-1 .5-1.4 1-.4.4-.7.9-.9 1.5-.2.6-.3 1.2-.3 1.9 0 .8.1 1.5.3 2 .2.6.5 1.1.9 1.5.4.4.8.7 1.3.9.5.2 1.1.3 1.7.3.3 0 .6 0 .9-.1.3-.1.6-.2.8-.3V7.9H6.1c-.1 0-.2-.1-.3-.2-.1-.2-.1-.4-.1-.8v-.5c0-.1 0-.2.1-.3 0-.1.1-.1.1-.2 0 0 .1-.1.2-.1h4.6c.1 0 .2 0 .3.1.1 0 .2.1.2.2.1.1.1.2.2.3 0 .1.1.2.1.4v5.4c0 .2 0 .4-.1.5-.1.2-.2.3-.4.4-.2.1-.5.2-.8.3-.3.1-.7.2-1 .3-.4.1-.7.1-1.1.2-.4 0-.7.1-1.1.1-1.1 0-2-.2-2.9-.5-.9-.3-1.6-.8-2.2-1.3-.6-.6-1-1.3-1.4-2.2C.2 9.2 0 8.2 0 7.1c0-1.1.2-2.1.5-3 .3-.9.8-1.6 1.4-2.2C2.5 1.3 3.3.8 4.1.5 5 .2 5.9 0 7 0c.6 0 1.1 0 1.6.1s.9.2 1.3.3c.4.1.7.2.9.4.2.1.4.2.5.3.1.1.2.2.2.4.1 0 .1.3.1.6z"/><path id="path22_fill" d="M11.2 8.5c0 .8-.1 1.6-.4 2.2-.2.7-.6 1.2-1.1 1.7-.5.5-1.1.8-1.8 1-.7.2-1.5.4-2.4.4-.8 0-1.6-.1-2.3-.3-.7-.2-1.2-.5-1.7-1-.5-.4-.8-1-1.1-1.6-.2-.6-.4-1.4-.4-2.3V.4C0 .3 0 .3.1.2.1.1.2.1.3.1S.5 0 .7 0h1.4c.2 0 .3 0 .4.1.1 0 .2.1.2.1 0 .1.1.1.1.2v8c0 .5.1 1 .2 1.4.1.4.3.7.6 1 .2.3.5.5.9.6.3.1.7.2 1.2.2.4 0 .8-.1 1.2-.2.3-.1.6-.3.9-.6.2-.3.4-.6.5-.9.1-.4.2-.8.2-1.3V.5c0-.1 0-.1.1-.2 0-.1.1-.1.2-.1s.2-.1.4-.1h1.4c.2 0 .3 0 .4.1.1 0 .2.1.2.1 0 .1.1.1.1.2v8h-.1z"/><path id="path23_fill" d="M12.3 12.7c.1.2.1.4.2.6 0 .1 0 .3-.1.3-.1.1-.2.1-.4.1h-1.6c-.2 0-.3 0-.5-.1-.1 0-.2-.1-.2-.1 0-.1-.1-.1-.1-.2l-.9-2.7H3.6l-.9 2.6c0 .1-.1.2-.1.2 0 .1-.1.1-.2.2-.1 0-.2.1-.4.1H.5c-.2 0-.3-.1-.4-.2-.1-.1-.1-.2-.1-.3 0-.1.1-.3.2-.6L4.4.6c0-.1.1-.2.1-.3.1-.1.1-.1.3-.2.1 0 .3-.1.5-.1h1.9c.2 0 .4 0 .6.1.1 0 .2.1.3.2.1.1.1.2.2.3l4 12.1zM6.1 2.8L4.2 8.5H8L6.1 2.8z"/><path id="path24_fill" d="M7.4 12.4v.5c0 .1 0 .3-.1.4 0 .1-.1.2-.1.2-.1 0-.1.1-.2.1H.8c-.2 0-.4-.1-.6-.2-.2-.1-.2-.4-.2-.7V.4C0 .3 0 .3.1.2.1.1.2.1.3.1S.5 0 .7 0h1.4c.2 0 .3 0 .4.1.1 0 .2.1.2.1 0 .1.1.1.1.2v10.9h4.3c.1 0 .1 0 .2.1.1 0 .1.1.1.2s.1.2.1.3c-.1.1-.1.3-.1.5z"/><path id="path25_fill" d="M2.8 13.2c0 .1 0 .1-.1.2 0 .1-.1.1-.2.1s-.2.1-.4.1H.7c-.2 0-.3 0-.4-.1-.1 0-.2-.1-.2-.1 0-.1-.1-.1-.1-.2V.4C0 .3 0 .3.1.2.1.1.2.1.3.1S.5 0 .7 0h1.4c.2 0 .3 0 .4.1.1 0 .2.1.2.1 0 .1.1.1.1.2v12.8z"/><path id="path26_fill" d="M10.4 1v.5c0 .1 0 .3-.1.3 0 .1-.1.2-.1.2-.1 0-.1.1-.2.1H6.6V13c0 .1 0 .1-.1.2 0 .1-.1.1-.2.1s-.2.1-.4.1H4.5c-.2 0-.3 0-.4-.1-.1 0-.2-.1-.2-.1 0-.1-.1-.1-.1-.2V2.2H.4c-.1 0-.1 0-.2-.1 0 0-.1-.1-.1-.2S0 1.7 0 1.6v-1C0 .5 0 .3.1.3.1.2.2.1.2.1S.3 0 .4 0h9.5c.1 0 .1 0 .2.1.1 0 .1.1.1.2s.1.2.1.3c.1 0 .1.2.1.4z"/><path id="path27_fill" d="M12.3 12.7c.1.2.1.4.2.6 0 .1 0 .3-.1.3-.1.1-.2.1-.4.1h-1.6c-.2 0-.3 0-.5-.1-.1 0-.2-.1-.2-.1 0-.1-.1-.1-.1-.2l-.9-2.7H3.6l-.9 2.6c0 .1-.1.2-.1.2 0 .1-.1.1-.2.2-.1 0-.2.1-.4.1H.5c-.2 0-.3-.1-.4-.2-.1-.1-.1-.2-.1-.3 0-.1.1-.3.2-.6L4.4.6c0-.1.1-.2.1-.3.1-.1.1-.1.3-.2.1 0 .3-.1.5-.1h1.9c.2 0 .4 0 .6.1.1 0 .2.1.3.2.1.1.1.2.2.3l4 12.1zM6.1 2.8L4.2 8.5H8L6.1 2.8z"/><path id="path28_fill" d="M10.1 13.2v.2c0 .1-.1.1-.2.1s-.3.1-.5.1H7.9c-.2 0-.3 0-.4-.1-.1 0-.2-.1-.2-.1 0-.1-.1-.1-.1-.2l-1.2-3c-.1-.3-.3-.6-.4-.9-.1-.3-.3-.5-.5-.7-.2-.2-.4-.3-.6-.4-.2-.1-.5-.1-.8-.1h-.9v5.2c0 .1 0 .1-.1.2 0 .1-.1.1-.2.1s-.2.1-.4.1H.7c-.2 0-.3 0-.4-.1-.1 0-.2-.1-.2-.1 0-.1-.1-.1-.1-.2V.9C0 .6.1.4.2.2.4.1.5 0 .8 0h4.4c.2 0 .4 0 .6.1.5.1 1 .2 1.5.4.4.2.8.4 1.1.7.3.3.5.7.7 1.1.2.4.2.9.2 1.4 0 .5-.1.9-.2 1.2-.1.4-.3.7-.5 1-.2.3-.5.5-.8.8-.3.2-.7.4-1.1.5.2.1.4.2.6.4.2.1.3.3.5.5s.3.4.4.7c.1.3.3.5.4.9l1.1 2.7c.1.3.2.5.2.6.2 0 .2.1.2.2zM6.6 4c0-.4-.1-.8-.3-1.1-.2-.3-.5-.5-1-.6-.1 0-.3-.1-.5-.1H2.9V6h1.4c.4 0 .7 0 1-.1.3-.1.5-.2.7-.4.2-.2.3-.4.4-.6.1-.3.2-.6.2-.9z"/><path id="path29_fill" d="M2.8 13.2c0 .1 0 .1-.1.2 0 .1-.1.1-.2.1s-.2.1-.4.1H.7c-.2 0-.3 0-.4-.1-.1 0-.2-.1-.2-.1 0-.1-.1-.1-.1-.2V.4C0 .3 0 .3.1.2.1.1.2.1.3.1S.5 0 .7 0h1.4c.2 0 .3 0 .4.1.1 0 .2.1.2.1 0 .1.1.1.1.2v12.8z"/><path id="path30_fill" d="M12.8 7c0 1.1-.1 2.1-.4 3-.3.9-.7 1.6-1.2 2.2-.6.6-1.2 1.1-2 1.4-.8.3-1.8.5-2.8.5-1.1 0-2-.1-2.8-.4-.8-.3-1.4-.7-2-1.3-.5-.6-.9-1.3-1.2-2.2C.1 9.3 0 8.3 0 7.1c0-1.1.1-2.1.4-3 .3-.9.7-1.6 1.2-2.2.6-.6 1.2-1.1 2-1.4C4.4.2 5.4 0 6.4 0c1 0 1.9.1 2.7.4.8.3 1.4.7 2 1.3.5.6.9 1.3 1.2 2.1.4 1 .5 2 .5 3.2zm-2.9.2c0-.7-.1-1.4-.2-1.9-.1-.6-.3-1.1-.6-1.5-.3-.4-.6-.7-1.1-1-.4-.2-1-.3-1.7-.3s-1.2.1-1.7.4c-.5.3-.8.6-1.1 1-.3.4-.5.9-.6 1.5-.1.6-.2 1.2-.2 1.8 0 .7.1 1.4.2 2 .1.6.3 1.1.6 1.5.3.4.6.7 1.1 1 .4.2 1 .3 1.7.3s1.2-.1 1.7-.4c.5-.3.8-.6 1.1-1 .3-.4.5-.9.6-1.5.2-.7.2-1.3.2-1.9z"/><path id="path31_fill" d="M8.9 9.6c0 .7-.1 1.3-.4 1.9-.3.5-.6 1-1.1 1.3-.5.4-1 .6-1.6.8-.6.2-1.3.3-1.9.3-.5 0-.9 0-1.3-.1s-.8-.2-1.1-.3c-.3-.1-.6-.2-.8-.3-.2-.1-.4-.2-.4-.3-.1-.1-.2-.2-.2-.4s-.1-.4-.1-.7v-.5c0-.1 0-.3.1-.4 0-.1.1-.2.1-.2.1 0 .1-.1.2-.1s.2.1.4.2.4.2.7.4c.3.1.6.3 1 .4.4.1.8.2 1.3.2.3 0 .6 0 .9-.1.3-.1.5-.2.7-.3.2-.1.3-.3.4-.5.1-.2.1-.5.1-.7 0-.3-.1-.6-.2-.8-.2-.2-.4-.4-.7-.6-.3-.2-.6-.3-.9-.5-.3-.2-.7-.3-1.1-.5-.4-.2-.7-.4-1.1-.6-.3-.2-.6-.5-.9-.8-.3-.3-.5-.6-.7-1.1-.2-.4-.3-.9-.3-1.5s.1-1.2.4-1.7c.2-.5.6-.9 1-1.2.4-.3.9-.6 1.4-.7C3.4 0 3.9 0 4.6 0c.3 0 .6 0 1 .1.3 0 .6.1.9.2.3.1.5.2.7.3.2.1.4.2.4.3.1.1.1.1.1.2 0 0 0 .1.1.2v1.3c0 .1 0 .3-.1.3 0 .1-.1.2-.1.2s-.1.1-.2.1-.2 0-.4-.1l-.6-.3c-.2-.1-.5-.2-.8-.3-.3-.1-.7-.1-1.1-.1-.3 0-.6 0-.8.1l-.6.3c-.2.1-.3.3-.3.5-.1.2-.1.4-.1.6 0 .3.1.6.2.8.2.2.4.4.7.6.3.2.6.3.9.5.3.1.7.3 1.1.5.4.2.7.4 1.1.6.3.2.7.5.9.8.3.3.5.6.7 1 .5-.1.6.3.6.9z"/><path id="path32_fill" d="M3 0H0v116.3h3V0z"/><path id="path33_fill" d="M48.2 28.1c0 5.3-.7 9.9-2.1 13.6-1.4 3.8-3.4 6.9-6 9.3-2.6 2.4-5.8 4.1-9.5 5.3-3.7 1.1-8.2 1.7-13.3 1.7H3.5c-1 0-1.8-.3-2.5-.9-.7-.6-1-1.5-1-2.8V3.7C0 2.4.3 1.4 1 .9 1.7.3 2.5 0 3.5 0h14.9c5.2 0 9.6.6 13.2 1.8 3.6 1.2 6.6 3 9.1 5.4 2.5 2.4 4.3 5.3 5.6 8.8 1.2 3.4 1.9 7.5 1.9 12.1zm-12.2.4c0-2.8-.3-5.3-1-7.7-.7-2.4-1.7-4.4-3.1-6.1-1.4-1.7-3.2-3.1-5.5-4.1-2.2-1-5.1-1.5-8.8-1.5h-6v39.4h6.1c3.2 0 5.9-.4 8.2-1.3 2.2-.8 4.1-2.1 5.5-3.8 1.5-1.7 2.6-3.8 3.3-6.3.9-2.3 1.3-5.3 1.3-8.6z"/><path id="path34_fill" d="M11.8 56.1c0 .3-.1.6-.3.8-.2.2-.5.4-1 .6-.4.1-1 .3-1.8.4-.7.1-1.7.1-2.8.1-1.1 0-2.1 0-2.8-.1-.8-.1-1.4-.2-1.8-.4-.4-.1-.8-.3-1-.6-.2-.2-.3-.5-.3-.8V1.9c0-.3.1-.6.3-.8.2-.2.5-.4 1-.6C1.8.4 2.4.2 3.1.1 3.8 0 4.8 0 5.9 0 7.1 0 8 0 8.7.1c.7.1 1.3.2 1.8.4.4.1.8.3 1 .6.2.2.3.5.3.8v54.2z"/><path id="path35_fill" d="M11.6 1.1c-.2-.2-.5-.4-1-.6-.4-.2-1-.3-1.8-.4C8.1 0 7.1 0 6 0h-.1C4.8 0 3.8 0 3.1.1c-.7.1-1.3.2-1.8.4s-.8.4-1 .6c-.2.2-.3.5-.3.8v19.3c0 .3.1.6.3.8.2.2.5.4 1 .6.4.2 1 .3 1.8.4.7.1 1.7.1 2.8.1H6c1.1 0 2.1 0 2.8-.1.7-.1 1.3-.2 1.8-.4s.8-.4 1-.6c.2-.2.3-.5.3-.8V1.9c0-.3-.1-.6-.3-.8z"/><path id="path36_fill" d="M31.5 0H0v12.5h31.5l6.3-6.2L31.5 0z"/><path id="path37_fill" d="M31.5 0H0v12.5h31.5l6.3-6.2L31.5 0z"/></defs></svg>