<?xml version="1.0" encoding="UTF-8" standalone="no"?>
<svg
   xmlns:dc="http://purl.org/dc/elements/1.1/"
   xmlns:cc="http://creativecommons.org/ns#"
   xmlns:rdf="http://www.w3.org/1999/02/22-rdf-syntax-ns#"
   xmlns:svg="http://www.w3.org/2000/svg"
   xmlns="http://www.w3.org/2000/svg"
   xmlns:xlink="http://www.w3.org/1999/xlink"
   xmlns:sodipodi="http://sodipodi.sourceforge.net/DTD/sodipodi-0.dtd"
   xmlns:inkscape="http://www.inkscape.org/namespaces/inkscape"
   width="180.2494"
   height="78.358147"
   viewBox="0 0 180.24941 78.358147"
   version="1.1"
   id="svg237"
   sodipodi:docname="logo-color.svg"
   inkscape:version="0.92.1 unknown">
  <metadata
     id="metadata241">
    <rdf:RDF>
      <cc:Work
         rdf:about="">
        <dc:format>image/svg+xml</dc:format>
        <dc:type
           rdf:resource="http://purl.org/dc/dcmitype/StillImage" />
        <dc:title>LOGO FDI</dc:title>
      </cc:Work>
    </rdf:RDF>
  </metadata>
  <sodipodi:namedview
     pagecolor="#ffffff"
     bordercolor="#666666"
     borderopacity="1"
     objecttolerance="10"
     gridtolerance="10"
     guidetolerance="10"
     inkscape:pageopacity="0"
     inkscape:pageshadow="2"
     inkscape:window-width="1920"
     inkscape:window-height="1027"
     id="namedview239"
     showgrid="false"
     fit-margin-top="0"
     fit-margin-left="0"
     fit-margin-right="0"
     fit-margin-bottom="0"
     inkscape:zoom="5.3916892"
     inkscape:cx="77.682413"
     inkscape:cy="21.129955"
     inkscape:window-x="0"
     inkscape:window-y="0"
     inkscape:window-maximized="1"
     inkscape:current-layer="svg237" />
  <title
     id="title2">LOGO FDI</title>
  <desc
     id="desc4">Created using Figma</desc>
  <g
     id="Canvas"
     transform="matrix(1.2605677,0,0,1.2605677,62250.993,34526.445)">
    <clipPath
       id="clip-0"
       style="clip-rule:evenodd">
      <path
         d="m -49402,-27402 h 180 v 87 h -180 z"
         id="path6"
         inkscape:connector-curvature="0"
         style="fill:#ffffff" />
    </clipPath>
    <g
       id="LOGO FDI"
       clip-path="url(#clip-0)">
      <g
         id="g191">
        <g
           id="g189">
          <g
             id="g137">
            <g
               id="Group">
              <g
                 id="Vector">
                <use
                   xlink:href="#path0_fill"
                   transform="translate(-49309.6,-27374)"
                   id="use9"
                   style="fill:#808285"
                   x="0"
                   y="0"
                   width="100%"
                   height="100%" />
              </g>
              <g
                 id="g14">
                <use
                   xlink:href="#path1_fill"
                   transform="translate(-49304.2,-27374)"
                   id="use12"
                   style="fill:#808285"
                   x="0"
                   y="0"
                   width="100%"
                   height="100%" />
              </g>
              <g
                 id="g18">
                <use
                   xlink:href="#path2_fill"
                   transform="translate(-49297.6,-27374)"
                   id="use16"
                   style="fill:#808285"
                   x="0"
                   y="0"
                   width="100%"
                   height="100%" />
              </g>
              <g
                 id="g22">
                <use
                   xlink:href="#path3_fill"
                   transform="translate(-49291.9,-27373.9)"
                   id="use20"
                   style="fill:#808285"
                   x="0"
                   y="0"
                   width="100%"
                   height="100%" />
              </g>
              <g
                 id="g26">
                <use
                   xlink:href="#path4_fill"
                   transform="translate(-49285,-27374)"
                   id="use24"
                   style="fill:#808285"
                   x="0"
                   y="0"
                   width="100%"
                   height="100%" />
              </g>
              <g
                 id="g30">
                <use
                   xlink:href="#path5_fill"
                   transform="translate(-49278.4,-27374)"
                   id="use28"
                   style="fill:#808285"
                   x="0"
                   y="0"
                   width="100%"
                   height="100%" />
              </g>
              <g
                 id="g34">
                <use
                   xlink:href="#path6_fill"
                   transform="translate(-49270,-27373.9)"
                   id="use32"
                   style="fill:#808285"
                   x="0"
                   y="0"
                   width="100%"
                   height="100%" />
              </g>
              <g
                 id="g38">
                <use
                   xlink:href="#path7_fill"
                   transform="translate(-49264,-27374.1)"
                   id="use36"
                   style="fill:#808285"
                   x="0"
                   y="0"
                   width="100%"
                   height="100%" />
              </g>
              <g
                 id="g42">
                <use
                   xlink:href="#path8_fill"
                   transform="translate(-49255.8,-27374)"
                   id="use40"
                   style="fill:#808285"
                   x="0"
                   y="0"
                   width="100%"
                   height="100%" />
              </g>
              <g
                 id="g46">
                <use
                   xlink:href="#path9_fill"
                   transform="translate(-49309.6,-27362.1)"
                   id="use44"
                   style="fill:#808285"
                   x="0"
                   y="0"
                   width="100%"
                   height="100%" />
              </g>
              <g
                 id="g50">
                <use
                   xlink:href="#path10_fill"
                   transform="translate(-49305.4,-27362.2)"
                   id="use48"
                   style="fill:#808285"
                   x="0"
                   y="0"
                   width="100%"
                   height="100%" />
              </g>
              <g
                 id="g54">
                <use
                   xlink:href="#path11_fill"
                   transform="translate(-49298,-27362.1)"
                   id="use52"
                   style="fill:#808285"
                   x="0"
                   y="0"
                   width="100%"
                   height="100%" />
              </g>
              <g
                 id="g58">
                <use
                   xlink:href="#path12_fill"
                   transform="translate(-49289.7,-27362.1)"
                   id="use56"
                   style="fill:#808285"
                   x="0"
                   y="0"
                   width="100%"
                   height="100%" />
              </g>
              <g
                 id="g62">
                <use
                   xlink:href="#path13_fill"
                   transform="translate(-49282.6,-27362.1)"
                   id="use60"
                   style="fill:#808285"
                   x="0"
                   y="0"
                   width="100%"
                   height="100%" />
              </g>
              <g
                 id="g66">
                <use
                   xlink:href="#path14_fill"
                   transform="translate(-49277.1,-27362.1)"
                   id="use64"
                   style="fill:#808285"
                   x="0"
                   y="0"
                   width="100%"
                   height="100%" />
              </g>
              <g
                 id="g70">
                <use
                   xlink:href="#path13_fill"
                   transform="translate(-49270.7,-27362.1)"
                   id="use68"
                   style="fill:#808285"
                   x="0"
                   y="0"
                   width="100%"
                   height="100%" />
              </g>
              <g
                 id="g74">
                <use
                   xlink:href="#path15_fill"
                   transform="translate(-49265.7,-27362.2)"
                   id="use72"
                   style="fill:#808285"
                   x="0"
                   y="0"
                   width="100%"
                   height="100%" />
              </g>
              <g
                 id="g78">
                <use
                   xlink:href="#path16_fill"
                   transform="translate(-49259.6,-27362.1)"
                   id="use76"
                   style="fill:#808285"
                   x="0"
                   y="0"
                   width="100%"
                   height="100%" />
              </g>
              <g
                 id="g82">
                <use
                   xlink:href="#path17_fill"
                   transform="translate(-49252.7,-27362.2)"
                   id="use80"
                   style="fill:#808285"
                   x="0"
                   y="0"
                   width="100%"
                   height="100%" />
              </g>
              <g
                 id="g86">
                <use
                   xlink:href="#path18_fill"
                   transform="translate(-49245.1,-27362.1)"
                   id="use84"
                   style="fill:#808285"
                   x="0"
                   y="0"
                   width="100%"
                   height="100%" />
              </g>
              <g
                 id="g90">
                <use
                   xlink:href="#path19_fill"
                   transform="translate(-49309.7,-27350.1)"
                   id="use88"
                   style="fill:#808285"
                   x="0"
                   y="0"
                   width="100%"
                   height="100%" />
              </g>
              <g
                 id="g94">
                <use
                   xlink:href="#path20_fill"
                   transform="translate(-49306.7,-27350.1)"
                   id="use92"
                   style="fill:#808285"
                   x="0"
                   y="0"
                   width="100%"
                   height="100%" />
              </g>
              <g
                 id="g98">
                <use
                   xlink:href="#path21_fill"
                   transform="translate(-49298.7,-27350.1)"
                   id="use96"
                   style="fill:#808285"
                   x="0"
                   y="0"
                   width="100%"
                   height="100%" />
              </g>
              <g
                 id="g102">
                <use
                   xlink:href="#path22_fill"
                   transform="translate(-49291.8,-27350.2)"
                   id="use100"
                   style="fill:#808285"
                   x="0"
                   y="0"
                   width="100%"
                   height="100%" />
              </g>
              <g
                 id="g106">
                <use
                   xlink:href="#path23_fill"
                   transform="translate(-49283.9,-27350.1)"
                   id="use104"
                   style="fill:#808285"
                   x="0"
                   y="0"
                   width="100%"
                   height="100%" />
              </g>
              <g
                 id="g110">
                <use
                   xlink:href="#path24_fill"
                   transform="translate(-49278.7,-27350.1)"
                   id="use108"
                   style="fill:#808285"
                   x="0"
                   y="0"
                   width="100%"
                   height="100%" />
              </g>
              <g
                 id="g114">
                <use
                   xlink:href="#path25_fill"
                   transform="translate(-49276,-27350.1)"
                   id="use112"
                   style="fill:#808285"
                   x="0"
                   y="0"
                   width="100%"
                   height="100%" />
              </g>
              <g
                 id="g118">
                <use
                   xlink:href="#path26_fill"
                   transform="translate(-49270.9,-27350.2)"
                   id="use116"
                   style="fill:#808285"
                   x="0"
                   y="0"
                   width="100%"
                   height="100%" />
              </g>
              <g
                 id="g122">
                <use
                   xlink:href="#path27_fill"
                   transform="translate(-49263,-27350.1)"
                   id="use120"
                   style="fill:#808285"
                   x="0"
                   y="0"
                   width="100%"
                   height="100%" />
              </g>
              <g
                 id="g126">
                <use
                   xlink:href="#path28_fill"
                   transform="translate(-49256.2,-27350.1)"
                   id="use124"
                   style="fill:#808285"
                   x="0"
                   y="0"
                   width="100%"
                   height="100%" />
              </g>
              <g
                 id="g130">
                <use
                   xlink:href="#path29_fill"
                   transform="translate(-49253.1,-27350.3)"
                   id="use128"
                   style="fill:#808285"
                   x="0"
                   y="0"
                   width="100%"
                   height="100%" />
              </g>
              <g
                 id="g134">
                <use
                   xlink:href="#path30_fill"
                   transform="translate(-49245.1,-27350.1)"
                   id="use132"
                   style="fill:#808285"
                   x="0"
                   y="0"
                   width="100%"
                   height="100%" />
              </g>
            </g>
          </g>
          <g
             id="g163">
            <g
               id="g141">
              <use
                 xlink:href="#path31_fill"
                 transform="translate(-49317.5,-27389.6)"
                 id="use139"
                 style="fill:#e31f26"
                 x="0"
                 y="0"
                 width="100%"
                 height="100%" />
            </g>
            <g
               id="g145">
              <use
                 xlink:href="#path32_fill"
                 transform="translate(-49317.5,-27379.2)"
                 id="use143"
                 style="fill:#f7941e"
                 x="0"
                 y="0"
                 width="100%"
                 height="100%" />
            </g>
            <g
               id="g149">
              <use
                 xlink:href="#path33_fill"
                 transform="translate(-49317.5,-27368.8)"
                 id="use147"
                 style="fill:#f9ec00"
                 x="0"
                 y="0"
                 width="100%"
                 height="100%" />
            </g>
            <g
               id="g153">
              <use
                 xlink:href="#path31_fill"
                 transform="translate(-49317.5,-27358.5)"
                 id="use151"
                 style="fill:#289048"
                 x="0"
                 y="0"
                 width="100%"
                 height="100%" />
            </g>
            <g
               id="g157">
              <use
                 xlink:href="#path32_fill"
                 transform="translate(-49317.5,-27348.2)"
                 id="use155"
                 style="fill:#3069b3"
                 x="0"
                 y="0"
                 width="100%"
                 height="100%" />
            </g>
            <g
               id="g161">
              <use
                 xlink:href="#path34_fill"
                 transform="translate(-49317.5,-27337.8)"
                 id="use159"
                 style="fill:#6f2c91"
                 x="0"
                 y="0"
                 width="100%"
                 height="100%" />
            </g>
          </g>
          <g
             id="g187">
            <g
               id="g167">
              <use
                 xlink:href="#path35_fill"
                 transform="translate(-49359.4,-27374)"
                 id="use165"
                 style="fill:#ffc233"
                 x="0"
                 y="0"
                 width="100%"
                 height="100%" />
            </g>
            <g
               id="g171">
              <use
                 xlink:href="#path36_fill"
                 transform="translate(-49330,-27374)"
                 id="use169"
                 style="fill:#ffc233"
                 x="0"
                 y="0"
                 width="100%"
                 height="100%" />
            </g>
            <g
               id="g185">
              <g
                 id="g175">
                <use
                   xlink:href="#path37_fill"
                   transform="translate(-49383.3,-27355.4)"
                   id="use173"
                   style="fill:#ffc233"
                   x="0"
                   y="0"
                   width="100%"
                   height="100%" />
              </g>
              <g
                 id="g179">
                <use
                   xlink:href="#path38_fill"
                   transform="translate(-49383.2,-27374)"
                   id="use177"
                   style="fill:#9f2065"
                   x="0"
                   y="0"
                   width="100%"
                   height="100%" />
              </g>
              <g
                 id="g183">
                <use
                   xlink:href="#path39_fill"
                   transform="translate(-49383.2,-27364.8)"
                   id="use181"
                   style="fill:#9f2065"
                   x="0"
                   y="0"
                   width="100%"
                   height="100%" />
              </g>
            </g>
          </g>
        </g>
      </g>
    </g>
  </g>
  <defs
     id="defs235">
    <path
       id="path0_fill"
       d="m 4.09091,0.587476 c 0,0.106814 0,0.213628 0,0.267035 0,0.053407 0,0.160219 -0.05383,0.160219 0,0.05341 -0.05383,0.05341 -0.05383,0.10682 0,0 -0.05382,0.0534 -0.10765,0.0534 H 1.50717 v 1.92266 h 2.20694 c 0.05383,0 0.05383,0 0.10766,0.0534 0,0 0.05383,0.05341 0.05383,0.10682 0,0.0534 0.05382,0.10681 0.05382,0.16022 0,0.05341 0,0.16022 0,0.26703 0,0.10682 0,0.21363 0,0.26704 0,0.05341 1e-5,0.16022 -0.05382,0.16022 0,0.05341 -0.05383,0.10681 -0.05383,0.10681 0,0 -0.05383,0.05341 -0.10766,0.05341 H 1.50717 v 2.67035 c 0,0.05341 1e-5,0.05341 -0.05382,0.10681 0,0.05341 -0.05383,0.05341 -0.10765,0.05341 -0.05383,0 -0.10766,0.05341 -0.21532,0.05341 -0.10765,0 -0.215308,0 -0.376792,0 -0.161483,0 -0.269137,0 -0.376792,0 -0.107656,0 -0.161488,-0.05341 -0.215316,-0.05341 -0.053828,0 -0.1076539,-0.05341 -0.1076539,-0.05341 0,-0.0534 -0.05382281461,-0.0534 -0.05382281461,-0.10681 V 0.480664 C 3.28539e-6,0.320443 0.0538294,0.213628 0.107657,0.106814 0.215313,0.0534074 0.322963,0 0.430619,0 H 3.8756 c 0.05383,0 0.05383,-8.15722e-7 0.10765,0.0534062 0,0 0.05383,0.0534078 0.05383,0.1068148 0,0.053407 0.05383,0.106814 0.05383,0.213628 0,0.053407 0,0.106813 0,0.213627 z"
       inkscape:connector-curvature="0" />
    <path
       id="path1_fill"
       d="m 5.4366,7.04972 c 0,0.05341 0,0.05341 0,0.10682 0,0.05341 -0.05383,0.05341 -0.10765,0.05341 -0.05383,0 -0.16149,0.0534 -0.26914,0.0534 -0.10766,0 -0.26914,0 -0.43063,0 -0.16148,0 -0.26913,0 -0.37679,0 -0.10765,0 -0.16148,0 -0.21531,-0.0534 -0.05382,0 -0.10766,-0.05341 -0.10766,-0.05341 0,-0.05341 -0.05382,-0.05341 -0.05382,-0.10682 L 3.22967,5.44751 C 3.17584,5.28729 3.06818,5.12707 3.01435,4.96685 2.96052,4.80663 2.85287,4.69982 2.74521,4.593 2.63756,4.48619 2.52991,4.43278 2.42225,4.37937 2.3146,4.32597 2.15311,4.32597 1.99163,4.32597 H 1.50717 v 2.77716 c 0,0.05341 1e-5,0.05341 -0.05382,0.10682 0,0.0534 -0.05383,0.0534 -0.10765,0.0534 -0.05383,0 -0.10766,0.05341 -0.21532,0.05341 -0.10765,0 -0.215308,0 -0.376791,0 -0.161484,0 -0.269138,0 -0.376793,0 -0.107656,0 -0.161488,0 -0.215316,-0.05341 -0.053828,0 -0.1076539,-0.0534 -0.1076539,-0.0534 C 0.0538261,7.15654 3.28539e-6,7.15654 3.28539e-6,7.10313 V 0.480664 C 3.28539e-6,0.320443 0.0538294,0.213628 0.107657,0.106814 0.215313,0.0534074 0.269135,0 0.430619,0 H 2.31459 C 2.5299,0 2.63756,0 2.79904,0 2.9067,0 3.01435,-8.15722e-7 3.12201,0.0534062 3.39115,0.106813 3.66028,0.160221 3.92942,0.267035 4.14473,0.373849 4.36005,0.480663 4.52153,0.640884 4.68301,0.801105 4.79067,1.01473 4.89832,1.22836 c 0.10766,0.21363 0.10766,0.48066 0.10766,0.7477 0,0.26703 -0.05383,0.48066 -0.10766,0.64088 C 4.8445,2.83057 4.73684,2.99079 4.62918,3.15101 4.52153,3.31123 4.36004,3.41805 4.19856,3.57827 4.03708,3.68508 3.82177,3.7919 3.60646,3.8453 3.71412,3.89871 3.82177,3.95212 3.92942,4.05893 4.03708,4.11234 4.09091,4.21915 4.19856,4.32597 4.30622,4.43278 4.36005,4.53959 4.41388,4.69982 4.4677,4.86004 4.57536,4.96685 4.62918,5.18048 l 0.59211,1.44199 c 0.05383,0.16022 0.10766,0.26703 0.10766,0.32044 0.05382,0 0.10765,0.05341 0.10765,0.10681 z M 3.49881,2.13628 C 3.49881,1.92265 3.44498,1.70902 3.33732,1.5488 3.22967,1.38858 3.06818,1.28177 2.79904,1.22836 c -0.05382,0 -0.16148,-0.05341 -0.26913,-0.05341 -0.10766,0 -0.21531,0 -0.3768,0 H 1.50717 v 2.02947 h 0.7536 c 0.21531,0 0.37679,0 0.53827,-0.05341 C 2.96053,3.09761 3.06818,3.0442 3.17584,2.93739 3.28349,2.83057 3.33732,2.72376 3.39115,2.61694 3.4988,2.45672 3.49881,2.2965 3.49881,2.13628 Z"
       inkscape:connector-curvature="0" />
    <path
       id="path2_fill"
       d="m 4.30622,6.67588 c 0,0.10681 0,0.21362 0,0.26703 0,0.05341 0,0.10682 -0.05383,0.16022 0,0.05341 -0.05383,0.05341 -0.05383,0.10682 -0.05382,0 -0.05382,0.0534 -0.10765,0.0534 H 0.43062 C 0.322965,7.26335 0.215314,7.20995 0.107659,7.15654 3.28057e-6,7.10313 -3.28539e-6,6.94291 -3.28539e-6,6.78269 V 0.480664 C -3.28539e-6,0.320443 0.053831,0.213628 0.107659,0.106814 0.215314,0.0534074 0.269137,0 0.43062,0 h 3.60646 c 0.05383,0 0.05383,-8.15722e-7 0.10766,0.0534062 0,0 0.05382,0.0534078 0.05382,0.1068148 0,0.053407 0.05383,0.106813 0.05383,0.16022 0,0.053407 0,0.160221 0,0.267035 0,0.106814 0,0.213628 0,0.267035 0,0.053407 0,0.106816 -0.05383,0.160219 0,0.05341 -0.05382,0.05341 -0.05382,0.10682 0,0 -0.05383,0.0534 -0.10766,0.0534 H 1.45335 v 1.76244 h 2.20694 c 0.05382,0 0.05382,-1e-5 0.10765,0.0534 0.05383,0 0.05383,0.05341 0.05383,0.10682 0,0.0534 0.05383,0.10681 0.05383,0.16022 0,0.0534 0,0.16022 0,0.26703 0,0.10682 0,0.21363 0,0.26704 0,0.0534 0,0.10681 -0.05383,0.16022 0,0.05341 -0.05383,0.0534 -0.05383,0.10681 -0.05383,0 -0.05383,0.05341 -0.10765,0.05341 H 1.45335 v 2.02947 h 2.63756 c 0.05383,0 0.05383,-1e-5 0.10765,0.0534 0.05383,0 0.05383,0.05341 0.05383,0.10682 0,0.0534 0.05383,0.10681 0.05383,0.16022 0,0 0,0.10681 0,0.21363 z"
       inkscape:connector-curvature="0" />
    <path
       id="path3_fill"
       d="m 6.02871,6.67587 c 0,0.10682 0,0.16023 -0.05383,0.21363 -0.05382,0.05341 -0.05383,0.10682 -0.10766,0.16023 -0.05383,0.0534 -0.10765,0.0534 -0.16148,0.10681 -0.05382,0 -0.16148,0.0534 -0.21531,0.0534 H 4.8445 c -0.10766,0 -0.26914,0 -0.32297,-0.0534 -0.10766,0 -0.16149,-0.05341 -0.26914,-0.16022 C 4.19856,6.94291 4.09091,6.83609 4.03708,6.72928 3.98325,6.62247 3.8756,6.46225 3.76794,6.24862 L 1.9378,2.88398 C 1.83015,2.67035 1.72249,2.45672 1.61483,2.24309 1.50718,2.02947 1.39952,1.76243 1.34569,1.5488 c 0,0.26704 10e-6,0.53407 0.05383,0.80111 0,0.26703 0,0.53407 0,0.8011 v 3.7919 c 0,0.05341 0,0.05341 -0.05383,0.10682 0,0.0534 -0.05382,0.0534 -0.10765,0.0534 -0.05383,0 -0.10766,0.05341 -0.21532,0.05341 -0.107652,0 -0.215302,0 -0.322958,0 -0.107655,0 -0.215314,0 -0.322969,0 -0.107656,0 -0.16148,-0.05341 -0.215308,-0.05341 -0.053828,0 -0.107654,-0.0534 -0.107654,-0.0534 C 0.053831,6.99632 0,6.99632 0,6.94291 V 0.480663 C 0,0.320442 0.0538294,0.160221 0.161485,0.106814 0.26914,-4.05871e-7 0.376794,-8.14926e-7 0.538278,-8.14926e-7 H 1.34569 c 0.16149,0 0.26914,1.220797e-6 0.3768,0.053408214926 0.10765,0 0.16148,0.0534076 0.26914,0.1068146 0.05382,0.053407 0.16148,0.106813 0.21531,0.213627 0.05383,0.106814 0.16148,0.213628 0.21531,0.373849 L 3.82177,3.36464 c 0.10766,0.16022 0.16149,0.32044 0.26914,0.48066 0.10766,0.16022 0.16148,0.32045 0.21531,0.48067 0.05383,0.16022 0.16148,0.32044 0.21531,0.48066 0.05383,0.16022 0.16149,0.32044 0.21531,0.42726 0,-0.26704 0,-0.53407 0,-0.80111 0,-0.26703 0,-0.53407 0,-0.8011 V 0.267034 c 0,-0.053407 0,-0.053405 0.05383,-0.106812 0,-0.053407 0.05383,-0.053408 0.10766,-0.053408 0.05383,0 0.10765,-0.0534066 0.21531,-0.0534066 0.10765,0 0.21531,0 0.32297,0 0.10765,0 0.2153,0 0.32296,0 0.10765,0 0.16149,-8e-7 0.21531,0.0534066 0.05383,0 0.05383,0.053408 0.10766,0.053408 0,0.053407 0.05382,0.053405 0.05382,0.106812 V 6.67587 Z"
       inkscape:connector-curvature="0" />
    <path
       id="path4_fill"
       d="m 5.59809,0.587476 c 0,0.106814 0,0.213628 0,0.267035 0,0.053407 -10e-6,0.160219 -0.05383,0.160219 0,0.05341 -0.05383,0.10682 -0.05383,0.10682 -0.05382,0 -0.05383,0.0534 -0.10766,0.0534 H 3.55263 v 5.82137 c 0,0.0534 0,0.05341 -0.05383,0.10681 0,0.05341 -0.05383,0.05341 -0.10765,0.05341 -0.05383,0 -0.10766,0.05341 -0.21531,0.05341 -0.10766,0 -0.21531,0 -0.37679,0 -0.16149,0 -0.26915,0 -0.3768,0 -0.10766,0 -0.16148,0 -0.21531,-0.05341 -0.05383,0 -0.10766,-0.05341 -0.10766,-0.05341 0,-0.0534 -0.05383,-0.05341 -0.05383,-0.10681 V 1.22836 H 0.215313 c -0.053828,0 -0.053826,0 -0.107654,-0.05341 0,0 -0.0538312,-0.0534 -0.0538312,-0.10681 0,-0.05341 -0.05383108539,-0.106814 -0.05383108539,-0.160221 0,-0.053407 0,-0.160221 0,-0.267035 0,-0.106814 0,-0.213628 0,-0.267035 C -3.28539e-6,0.320442 0,0.213628 0.0538278,0.160221 0.0538278,0.106814 0.107659,0.106813 0.107659,0.0534062 0.107659,0.0534062 0.161485,0 0.215313,0 H 5.32895 c 0.05383,0 0.05383,-8.15722e-7 0.10765,0.0534062 0.05383,0 0.05383,0.0534078 0.05383,0.1068148 0,0.053407 0.05383,0.106814 0.05383,0.213628 0.05382,0.053407 0.05383,0.106813 0.05383,0.213627 z"
       inkscape:connector-curvature="0" />
    <path
       id="path5_fill"
       d="m 4.30622,6.67588 c 0,0.10681 0,0.21362 0,0.26703 0,0.05341 0,0.10682 -0.05382,0.16022 0,0.05341 -0.05384,0.05341 -0.05384,0.10682 -0.05382,0 -0.05382,0.0534 -0.10765,0.0534 H 0.430622 c -0.107655,0 -0.215314,-0.0534 -0.32297,-0.10681 C -3.28859e-6,7.10313 -1.64269e-6,6.94291 -1.64269e-6,6.78269 V 0.480664 C -1.64269e-6,0.320443 0.0538245,0.213628 0.107652,0.106814 0.215308,0.0534074 0.322967,0 0.430622,0 H 4.09091 c 0.05383,0 0.05383,-8.15722e-7 0.10765,0.0534062 0,0 0.05384,0.0534078 0.05384,0.1068148 0,0.053407 0.05382,0.106813 0.05382,0.16022 0,0.053407 0,0.160221 0,0.267035 0,0.106814 0,0.213628 0,0.267035 0,0.053407 0,0.106816 -0.05382,0.160219 0,0.05341 -0.05384,0.05341 -0.05384,0.10682 0,0 -0.05382,0.0534 -0.10765,0.0534 H 1.50718 v 1.76244 h 2.20694 c 0.05383,0 0.05382,-1e-5 0.10765,0.0534 0.05383,0 0.05383,0.05341 0.05383,0.10682 0,0.0534 0.05383,0.10681 0.05383,0.16022 0,0.0534 0,0.16022 0,0.26703 0,0.10682 0,0.21363 0,0.26704 0,0.0534 -1e-5,0.10681 -0.05383,0.16022 0,0.05341 -0.05383,0.0534 -0.05383,0.10681 -0.05383,0 -0.05382,0.05341 -0.10765,0.05341 H 1.50718 v 2.02947 h 2.63755 c 0.05383,0 0.05384,-1e-5 0.10767,0.0534 0.05382,0 0.05382,0.05341 0.05382,0.10682 0,0.0534 0.05383,0.10681 0.05383,0.16022 -0.05383,0 -0.05383,0.10681 -0.05383,0.21363 z"
       inkscape:connector-curvature="0" />
    <path
       id="path6_fill"
       d="m 5.00598,2.13628 c 0,0.42726 -0.05383,0.7477 -0.21531,1.06814 C 4.68301,3.52486 4.4677,3.7919 4.25239,4.00552 3.98325,4.21915 3.71411,4.37937 3.33732,4.48619 2.96053,4.593 2.58373,4.64641 2.09928,4.64641 h -0.5921 v 2.2965 c 0,0.05341 0,0.05341 -0.05383,0.10682 0,0.0534 -0.05383,0.0534 -0.10765,0.0534 -0.05383,0 -0.10766,0.05341 -0.21532,0.05341 -0.10766,0 -0.21531,0 -0.376793,0 -0.161483,0 -0.269137,0 -0.376793,0 -0.107655,0 -0.16148,0 -0.215307,-0.05341 -0.053828,0 -0.1076625,-0.0534 -0.1076625,-0.0534 C 0.0538245,6.99632 1.64269e-6,6.99632 1.64269e-6,6.94291 V 0.480663 C 1.64269e-6,0.320442 0.053831,0.160221 0.161487,0.106814 0.269142,-4.05871e-7 0.376796,-8.14926e-7 0.538279,-8.14926e-7 H 2.26077 c 0.16148,0 0.32296,0 0.48444,0 C 2.9067,-8.14926e-7 3.06818,0.0534066 3.28349,0.106814 3.4988,0.160221 3.71412,0.213628 3.92943,0.320442 4.14474,0.427256 4.36005,0.587477 4.52153,0.747698 4.68301,0.907919 4.79067,1.12155 4.89832,1.38858 4.95215,1.60221 5.00598,1.86924 5.00598,2.13628 Z M 3.44497,2.24309 C 3.44497,1.97606 3.39114,1.76243 3.28349,1.60221 3.17583,1.44199 3.06818,1.33518 2.96053,1.22836 2.85287,1.17495 2.69139,1.12155 2.5299,1.06814 2.36842,1.06814 2.26076,1.01473 2.09928,1.01473 H 1.45335 v 2.45672 h 0.64593 c 0.21531,0 0.43063,-0.0534 0.59211,-0.10681 C 2.85287,3.31123 2.96053,3.20442 3.06818,3.09761 3.17584,2.99079 3.22966,2.83057 3.28349,2.67035 3.44497,2.61694 3.44497,2.45672 3.44497,2.24309 Z"
       inkscape:connector-curvature="0" />
    <path
       id="path7_fill"
       d="m 6.88996,3.68508 c 0,0.58748 -0.05383,1.12155 -0.21531,1.60221 C 6.51316,5.76796 6.29785,6.14181 6.02871,6.51566 5.75957,6.8361 5.38277,7.10313 4.95215,7.26335 4.52153,7.42357 3.98326,7.53039 3.44498,7.53039 2.85288,7.53039 2.36842,7.47698 1.9378,7.31676 1.50717,7.15654 1.18421,6.94291 0.861241,6.62247 0.592102,6.30203 0.376801,5.92818 0.215318,5.44752 0.0538343,4.96685 -6.57077e-6,4.43278 -6.57077e-6,3.7919 -6.57077e-6,3.20442 0.0538343,2.67035 0.215318,2.18969 0.376801,1.70902 0.592102,1.33517 0.861241,1.01473 1.13038,0.69429 1.50717,0.427256 1.9378,0.267035 2.36842,0.106814 2.90671,4.07463e-7 3.44498,4.07463e-7 3.98326,4.07463e-7 4.4677,0.0534062 4.89832,0.213627 5.32894,0.373848 5.65191,0.587478 5.97488,0.90792 6.24402,1.22836 6.45933,1.60221 6.62082,2.02947 6.83613,2.51013 6.88996,3.09761 6.88996,3.68508 Z M 5.32895,3.7919 C 5.32895,3.41805 5.27512,3.0442 5.22129,2.77716 5.16746,2.45672 5.05981,2.18969 4.89832,1.97606 4.73684,1.76243 4.57535,1.60221 4.30621,1.44199 4.0909,1.33518 3.76795,1.28177 3.39115,1.28177 3.01436,1.28177 2.74521,1.33518 2.47607,1.4954 2.20693,1.65562 2.04545,1.81584 1.88396,2.02947 1.72248,2.24309 1.61484,2.51013 1.56101,2.83057 1.50718,3.15101 1.45335,3.47145 1.45335,3.7919 c 0,0.37385 0.05383,0.74769 0.10766,1.06814 0.05383,0.32044 0.16147,0.58747 0.32295,0.8011 0.16149,0.21363 0.32297,0.37385 0.59211,0.53407 0.21531,0.10682 0.53829,0.16022 0.91508,0.16022 0.3768,0 0.64592,-0.0534 0.91506,-0.21362 C 4.57535,5.98158 4.73684,5.82136 4.89832,5.60774 5.05981,5.39411 5.16746,5.12707 5.22129,4.80663 5.32895,4.43278 5.32895,4.11234 5.32895,3.7919 Z"
       inkscape:connector-curvature="0" />
    <path
       id="path8_fill"
       d="m 5.43661,7.04972 c 0,0.05341 0,0.05341 0,0.10682 0,0.05341 -0.05384,0.05341 -0.10766,0.05341 -0.05383,0 -0.16149,0.0534 -0.26914,0.0534 -0.10766,0 -0.26913,0 -0.43062,0 -0.16148,0 -0.26914,0 -0.3768,0 -0.10765,0 -0.16148,0 -0.21531,-0.0534 -0.05382,0 -0.10766,-0.05341 -0.10766,-0.05341 0,-0.05341 -0.05383,-0.05341 -0.05383,-0.10682 L 3.22967,5.44751 C 3.17584,5.28729 3.06819,5.12707 3.01436,4.96685 2.96053,4.80663 2.85288,4.69982 2.74522,4.593 2.63757,4.48619 2.52991,4.43278 2.42225,4.37937 2.3146,4.32597 2.1531,4.32597 1.99162,4.32597 H 1.50717 v 2.77716 c 0,0.05341 0,0.05341 -0.05383,0.10682 0,0.0534 -0.05382,0.0534 -0.10764,0.0534 -0.05383,0 -0.10766,0.05341 -0.21531,0.05341 -0.10766,0 -0.215318,0 -0.376801,0 -0.161484,0 -0.269146,0 -0.376801,0 -0.107656,0 -0.16148,0 -0.215308,-0.05341 -0.053828,0 -0.1076457,-0.0534 -0.1076457,-0.0534 C 0.0538343,7.15654 3.28539e-6,7.15654 3.28539e-6,7.10313 V 0.480664 C 3.28539e-6,0.320443 0.0538212,0.213628 0.107649,0.106814 0.215304,0.0534074 0.322963,0 0.430619,0 H 2.31459 C 2.5299,0 2.63755,0 2.79904,0 2.90669,0 3.01435,-8.15722e-7 3.12201,0.0534062 3.39115,0.106813 3.66028,0.160221 3.92942,0.267035 4.14473,0.373849 4.36005,0.480663 4.52153,0.640884 4.68301,0.801105 4.79068,1.01473 4.89833,1.22836 c 0.10766,0.21363 0.10765,0.48066 0.10765,0.7477 0,0.26703 -0.05382,0.48066 -0.10765,0.64088 C 4.8445,2.83057 4.73685,2.99079 4.62919,3.15101 4.52154,3.31123 4.36004,3.41805 4.19856,3.57827 4.03708,3.68508 3.82176,3.7919 3.60645,3.8453 3.71411,3.89871 3.82177,3.95212 3.92942,4.05893 4.03708,4.11234 4.09091,4.21915 4.19856,4.32597 4.30622,4.43278 4.36004,4.53959 4.41387,4.69982 4.4677,4.86004 4.57537,4.96685 4.62919,5.18048 l 0.5921,1.44199 c 0.05382,0.16022 0.10766,0.26703 0.10766,0.32044 0.10765,0 0.10766,0.05341 0.10766,0.10681 z M 3.49881,2.13628 C 3.49881,1.92265 3.44497,1.70902 3.33731,1.5488 3.22966,1.38858 3.06818,1.28177 2.79904,1.22836 c -0.05383,0 -0.16149,-0.05341 -0.26914,-0.05341 -0.10766,0 -0.2153,0 -0.37679,0 H 1.50717 v 2.02947 h 0.75359 c 0.21531,0 0.37679,0 0.53828,-0.05341 C 2.96052,3.09761 3.06818,3.0442 3.17584,2.93739 3.28349,2.83057 3.33732,2.72376 3.39115,2.61694 3.4988,2.45672 3.49881,2.2965 3.49881,2.13628 Z"
       inkscape:connector-curvature="0" />
    <path
       id="path9_fill"
       d="m 3.98325,6.62247 c 0,0.10681 0,0.21362 0,0.26703 0,0.05341 0,0.16022 -0.05383,0.21363 0,0.05341 -0.05382,0.10682 -0.05382,0.10682 -0.05383,0 -0.05383,0.0534 -0.10765,0.0534 H 0.430619 C 0.322963,7.26335 0.215313,7.20994 0.107657,7.15654 1.6443e-6,7.10313 3.28539e-6,6.94291 3.28539e-6,6.78269 V 0.213626 c 0,-0.053407 -4.92969e-6,-0.053405 0.05382281461,-0.106812 0,-0.053407 0.0538259,-0.0534062 0.1076539,-0.0534062 0.053828,0 0.10766,-0.05340617015 0.215316,-0.05340617015 0.107655,0 0.215309,0 0.376792,0 0.161484,0 0.269142,0 0.376792,0 0.10766,0 0.16149,-8.14128e-7 0.21532,0.05340617015 0.05382,0 0.10765,0.0534062 0.10765,0.0534062 0,0.053407 0.05382,0.053405 0.05382,0.106812 V 6.03499 h 2.3146 c 0.05383,0 0.05382,0 0.10765,0.05341 0.05383,0 0.05383,0.05341 0.05383,0.10681 0,0.05341 0.05383,0.10681 0.05383,0.16022 C 3.98326,6.40884 3.98325,6.51565 3.98325,6.62247 Z"
       inkscape:connector-curvature="0" />
    <path
       id="path10_fill"
       d="m 6.88995,3.68508 c 0,0.58748 -0.05382,1.12155 -0.21531,1.60221 C 6.51316,5.76796 6.29785,6.1418 6.02871,6.51565 5.70575,6.83609 5.38278,7.10313 4.95216,7.26335 4.52153,7.42357 3.98326,7.53039 3.44498,7.53039 2.85287,7.53039 2.36842,7.47698 1.9378,7.31676 1.50718,7.15654 1.18421,6.94291 0.861244,6.62247 0.592105,6.30203 0.376796,5.92818 0.215313,5.44751 0.0538294,4.96685 -3.28539e-6,4.43278 -3.28539e-6,3.7919 -3.28539e-6,3.20442 0.0538294,2.67035 0.215313,2.18969 0.376796,1.70902 0.592105,1.33518 0.861244,1.01473 1.18421,0.694292 1.50718,0.427256 1.9378,0.267035 2.36842,0.106814 2.9067,0 3.44498,0 3.98326,0 4.4677,0.0534078 4.89833,0.213629 5.32895,0.37385 5.65191,0.587475 5.97488,0.907917 6.24402,1.22836 6.45933,1.60221 6.62081,2.02947 6.7823,2.51013 6.88995,3.0442 6.88995,3.68508 Z M 5.32895,3.7919 C 5.32895,3.41805 5.27512,3.0442 5.2213,2.77716 5.16747,2.45672 5.05981,2.18969 4.89833,1.97606 4.73684,1.76243 4.57536,1.60221 4.30622,1.44199 4.09091,1.33517 3.76794,1.28177 3.39115,1.28177 3.01435,1.28177 2.74522,1.33518 2.47608,1.4954 2.20694,1.65562 2.04545,1.81584 1.88397,2.02947 1.72248,2.2431 1.61483,2.51013 1.56101,2.83057 1.50718,3.15101 1.45335,3.47145 1.45335,3.7919 c 0,0.37385 0.05383,0.74769 0.10766,1.06814 0.05382,0.32044 0.16147,0.58747 0.32296,0.8011 0.16148,0.21363 0.32297,0.37385 0.59211,0.53407 0.21531,0.10682 0.53827,0.16022 0.91507,0.16022 0.37679,0 0.64593,-0.0534 0.91507,-0.21362 C 4.57536,5.98158 4.73684,5.82136 4.89833,5.60774 5.05981,5.39411 5.16747,5.12707 5.2213,4.80663 5.27512,4.43278 5.32895,4.11234 5.32895,3.7919 Z"
       inkscape:connector-curvature="0" />
    <path
       id="path11_fill"
       d="m 4.79067,5.07367 c 0,0.37385 -0.05383,0.69428 -0.21531,1.01473 C 4.41388,6.35543 4.25239,6.62247 3.98325,6.78269 3.71411,6.99632 3.44498,7.10313 3.12201,7.20995 2.79905,7.31676 2.42225,7.37017 2.09928,7.37017 c -0.26914,0 -0.48445,0 -0.69976,-0.05341 C 1.18421,7.26335 0.968901,7.20994 0.807418,7.15654 0.645935,7.10313 0.48445,7.04972 0.376794,6.99632 0.269139,6.94291 0.161487,6.8895 0.161487,6.8361 0.107659,6.78269 0.0538245,6.72928 0.0538245,6.62247 0.0538245,6.51565 1.64269e-6,6.40884 1.64269e-6,6.24862 c 0,-0.10681 0,-0.21363 0,-0.26704 0,-0.0534 -4.92727e-6,-0.16022 0.05382285731,-0.21362 0,-0.05341 0.0538315,-0.10682 0.0538315,-0.10682 0.053827,0 0.053826,-0.0534 0.107653,-0.0534 0.053828,0 0.107661,0.0534 0.215316,0.10681 0.107656,0.05341 0.21531,0.10681 0.376793,0.21363 0.161483,0.0534 0.322962,0.16022 0.538282,0.21363 0.21531,0.0534 0.43062,0.10681 0.69976,0.10681 0.16148,0 0.32296,0 0.48444,-0.05341 C 2.69139,6.14181 2.79904,6.0884 2.9067,6.03499 3.01435,5.98158 3.06819,5.87477 3.12201,5.76796 3.17584,5.66114 3.17584,5.50092 3.17584,5.39411 3.17584,5.23389 3.12201,5.07366 3.06818,4.96685 2.96053,4.86004 2.85287,4.75322 2.69139,4.64641 2.52991,4.5396 2.36842,4.48619 2.20693,4.37937 2.04545,4.32597 1.83015,4.21915 1.61483,4.11234 1.39952,4.00553 1.23804,3.89871 1.02273,3.7919 0.861242,3.68508 0.699762,3.52486 0.538279,3.36464 0.376796,3.20442 0.269142,3.0442 0.161487,2.83057 0.053831,2.61694 1.64269e-6,2.34991 1.64269e-6,2.02947 1.64269e-6,1.70902 0.0538261,1.38858 0.215309,1.12155 0.322965,0.854513 0.538276,0.640882 0.753587,0.480661 0.968898,0.32044 1.23804,0.160221 1.50718,0.106814 1.83015,0 2.09928,1.62985e-6 2.47607,1.62985e-6 c 0.16149,0 0.32297,-8.14128e-7 0.53828,0.05340617015 0.16148,0 0.32297,0.0534052 0.48446,0.1068122 0.16148,0.053407 0.26913,0.106816 0.37679,0.160223 0.10765,0.053407 0.21531,0.106811 0.21531,0.160218 0.05382,0.053407 0.05383,0.05341 0.05383,0.106817 0,0 0,0.053405 0.05383,0.106812 0,0.053407 0,0.106816 0,0.160223 0,0.053407 0,0.160217 0,0.267037 0,0.10681 0,0.21363 0,0.26703 0,0.05341 -1e-5,0.16022 -0.05383,0.16022 0,0.05341 -0.05383,0.10682 -0.05383,0.10682 0,0 -0.05383,0.0534 -0.10766,0.0534 -0.05383,0 -0.10765,0 -0.21531,-0.0534 C 3.66029,1.60221 3.55263,1.5488 3.44497,1.4954 3.33732,1.44199 3.17583,1.38858 3.01435,1.33518 2.85287,1.28177 2.63756,1.28177 2.42225,1.28177 c -0.16148,0 -0.32297,0 -0.43062,0.05341 C 1.88397,1.38858 1.77631,1.44199 1.66866,1.4954 1.561,1.5488 1.50718,1.65562 1.50718,1.76243 1.45335,1.86924 1.45335,1.97606 1.45335,2.08287 c 0,0.16022 0.05383,0.32044 0.10765,0.42726 0.10766,0.10681 0.21531,0.21363 0.3768,0.32044 0.16148,0.10681 0.32297,0.16022 0.48445,0.26704 0.16148,0.10681 0.37679,0.16022 0.5921,0.26703 0.21531,0.10681 0.3768,0.21363 0.59211,0.32044 0.16148,0.10682 0.37679,0.26704 0.48445,0.42726 0.16148,0.16022 0.26914,0.32044 0.3768,0.53407 0.26914,-0.10681 0.32296,0.10681 0.32296,0.42726 z"
       inkscape:connector-curvature="0" />
    <path
       id="path12_fill"
       d="m 6.0287,3.52486 c 0,0.64089 -0.10765,1.22836 -0.26913,1.70903 C 5.59808,5.71455 5.32895,6.0884 5.00598,6.40884 4.68301,6.72928 4.30622,6.94291 3.82177,7.04972 3.33732,7.20995 2.79904,7.26335 2.15311,7.26335 H 0.430622 C 0.322967,7.26335 0.215308,7.20994 0.107652,7.15654 -3.28859e-6,7.10313 -1.64269e-6,6.94291 -1.64269e-6,6.78269 V 0.480661 C -1.64269e-6,0.32044 0.0538245,0.213628 0.107652,0.106814 0.215308,0.053407 0.269139,1.62985e-6 0.430622,1.62985e-6 H 2.31459 C 2.96053,1.62985e-6 3.49881,0.0534054 3.98326,0.213626 4.41388,0.373847 4.79067,0.587477 5.11363,0.907919 5.4366,1.22836 5.65191,1.5488 5.8134,2.02947 5.92105,2.45672 6.0287,2.93739 6.0287,3.52486 Z M 4.4677,3.57827 C 4.4677,3.25783 4.41388,2.93738 4.36005,2.61694 4.30622,2.34991 4.14474,2.08287 3.98326,1.86925 3.82177,1.65562 3.55263,1.4954 3.28349,1.38858 3.01436,1.28177 2.63756,1.22836 2.20694,1.22836 H 1.45335 v 4.91345 h 0.75359 c 0.43062,0 0.75358,-0.05341 1.02272,-0.16023 C 3.4988,5.87477 3.71411,5.71455 3.92943,5.50092 4.09091,5.28729 4.25239,5.02026 4.36005,4.69982 4.46771,4.32597 4.4677,3.95212 4.4677,3.57827 Z"
       inkscape:connector-curvature="0" />
    <path
       id="path13_fill"
       d="m 4.30622,6.67588 c 0,0.10681 0,0.21362 0,0.26703 0,0.05341 0,0.10681 -0.05383,0.16022 0,0.05341 -0.05383,0.05341 -0.05383,0.10682 -0.05382,0 -0.05382,0.0534 -0.10765,0.0534 H 0.43062 C 0.322965,7.26335 0.215314,7.20994 0.107659,7.15654 3.28057e-6,7.10313 -3.28539e-6,6.94291 -3.28539e-6,6.78269 V 0.480661 C -3.28539e-6,0.32044 0.053831,0.213628 0.107659,0.106814 0.215314,0.053407 0.269137,1.62985e-6 0.43062,1.62985e-6 h 3.60646 c 0.05383,0 0.05383,-8.14128e-7 0.10766,0.05340617015 0,0 0.05382,0.0534052 0.05382,0.1068122 0,0.053407 0.05383,0.106816 0.05383,0.160223 0,0.053407 0,0.160221 0,0.267035 0,0.106814 0,0.213628 0,0.267035 0,0.053407 0,0.106811 -0.05383,0.160217 0,0.05341 -0.05382,0.05341 -0.05382,0.10682 0,0 -0.05383,0.0534 -0.10766,0.0534 H 1.45335 v 1.76244 h 2.20694 c 0.05382,0 0.05382,0 0.10765,0.0534 0.05383,0 0.05383,0.05341 0.05383,0.10682 0,0.0534 0.05383,0.10681 0.05383,0.16022 0,0.0534 0,0.16022 0,0.26703 0,0.10682 0,0.21363 0,0.26704 0,0.0534 0,0.10681 -0.05383,0.16022 0,0.0534 -0.05383,0.05341 -0.05383,0.10681 -0.05383,0 -0.05383,0.05341 -0.10765,0.05341 H 1.45335 v 2.02947 h 2.63756 c 0.05383,0 0.05383,0 0.10765,0.0534 0.05383,0 0.05383,0.05341 0.05383,0.10682 0,0.0534 0.05383,0.10681 0.05383,0.16022 0,0 0,0.10681 0,0.21363 z"
       inkscape:connector-curvature="0" />
    <path
       id="path14_fill"
       d="m 5.43661,7.04972 c 0,0.05341 0,0.05341 0,0.10682 0,0.0534 -0.05384,0.05341 -0.10767,0.05341 -0.05382,0 -0.16148,0.0534 -0.26913,0.0534 -0.10766,0 -0.26914,0 -0.43062,0 -0.16148,0 -0.26915,0 -0.3768,0 -0.10766,0 -0.16148,0 -0.21531,-0.0534 -0.05383,0 -0.10765,-0.05341 -0.10765,-0.05341 0,-0.05341 -0.05383,-0.05341 -0.05383,-0.10682 L 3.22967,5.44751 C 3.17584,5.28729 3.06819,5.12707 3.01436,4.96685 2.96053,4.80663 2.85287,4.69982 2.74522,4.593 2.63756,4.48619 2.5299,4.43278 2.42225,4.37937 2.31459,4.32597 2.15311,4.32597 1.99163,4.32597 H 1.50718 v 2.72375 c 0,0.05341 0,0.05341 -0.05383,0.10682 0,0.0534 -0.05383,0.05341 -0.10766,0.05341 -0.05382,0 -0.10765,0.0534 -0.2153,0.0534 -0.10766,0 -0.215322,0 -0.376805,0 -0.161483,0 -0.269137,0 -0.376792,0 -0.107656,0 -0.16148,0 -0.215308,-0.0534 -0.053828,0 -0.107654,-0.05341 -0.107654,-0.05341 C 0.053831,7.10313 0,7.10313 0,7.04972 V 0.480661 C 0,0.32044 0.0538261,0.213628 0.107654,0.106814 0.215309,0.053407 0.26914,1.62985e-6 0.430624,1.62985e-6 H 2.31459 c 0.21532,0 0.32297,0 0.48445,0 0.10766,0 0.21532,-8.14128e-7 0.32297,0.05340617015 0.26914,0.0534072 0.53828,0.1068152 0.80742,0.2136292 0.21531,0.106814 0.43061,0.213626 0.5921,0.373847 0.16148,0.160221 0.26914,0.373846 0.3768,0.587476 0.10765,0.21363 0.10765,0.48066 0.10765,0.7477 0,0.26703 -0.05382,0.48066 -0.10765,0.64088 C 4.8445,2.83057 4.73685,2.99079 4.62919,3.15101 4.52153,3.31123 4.36005,3.41805 4.19857,3.57827 4.03708,3.68508 3.82177,3.7919 3.60646,3.8453 3.71411,3.89871 3.82177,3.95212 3.92943,4.05893 4.03708,4.11234 4.09091,4.21915 4.19857,4.32597 4.30622,4.43278 4.36005,4.53959 4.41387,4.69982 4.4677,4.86004 4.57536,4.96685 4.62919,5.18048 l 0.5921,1.44199 c 0.05383,0.16022 0.10765,0.26703 0.10765,0.32044 0.10766,0 0.10767,0.05341 0.10767,0.10681 z M 3.55263,2.13628 C 3.55263,1.92265 3.49881,1.70902 3.39115,1.5488 3.28349,1.38858 3.12201,1.28177 2.85287,1.22836 c -0.05383,0 -0.16148,-0.05341 -0.26914,-0.05341 -0.10765,0 -0.21531,0 -0.37679,0 H 1.561 v 2.02947 h 0.75359 c 0.21532,0 0.3768,0 0.53828,-0.05341 C 3.01436,3.0976 3.12201,3.0442 3.22967,2.93739 3.33732,2.83057 3.39115,2.72376 3.44497,2.61694 3.4988,2.45672 3.55263,2.2965 3.55263,2.13628 Z"
       inkscape:connector-curvature="0" />
    <path
       id="path15_fill"
       d="m 5.32895,6.30203 c 0,0.10681 0,0.16022 0,0.21362 0,0.05341 0,0.10682 0,0.16023 0,0.0534 0,0.10681 -0.05383,0.10681 0,0.0534 -0.05383,0.05341 -0.10766,0.10681 C 5.11363,6.94291 5.05981,6.99632 4.95215,7.04972 4.84449,7.10313 4.68302,7.15654 4.52153,7.26335 4.36005,7.31676 4.14474,7.37017 3.92943,7.42357 3.71412,7.47698 3.49881,7.47698 3.22967,7.47698 2.74522,7.47698 2.26077,7.42357 1.88398,7.26335 1.50718,7.10313 1.13038,6.8895 0.861246,6.56906 0.592107,6.24862 0.376798,5.87477 0.215314,5.44751 0.053831,5.02026 -1.64269e-6,4.48619 -1.64269e-6,3.8453 -1.64269e-6,3.25783 0.107654,2.67035 0.269137,2.18969 0.43062,1.70902 0.645933,1.33518 0.9689,1.01473 1.29187,0.694292 1.61483,0.427256 2.04545,0.267035 2.47608,0.106814 2.9067,0 3.39115,0 3.60646,0 3.76795,-8.15722e-7 3.98326,0.0534062 4.14474,0.106813 4.36005,0.106816 4.52153,0.160223 4.68302,0.21363 4.84449,0.267034 4.95215,0.320441 c 0.10766,0.053407 0.21531,0.106816 0.26914,0.160223 0.05383,0.053407 0.10766,0.106812 0.10766,0.106812 0,0.053407 0.05383,0.05341 0.05383,0.106817 0,0.053407 0,0.106811 0,0.160218 0,0.053407 0,0.160219 0,0.267039 0,0.10681 0,0.21362 0,0.26703 0,0.05341 0,0.16022 -0.05383,0.21363 0,0.05341 -0.05383,0.10681 -0.05383,0.10681 0,0 -0.05383,0.05341 -0.10766,0.05341 -0.05383,0 -0.10765,-0.05341 -0.21531,-0.10681 C 4.84449,1.60221 4.73684,1.49539 4.62918,1.44199 4.52152,1.38858 4.30622,1.28177 4.14473,1.22836 3.92942,1.17496 3.71412,1.12155 3.44498,1.12155 3.17584,1.12155 2.90671,1.17495 2.69139,1.28177 2.47608,1.38858 2.26077,1.5488 2.09929,1.76243 1.9378,1.97606 1.83014,2.2431 1.72248,2.56354 1.61483,2.88398 1.61484,3.20442 1.61484,3.63168 c 0,0.42725 0.05382,0.8011 0.10764,1.12154 0.10766,0.32045 0.21532,0.58748 0.37681,0.7477 0.16148,0.21363 0.37679,0.37385 0.5921,0.42726 0.21532,0.10681 0.48445,0.16022 0.75359,0.16022 0.26914,0 0.48444,-0.05341 0.69975,-0.10682 C 4.36004,5.92818 4.52152,5.87477 4.62918,5.76796 4.79066,5.71455 4.89832,5.60774 4.95215,5.55433 5.05981,5.50092 5.11363,5.44751 5.16746,5.44751 c 0.05383,0 0.05383,0 0.10766,0 0,0 0.05383,0.05341 0.05383,0.10682 0,0.05341 0,0.10681 0.05383,0.16022 C 5.32895,6.03499 5.32895,6.14181 5.32895,6.30203 Z"
       inkscape:connector-curvature="0" />
    <path
       id="path16_fill"
       d="m 5.75956,7.04972 c 0,0.05341 2e-5,0.05341 -0.05381,0.10682 0,0.0534 -0.05384,0.05341 -0.10766,0.05341 -0.05383,0 -0.10766,0.0534 -0.21531,0.0534 -0.10766,0 -0.21532,0 -0.3768,0 -0.16149,0 -0.26913,0 -0.37679,0 -0.10765,0 -0.16149,0 -0.21532,-0.0534 -0.05383,0 -0.10765,-0.05341 -0.10765,-0.05341 0,-0.05341 -0.05383,-0.05341 -0.05383,-0.10682 V 4.11234 H 1.50717 v 2.93738 c 0,0.05341 0,0.05341 -0.05383,0.10682 0,0.0534 -0.05382,0.05341 -0.10764,0.05341 -0.05383,0 -0.10766,0.0534 -0.21531,0.0534 -0.10766,0 -0.215318,0 -0.376802,0 -0.161483,0 -0.269145,0 -0.3768,0 -0.107656,0 -0.16148,0 -0.215308,-0.0534 -0.053828,0 -0.1076457,-0.05341 -0.1076457,-0.05341 C 0.0538343,7.10313 3.28539e-6,7.10313 3.28539e-6,7.04972 V 0.213626 c 0,-0.053407 3.28378e-6,-0.053405 0.05383101461,-0.106812 0,-0.053407 0.0538177,-0.0534062 0.1076457,-0.0534062 0.053828,0 0.107652,-0.05340617015 0.215308,-0.05340617015 0.107655,0 0.215317,0 0.3768,0 0.161484,0 0.269142,0 0.376802,0 0.10765,0 0.16148,-8.14128e-7 0.21531,0.05340617015 0.05382,0 0.10764,0.0534062 0.10764,0.0534062 0,0.053407 0.05383,0.053405 0.05383,0.106812 V 2.88398 H 4.25239 V 0.213626 c 0,-0.053407 10e-6,-0.053405 0.05383,-0.106812 0,-0.053407 0.05382,-0.0534062 0.10765,-0.0534062 0.05383,0 0.10767,-0.05340617015 0.21532,-0.05340617015 0.10766,0 0.2153,0 0.37679,0 0.16148,0 0.26914,0 0.3768,0 0.10765,0 0.16148,-8.14128e-7 0.21531,0.05340617015 0.05382,0 0.10766,0.0534062 0.10766,0.0534062 0,0.053407 0.05381,0.053405 0.05381,0.106812 z"
       inkscape:connector-curvature="0" />
    <path
       id="path17_fill"
       d="m 6.88996,3.68508 c 0,0.58748 -0.05384,1.12155 -0.21533,1.60221 C 6.51315,5.76796 6.29785,6.1418 6.02871,6.51565 5.75957,6.83609 5.38278,7.10313 4.95216,7.26335 4.52153,7.42357 3.98325,7.53039 3.44497,7.53039 2.85286,7.53039 2.36842,7.47698 1.9378,7.31676 1.50718,7.15654 1.18421,6.94291 0.861244,6.62247 0.592105,6.30203 0.376788,5.92818 0.215304,5.44751 0.0538212,4.96685 -3.28539e-6,4.43278 -3.28539e-6,3.7919 -3.28539e-6,3.20442 0.0538212,2.67035 0.215304,2.18969 0.376788,1.70902 0.592105,1.33518 0.861244,1.01473 1.13038,0.694292 1.50718,0.427256 1.9378,0.267035 2.36842,0.106814 2.90669,0 3.44497,0 3.98325,0 4.4677,0.0534078 4.89833,0.213629 5.32895,0.37385 5.65191,0.587475 5.97488,0.907917 6.24402,1.22836 6.45934,1.60221 6.62082,2.02947 6.83613,2.51013 6.88996,3.0442 6.88996,3.68508 Z M 5.32894,3.7919 C 5.32894,3.41805 5.27512,3.0442 5.2213,2.77716 5.16747,2.45672 5.05981,2.18969 4.89833,1.97606 4.73684,1.76243 4.57536,1.60221 4.30622,1.44199 4.09091,1.33517 3.76795,1.28177 3.39115,1.28177 3.01436,1.28177 2.74522,1.33518 2.47608,1.4954 2.20694,1.65562 2.04545,1.81584 1.88397,2.02947 1.72248,2.2431 1.61483,2.51013 1.561,2.83057 1.50717,3.15101 1.45335,3.47145 1.45335,3.7919 c 0,0.37385 0.05382,0.74769 0.10765,1.06814 0.05383,0.32044 0.16148,0.58747 0.32297,0.8011 0.16148,0.21363 0.32297,0.37385 0.59211,0.53407 0.21531,0.10682 0.53828,0.16022 0.91507,0.16022 0.3768,0 0.64593,-0.0534 0.91507,-0.21362 C 4.57536,5.98158 4.73684,5.82136 4.89833,5.60774 5.05981,5.39411 5.16747,5.12707 5.2213,4.80663 5.32895,4.43278 5.32894,4.11234 5.32894,3.7919 Z"
       inkscape:connector-curvature="0" />
    <path
       id="path18_fill"
       d="m 4.79066,5.07367 c 0,0.37385 -0.05382,0.69428 -0.2153,1.01473 C 4.41387,6.35543 4.25239,6.62247 3.98325,6.78269 3.71411,6.99632 3.44498,7.10313 3.12202,7.20995 2.79905,7.31676 2.42224,7.37017 2.09928,7.37017 c -0.26914,0 -0.48445,0 -0.69976,-0.05341 C 1.18421,7.26335 0.968896,7.20994 0.807413,7.15654 0.64593,7.10313 0.484453,7.04972 0.376798,6.99632 0.269142,6.94291 0.16149,6.8895 0.16149,6.8361 0.107662,6.78269 0.0538278,6.72928 0.0538278,6.62247 0.0538278,6.51565 -3.28539e-6,6.40884 -3.28539e-6,6.24862 c 0,-0.10681 0,-0.21363 0,-0.26704 C -3.28539e-6,5.92818 0,5.82136 0.0538278,5.76796 c 0,-0.05341 0.0538312,-0.10682 0.0538312,-0.10682 0.053828,0 0.053818,-0.0534 0.107645,-0.0534 0.053828,0 0.107669,0.0534 0.215325,0.10681 0.107655,0.05341 0.215301,0.10681 0.376784,0.21363 0.161483,0.0534 0.322967,0.16022 0.538277,0.21363 0.21531,0.0534 0.43063,0.10681 0.69977,0.10681 0.16148,0 0.32296,0 0.48445,-0.05341 C 2.69139,6.14181 2.79904,6.0884 2.90669,6.03499 3.01435,5.98158 3.06819,5.87477 3.12202,5.76796 3.17584,5.66114 3.17583,5.50092 3.17583,5.39411 3.17583,5.23389 3.12201,5.07366 3.06819,4.96685 2.96053,4.86004 2.85287,4.75322 2.69138,4.64641 2.5299,4.5396 2.36842,4.48619 2.20694,4.37937 2.04545,4.32597 1.83014,4.21915 1.61483,4.11234 1.39952,4.00553 1.23803,3.89871 1.02272,3.7919 0.861238,3.68508 0.699758,3.52486 0.538274,3.36464 0.376791,3.20442 0.269145,3.0442 0.16149,2.83057 0.0538343,2.61694 0.0538278,2.34991 0.0538278,2.02947 0.0538278,1.70902 0.107652,1.38858 0.269135,1.12155 0.376791,0.854513 0.592102,0.640882 0.807413,0.480661 1.02272,0.32044 1.29186,0.160221 1.561,0.106814 1.88396,0 2.15311,1.62985e-6 2.52991,1.62985e-6 c 0.16148,0 0.32296,-8.14128e-7 0.53828,0.05340617015 0.16148,0 0.32296,0.0534052 0.48444,0.1068122 0.16148,0.053407 0.26915,0.106816 0.3768,0.160223 0.10766,0.053407 0.21531,0.106811 0.21531,0.160218 0.05383,0.053407 0.05383,0.05341 0.05383,0.106817 0,0 -1e-5,0.053405 0.05382,0.106812 0,0.053407 0,0.106816 0,0.160223 0,0.053407 0,0.160217 0,0.267037 0,0.10681 0,0.21363 0,0.26703 0,0.05341 10e-6,0.16022 -0.05382,0.16022 0,0.05341 -0.05383,0.10682 -0.05383,0.10682 0,0 -0.05383,0.0534 -0.10766,0.0534 -0.05383,0 -0.10765,0 -0.21531,-0.0534 C 3.71411,1.60221 3.60646,1.5488 3.4988,1.4954 3.39115,1.44199 3.22967,1.38858 3.06819,1.33518 2.9067,1.28177 2.69139,1.28177 2.47608,1.28177 c -0.16149,0 -0.32296,0 -0.43062,0.05341 C 1.93781,1.38858 1.83015,1.44199 1.72249,1.4954 1.66866,1.5488 1.561,1.65562 1.561,1.76243 1.50717,1.86924 1.50718,1.97606 1.50718,2.08287 c 0,0.16022 0.05382,0.32044 0.10765,0.42726 0.10765,0.10681 0.21532,0.21363 0.3768,0.32044 C 2.15311,2.93738 2.31459,2.99079 2.47608,3.09761 2.63756,3.20442 2.85287,3.25783 3.06819,3.36464 3.2835,3.47145 3.44498,3.57827 3.66029,3.68508 3.82178,3.7919 4.03708,3.95212 4.14474,4.11234 4.30622,4.27256 4.41387,4.43278 4.52152,4.64641 4.73684,4.5396 4.79066,4.75322 4.79066,5.07367 Z"
       inkscape:connector-curvature="0" />
    <path
       id="path19_fill"
       d="m 1.50718,7.04973 c 0,0.0534 0,0.0534 -0.05383,0.10681 0,0.0534 -0.05383,0.0534 -0.10766,0.0534 -0.05382,0 -0.10765,0.05341 -0.2153,0.05341 -0.10766,0 -0.215322,0 -0.376805,0 -0.161483,0 -0.269137,0 -0.376792,0 -0.107656,0 -0.16148,0 -0.215308,-0.05341 -0.053828,0 -0.107654,-0.0534 -0.107654,-0.0534 C 0.053831,7.10313 0,7.10313 0,7.04973 V 0.213628 C 0,0.160221 3.28458e-6,0.160223 0.053831,0.106816 c 0,-0.0534074 0.053826,-0.0534106 0.107654,-0.0534106 0.053828,0 0.107652,-0.053406214926 0.215308,-0.053406214926 0.107655,0 0.215309,0 0.376792,0 0.161483,0 0.269145,0 0.376805,0 0.10765,0 0.16148,-8.16514e-7 0.2153,0.053406214926 0.05383,0 0.10766,0.0534106 0.10766,0.0534106 0,0.053407 0.05383,0.053405 0.05383,0.106812 z"
       inkscape:connector-curvature="0" />
    <path
       id="path20_fill"
       d="m 6.24402,1.12155 c 0,0.10681 0,0.21362 0,0.26703 0,0.05341 0,0.16022 -0.05383,0.16022 0,0.05341 -0.05383,0.05341 -0.05383,0.10682 0,0 -0.05382,0.05341 -0.10765,0.05341 -0.05383,0 -0.10766,-0.05341 -0.21532,-0.10682 C 5.70574,1.5488 5.54426,1.44199 5.38278,1.38858 5.2213,1.33517 5.00598,1.22836 4.73684,1.17496 4.4677,1.12155 4.19857,1.06814 3.8756,1.06814 3.49881,1.06814 3.22967,1.12155 2.9067,1.22836 2.63756,1.33518 2.36842,1.4954 2.15311,1.76243 1.9378,1.97606 1.77631,2.24309 1.66866,2.56354 1.561,2.88398 1.50717,3.20442 1.50717,3.57827 c 0,0.42726 0.05383,0.80111 0.16149,1.06814 0.10765,0.32044 0.26914,0.58748 0.48445,0.80111 0.21531,0.21362 0.43062,0.37384 0.69976,0.48066 0.26914,0.10681 0.59211,0.16022 0.91508,0.16022 0.16148,0 0.32296,0 0.48444,-0.05341 C 4.41388,5.98158 4.57536,5.92818 4.68302,5.87477 V 4.21915 H 3.28349 C 3.22966,4.21915 3.17583,4.16575 3.12201,4.11234 3.06818,4.00553 3.06818,3.89871 3.06818,3.68508 c 0,-0.10681 0,-0.21362 0,-0.26703 0,-0.05341 0,-0.10682 0.05383,-0.16022 0,-0.05341 0.05383,-0.05341 0.05383,-0.10682 0,0 0.05382,-0.0534 0.10765,-0.0534 h 2.47608 c 0.05383,0 0.10766,0 0.16149,0.0534 0.05382,0 0.10765,0.05341 0.10765,0.10682 0.05383,0.0534 0.05383,0.10681 0.10765,0.16022 0,0.05341 0.05383,0.10681 0.05383,0.21363 v 2.88398 c 0,0.10681 0,0.21362 -0.05383,0.26703 C 6.08254,6.8895 6.02871,6.94291 5.92106,6.99632 5.8134,7.04972 5.65192,7.10313 5.49043,7.15654 5.32895,7.20994 5.11364,7.26335 4.95215,7.31676 4.73684,7.37017 4.57536,7.37017 4.36005,7.42357 c -0.21531,0 -0.37679,0.05341 -0.5921,0.05341 -0.59211,0 -1.07656,-0.10681 -1.56101,-0.26704 C 1.72249,7.04972 1.34569,6.78269 1.02273,6.51566 0.699761,6.24862 0.484453,5.82136 0.269142,5.3407 0.107659,4.91344 3.28539e-6,4.37937 3.28539e-6,3.7919 3.28539e-6,3.20442 0.107659,2.67035 0.269142,2.18969 0.430625,1.70902 0.699761,1.33518 1.02273,1.01473 1.34569,0.694291 1.77631,0.427255 2.20694,0.267034 2.69139,0.106813 3.17584,-8.14926e-7 3.76795,-8.14926e-7 c 0.32296,0 0.5921,-8.16514e-7 0.86123,0.053406214926 C 4.89832,0.106812 5.11364,0.160221 5.32895,0.213628 5.54426,0.267035 5.70574,0.320443 5.81339,0.427257 5.92105,0.480664 6.0287,0.534068 6.08253,0.587475 6.13636,0.640882 6.19019,0.69429 6.19019,0.801104 c 0.05383,0 0.05383,0.16022 0.05383,0.320446 z"
       inkscape:connector-curvature="0" />
    <path
       id="path21_fill"
       d="m 6.02871,4.53959 c 0,0.42726 -0.05383,0.85452 -0.21531,1.17496 C 5.70574,6.0884 5.49043,6.35543 5.2213,6.62247 4.95216,6.8895 4.62919,7.04972 4.25239,7.15654 3.8756,7.26335 3.44497,7.37017 2.96052,7.37017 2.5299,7.37017 2.09929,7.31676 1.72249,7.20994 1.3457,7.10313 1.07655,6.94291 0.807413,6.67587 0.538274,6.46225 0.376796,6.1418 0.215313,5.82136 0.107657,5.50092 -3.28539e-6,5.07366 -3.28539e-6,4.593 V 0.213628 C -3.28539e-6,0.160221 0,0.160223 0.0538278,0.106816 c 0,-0.0534074 0.0538262,-0.0534106 0.1076542,-0.0534106 0.053827,0 0.10766,-0.053406214926 0.215316,-0.053406214926 0.107655,0 0.215309,0 0.376792,0 0.161483,0 0.26914,0 0.37679,0 0.10766,0 0.16148,-8.16514e-7 0.21531,0.053406214926 0.05383,0 0.10766,0.0534106 0.10766,0.0534106 0,0.053407 0.05383,0.053405 0.05383,0.106812 V 4.48619 c 0,0.26703 0.05382,0.53407 0.10765,0.7477 C 1.66866,5.44751 1.77632,5.60774 1.9378,5.76796 2.04545,5.92818 2.20693,6.03499 2.42225,6.0884 2.58373,6.1418 2.79905,6.19521 3.06819,6.19521 3.2835,6.19521 3.49881,6.1418 3.71412,6.0884 3.8756,6.03499 4.03708,5.92818 4.19856,5.76796 4.30622,5.60774 4.41387,5.44751 4.4677,5.28729 4.52153,5.07366 4.57536,4.86004 4.57536,4.593 V 0.267034 c 0,-0.053407 0,-0.053405 0.05383,-0.106812 0,-0.053407 0.05382,-0.053406 0.10765,-0.053406 0.05383,0 0.10766,-0.0534106 0.21532,-0.0534106 0.10765,0 0.21531,0 0.37679,0 0.16148,0 0.26914,0 0.37679,0 0.10766,0 0.16148,3.2e-6 0.21531,0.0534106 0.05383,0 0.10766,0.053406 0.10766,0.053406 0,0.053407 0.05382,0.053405 0.05382,0.106812 V 4.53959 Z"
       inkscape:connector-curvature="0" />
    <path
       id="path22_fill"
       d="m 6.62082,6.78269 c 0.05382,0.16022 0.05382,0.21363 0.10765,0.32044 0,0.05341 0,0.16022 -0.05383,0.16022 -0.05383,0.05341 -0.10765,0.05341 -0.21531,0.05341 -0.10765,0 -0.26914,0 -0.43062,0 -0.21531,0 -0.32297,0 -0.43063,0 -0.10765,0 -0.16148,0 -0.26913,-0.05341 -0.05383,0 -0.10766,-0.0534 -0.10766,-0.0534 0,-0.05341 -0.05383,-0.05341 -0.05383,-0.10682 L 4.68301,5.66114 H 1.9378 L 1.45335,7.04972 c 0,0.05341 -0.05383,0.10682 -0.05383,0.10682 0,0.05341 -0.05383,0.05341 -0.10766,0.10681 -0.05382,0 -0.10765,0.05341 -0.2153,0.05341 -0.107659,0 -0.215313,0 -0.376796,0 -0.161483,0 -0.322968,0 -0.430624,0 -0.107655,0 -0.161488,-0.05341 -0.2153155,-0.10681 C -3.28458e-6,7.15654 1.64269e-6,7.10313 1.64269e-6,7.04972 1.64269e-6,6.99632 0.0538278,6.8895 0.107656,6.72928 L 2.36842,0.320442 c 0,-0.053407 0.05383,-0.106816 0.05383,-0.160223 C 2.47608,0.106812 2.47608,0.106814 2.58374,0.053407 2.63756,0.053407 2.74522,8.14926e-7 2.85287,8.14926e-7 c 0.10766,0 0.26914,0 0.48445,0 0.21531,0 0.37679,0 0.53828,0 C 3.98325,8.14926e-7 4.09091,0 4.19857,0.053407 c 0.05383,0 0.10765,0.053405 0.16147,0.106812 0.05383,0.053407 0.05384,0.106816 0.10767,0.160223 z M 3.28349,1.49539 2.26077,4.5396 h 2.04545 z"
       inkscape:connector-curvature="0" />
    <path
       id="path23_fill"
       d="m 3.98325,6.62247 c 0,0.10681 0,0.21363 0,0.26703 0,0.05341 1e-5,0.16022 -0.05382,0.21363 0,0.05341 -0.05383,0.10681 -0.05383,0.10681 -0.05383,0 -0.05383,0.05341 -0.10766,0.05341 H 0.430624 C 0.322968,7.26335 0.215309,7.20994 0.107654,7.15654 -1.6443e-6,7.10313 0,6.94291 0,6.78269 V 0.213628 C 0,0.160221 3.28458e-6,0.160223 0.053831,0.106816 c 0,-0.0534074 0.053826,-0.0534106 0.107654,-0.0534106 0.053828,0 0.107652,-0.053406214926 0.215308,-0.053406214926 0.107655,0 0.215309,0 0.376792,0 0.161483,0 0.269145,0 0.376805,0 0.10765,0 0.16148,-8.16514e-7 0.2153,0.053406214926 0.05383,0 0.10766,0.0534106 0.10766,0.0534106 0,0.053407 0.05383,0.053405 0.05383,0.106812 V 6.03499 h 2.31459 c 0.05383,0 0.05383,0 0.10766,0.05341 0.05383,0 0.05382,0.0534 0.05382,0.10681 0,0.05341 0.05383,0.10682 0.05383,0.16022 C 3.98325,6.40884 3.98325,6.51565 3.98325,6.62247 Z"
       inkscape:connector-curvature="0" />
    <path
       id="path24_fill"
       d="m 1.50717,7.04973 c 0,0.0534 1e-5,0.0534 -0.05382,0.10681 0,0.0534 -0.05383,0.0534 -0.10765,0.0534 -0.05383,0 -0.10766,0.05341 -0.21532,0.05341 -0.10765,0 -0.215308,0 -0.376792,0 -0.161483,0 -0.269137,0 -0.376792,0 -0.107656,0 -0.161488,0 -0.215316,-0.05341 -0.053828,0 -0.1076539,-0.0534 -0.1076539,-0.0534 C 0.0538261,7.10313 3.28539e-6,7.10313 3.28539e-6,7.04973 V 0.213628 c 0,-0.053407 -4.92969e-6,-0.053405 0.05382281461,-0.106812 0,-0.0534074 0.0538259,-0.0534106 0.1076539,-0.0534106 0.053828,0 0.10766,-0.053406214926 0.215316,-0.053406214926 0.107655,0 0.215309,0 0.376792,0 0.161484,0 0.269142,0 0.376792,0 0.10766,0 0.16149,-8.16514e-7 0.21532,0.053406214926 0.05382,0 0.10765,0.0534106 0.10765,0.0534106 0,0.053407 0.05382,0.053405 0.05382,0.106812 z"
       inkscape:connector-curvature="0" />
    <path
       id="path25_fill"
       d="m 5.59808,0.587475 c 0,0.106814 0,0.213628 0,0.267035 0,0.053407 10e-6,0.16022 -0.05382,0.16022 0,0.05341 -0.05383,0.10682 -0.05383,0.10682 -0.05383,0 -0.05383,0.05341 -0.10765,0.05341 H 3.55263 v 5.82136 c 0,0.0534 0,0.0534 -0.05383,0.10681 0,0.05341 -0.05382,0.05341 -0.10765,0.05341 -0.05383,0 -0.10766,0.0534 -0.21532,0.0534 -0.10765,0 -0.21531,0 -0.37679,0 -0.16148,0 -0.26914,0 -0.37679,0 -0.10766,0 -0.16148,0 -0.21531,-0.0534 -0.05383,0 -0.10766,-0.05341 -0.10766,-0.05341 0,-0.05341 -0.05382,-0.05341 -0.05382,-0.10681 V 1.22836 H 0.215308 c -0.053828,0 -0.053826,0 -0.107654,-0.0534 0,0 -0.053823,-0.05341 -0.053823,-0.10682 C 0.053831,1.01473 0,0.961328 0,0.907921 0,0.854514 0,0.7477 0,0.640886 0,0.534072 0,0.427258 0,0.373851 0,0.320444 3.28458e-6,0.213629 0.053831,0.160222 c 0,-0.053407 0.053823,-0.05341 0.053823,-0.1068166 0,0 0.053826,-0.053406214926 0.107654,-0.053406214926 H 5.32894 c 0.05383,0 0.05384,-8.16514e-7 0.10767,0.053406214926 0.05382,0 0.05382,0.0534096 0.05382,0.1068166 0,0.053407 0.05383,0.106815 0.05383,0.213629 0.05383,0 0.05382,0.10681 0.05382,0.213624 z"
       inkscape:connector-curvature="0" />
    <path
       id="path26_fill"
       d="m 6.62081,6.78269 c 0.05383,0.16022 0.05383,0.21363 0.10766,0.32044 0,0.05341 0,0.16022 -0.05383,0.16022 -0.05383,0.05341 -0.10765,0.05341 -0.21531,0.05341 -0.10765,0 -0.26914,0 -0.43062,0 -0.21531,0 -0.32297,0 -0.43062,0 -0.10766,0 -0.16149,0 -0.26914,-0.05341 -0.05383,0 -0.10766,-0.0534 -0.10766,-0.0534 0,-0.05341 -0.05383,-0.05341 -0.05383,-0.10682 L 4.68302,5.66114 H 1.9378 L 1.45335,7.04972 c 0,0.05341 -0.05383,0.10682 -0.05383,0.10682 0,0.05341 -0.05383,0.05341 -0.10765,0.10681 -0.05383,0 -0.10766,0.05341 -0.21531,0.05341 -0.107657,0 -0.215319,0 -0.376803,0 -0.161483,0 -0.322959,0 -0.430615,0 -0.107655,0 -0.161488,-0.05341 -0.2153159,-0.10681 C -1.6443e-6,7.15654 3.28539e-6,7.10313 3.28539e-6,7.04972 3.28539e-6,6.99632 0.0538294,6.8895 0.107657,6.72928 L 2.36842,0.320442 c 0,-0.053407 0.05383,-0.106816 0.05383,-0.160223 C 2.47608,0.106812 2.47607,0.106814 2.58373,0.053407 2.63756,0.053407 2.74521,8.14926e-7 2.85287,8.14926e-7 c 0.10765,0 0.26914,0 0.48445,0 0.21531,0 0.3768,0 0.53828,0 C 3.98326,8.14926e-7 4.09091,0 4.19856,0.053407 c 0.05383,0 0.10766,0.053405 0.16149,0.106812 0.05382,0.053407 0.05382,0.106816 0.10765,0.160223 z M 3.28349,1.49539 2.26077,4.5396 h 2.04545 z"
       inkscape:connector-curvature="0" />
    <path
       id="path27_fill"
       d="m 5.4366,7.04973 c 0,0.0534 0,0.0534 0,0.10681 0,0.05341 -0.05382,0.0534 -0.10765,0.0534 -0.05382,0 -0.16148,0.05341 -0.26913,0.05341 -0.10766,0 -0.26915,0 -0.43064,0 -0.16148,0 -0.26913,0 -0.37678,0 -0.10766,0 -0.1615,0 -0.21533,-0.05341 -0.05382,0 -0.10764,-0.0534 -0.10764,-0.0534 0,-0.05341 -0.05383,-0.05341 -0.05383,-0.10681 L 3.22966,5.44752 C 3.17583,5.28729 3.06818,5.12707 3.01435,4.96685 2.96052,4.80663 2.85287,4.69981 2.74521,4.593 2.63756,4.48619 2.5299,4.43278 2.42224,4.37938 2.31459,4.32597 2.15311,4.32597 1.99163,4.32597 H 1.50718 v 2.77716 c 0,0.05341 0,0.05341 -0.05383,0.10681 0,0.05341 -0.05384,0.05341 -0.10766,0.05341 -0.05383,0 -0.10765,0.05341 -0.21531,0.05341 -0.10766,0 -0.215302,0 -0.376785,0 -0.161483,0 -0.269145,0 -0.376801,0 -0.107655,0 -0.16148,0 -0.215307,-0.05341 -0.053828,0 -0.1076625,-0.05341 -0.1076625,-0.05341 0,-0.0534 -0.05383107077,-0.0534 -0.05383107077,-0.10681 V 0.480663 C -6.57077e-6,0.320442 0.0538278,0.21363 0.107656,0.106816 0.215311,0.0534086 0.269142,-8.14926e-7 0.430625,-8.14926e-7 H 2.3146 c 0.21531,0 0.32296,0 0.48444,0 0.10766,0 0.21532,-8.16514e-7 0.32297,0.053406214926 C 3.39115,0.106812 3.66029,0.16022 3.92943,0.267034 4.14474,0.373848 4.36005,0.480665 4.52154,0.640886 4.68302,0.801107 4.79067,1.01473 4.89832,1.22836 5.00598,1.44199 5.00598,1.70903 5.00598,1.97606 5.00598,2.2431 4.95215,2.45672 4.89832,2.61694 4.84449,2.83057 4.73684,2.99079 4.62918,3.15101 4.52153,3.31123 4.36005,3.41805 4.19857,3.57827 4.03708,3.68508 3.82177,3.7919 3.60646,3.84531 3.71411,3.89871 3.82177,3.95212 3.92943,4.05893 4.03708,4.11234 4.09091,4.21915 4.19857,4.32597 4.30622,4.43278 4.36005,4.5396 4.41388,4.69982 4.4677,4.86004 4.57536,4.96685 4.62918,5.18048 l 0.59211,1.44199 c 0.05383,0.16022 0.10766,0.26703 0.10766,0.32044 0.10766,0 0.10765,0.05341 0.10765,0.10682 z M 3.55263,2.13628 C 3.55263,1.92265 3.49881,1.70902 3.39115,1.5488 3.2835,1.38858 3.12201,1.28177 2.85287,1.22836 c -0.05382,0 -0.16148,-0.0534 -0.26913,-0.0534 -0.10766,0 -0.21532,0 -0.37681,0 H 1.56101 V 3.20442 H 2.3146 c 0.21531,0 0.37679,0 0.53827,-0.05341 C 3.01436,3.09761 3.122,3.0442 3.22966,2.93738 3.33731,2.83057 3.39115,2.72376 3.44498,2.61694 3.49881,2.45672 3.55263,2.2965 3.55263,2.13628 Z"
       inkscape:connector-curvature="0" />
    <path
       id="path28_fill"
       d="m 1.50718,7.04973 c 0,0.0534 0,0.0534 -0.05383,0.10681 0,0.0534 -0.05383,0.0534 -0.10766,0.0534 -0.05383,0 -0.10765,0.05341 -0.21531,0.05341 -0.10765,0 -0.215315,0 -0.376798,0 -0.161483,0 -0.269129,0 -0.376784,0 -0.107656,0 -0.16148,0 -0.215308,-0.05341 -0.053828,0 -0.1076622,-0.0534 -0.1076622,-0.0534 0,-0.05341 -0.05383108539,-0.05341 -0.05383108539,-0.10681 V 0.213628 C -3.28539e-6,0.160221 0,0.160223 0.0538278,0.106816 c 0,-0.0534074 0.0538342,-0.0534106 0.1076622,-0.0534106 0.053828,0 0.107652,-0.053406214926 0.215308,-0.053406214926 0.107655,0 0.215301,0 0.376784,0 0.161483,0 0.269148,0 0.376798,0 0.10766,0 0.16148,-8.16514e-7 0.21531,0.053406214926 0.05383,0 0.10766,0.0534106 0.10766,0.0534106 0,0.053407 0.05383,0.053405 0.05383,0.106812 z"
       inkscape:connector-curvature="0" />
    <path
       id="path29_fill"
       d="m 6.88995,3.68508 c 0,0.58748 -0.05383,1.12155 -0.21531,1.60221 C 6.51316,5.76795 6.29784,6.14181 6.0287,6.51565 5.70573,6.8361 5.38277,7.10313 4.95215,7.26335 4.52152,7.42357 3.98325,7.53039 3.44498,7.53039 2.85287,7.53039 2.36843,7.47698 1.93781,7.31676 1.50718,7.15654 1.18422,6.94291 0.861251,6.62247 0.592112,6.30202 0.376794,5.92818 0.215311,5.44751 0.0538277,4.96685 3.28539e-6,4.43278 3.28539e-6,3.7919 3.28539e-6,3.20442 0.0538277,2.67035 0.215311,2.18969 0.376794,1.70902 0.592112,1.33517 0.861251,1.01473 1.18422,0.694289 1.50718,0.427258 1.93781,0.267037 2.36843,0.106816 2.9067,1.62985e-6 3.44498,1.62985e-6 3.98325,1.62985e-6 4.46771,0.0534054 4.89833,0.213626 5.32895,0.373847 5.65192,0.587477 5.97489,0.907919 6.24403,1.22836 6.45933,1.60221 6.62081,2.02947 6.83612,2.51013 6.88995,3.0442 6.88995,3.68508 Z M 5.32895,3.7919 C 5.32895,3.41805 5.27511,3.0442 5.22129,2.77716 5.16746,2.45672 5.05981,2.18969 4.89833,1.97606 4.73685,1.76243 4.57536,1.60221 4.30622,1.44199 4.09091,1.33518 3.76794,1.28177 3.39115,1.28177 3.01435,1.28177 2.74522,1.33517 2.47608,1.4954 2.20694,1.65562 2.04546,1.81584 1.88397,2.02947 1.72249,2.24309 1.61483,2.51013 1.561,2.83057 1.50718,3.15101 1.45334,3.47146 1.45334,3.7919 c 0,0.37385 0.05384,0.7477 0.10766,1.06814 0.05383,0.32044 0.16149,0.58747 0.32297,0.8011 0.16149,0.21363 0.32297,0.37385 0.59211,0.53407 0.21531,0.10682 0.53827,0.16022 0.91507,0.16022 0.37679,0 0.64593,-0.0534 0.91507,-0.21362 C 4.57536,5.98159 4.73685,5.82136 4.89833,5.60774 5.05981,5.39411 5.16746,5.12707 5.22129,4.80663 5.32894,4.43278 5.32895,4.11234 5.32895,3.7919 Z"
       inkscape:connector-curvature="0" />
    <path
       id="path30_fill"
       d="m 4.79066,5.07366 c 0,0.37385 -0.05382,0.6943 -0.2153,1.01474 C 4.41387,6.35543 4.25239,6.62247 3.98325,6.78269 3.71411,6.99632 3.44498,7.10313 3.12202,7.20994 2.79905,7.31676 2.42224,7.37017 2.09928,7.37017 c -0.26914,0 -0.48445,0 -0.69976,-0.05341 C 1.18421,7.26335 0.968896,7.20994 0.807413,7.15654 0.64593,7.10313 0.484453,7.04972 0.376798,6.99632 0.269142,6.94291 0.16149,6.8895 0.16149,6.8361 0.107662,6.78269 0.0538278,6.72928 0.0538278,6.62247 0.0538278,6.51565 -3.28539e-6,6.40884 -3.28539e-6,6.24862 c 0,-0.10681 0,-0.21363 0,-0.26703 C -3.28539e-6,5.92818 0,5.82136 0.0538278,5.76796 c 0,-0.05341 0.0538312,-0.10682 0.0538312,-0.10682 0.053828,0 0.053818,-0.05341 0.107645,-0.05341 0.053828,0 0.107669,0.05341 0.215325,0.10682 C 0.538284,5.76796 0.64593,5.82136 0.807413,5.92818 0.968896,5.98158 1.13038,6.0884 1.34569,6.1418 1.561,6.19521 1.77632,6.24862 2.04546,6.24862 c 0.16148,0 0.32296,0 0.48445,-0.05341 C 2.69139,6.1418 2.79904,6.0884 2.90669,6.03499 3.01435,5.98158 3.06819,5.87477 3.12202,5.76796 3.17584,5.66114 3.17583,5.50092 3.17583,5.39411 3.17583,5.23388 3.12201,5.07367 3.06819,4.96685 2.96053,4.86004 2.85287,4.75322 2.69138,4.64641 2.5299,4.5396 2.36842,4.48619 2.20694,4.37938 2.04545,4.27256 1.83014,4.21915 1.61483,4.11234 1.39952,4.00553 1.23803,3.89871 1.02272,3.7919 0.861238,3.68508 0.699758,3.52486 0.538274,3.36464 0.376791,3.20442 0.269145,3.0442 0.16149,2.83057 0.0538343,2.61694 -3.28539e-6,2.34991 -3.28539e-6,2.02947 -3.28539e-6,1.70902 0.0538212,1.38858 0.215304,1.12155 0.32296,0.85451 0.538271,0.640884 0.753582,0.480663 0.968893,0.320442 1.23804,0.160223 1.50718,0.106816 1.83015,1.63144e-6 2.09928,-8.14926e-7 2.47608,-8.14926e-7 c 0.16148,0 0.32296,-8.16514e-7 0.53827,0.053406214926 C 3.22967,0.106812 3.33732,0.106815 3.4988,0.160222 3.66028,0.213629 3.76795,0.267033 3.8756,0.32044 3.98326,0.373847 4.09091,0.427256 4.09091,0.480663 4.14474,0.53407 4.14474,0.534068 4.14474,0.587475 c 0,0 0,0.05341 0.05383,0.106817 0,0.053407 0,0.106811 0,0.160218 0,0.053407 0,0.16022 0,0.26704 0,0.10681 0,0.21362 0,0.26703 0,0.05341 0,0.16022 -0.05383,0.16022 0,0.05341 -0.05383,0.10682 -0.05383,0.10682 0,0 -0.05384,0.05341 -0.10766,0.05341 -0.05383,0 -0.10766,-1e-5 -0.21531,-0.05341 C 3.66028,1.60221 3.55263,1.5488 3.44497,1.4954 3.33731,1.44199 3.17584,1.38858 3.01435,1.33517 2.85287,1.28177 2.63756,1.28177 2.42225,1.28177 c -0.16149,0 -0.32296,0 -0.43062,0.0534 C 1.88397,1.38858 1.77632,1.44199 1.66866,1.4954 1.561,1.5488 1.50718,1.65562 1.50718,1.76243 1.45336,1.86925 1.45335,1.97606 1.45335,2.08287 c 0,0.16022 0.05382,0.32045 0.10765,0.42726 0.10765,0.10681 0.21532,0.21363 0.3768,0.32044 0.16148,0.10682 0.32296,0.16022 0.48445,0.26704 0.16148,0.0534 0.37679,0.16022 0.5921,0.26703 0.21532,0.10682 0.3768,0.21363 0.59211,0.32044 0.16149,0.10682 0.37679,0.26704 0.48445,0.42726 0.16148,0.16022 0.26914,0.32044 0.3768,0.53407 0.26914,-0.10681 0.32295,0.10681 0.32295,0.42725 z"
       inkscape:connector-curvature="0" />
    <path
       id="path31_fill"
       d="M 1.61483,0 H 0 v 10.361 h 1.61483 z"
       inkscape:connector-curvature="0" />
    <path
       id="path32_fill"
       d="M 1.61483,0 H 0 v 10.361 h 1.61483 z"
       inkscape:connector-curvature="0" />
    <path
       id="path33_fill"
       d="M 1.61483,0 H 0 v 10.361 h 1.61483 z"
       inkscape:connector-curvature="0" />
    <path
       id="path34_fill"
       d="M 1.61483,0 H 0 v 10.361 h 1.61483 z"
       inkscape:connector-curvature="0" />
    <path
       id="path35_fill"
       d="m 25.945,15.0074 c 0,2.8305 -0.3768,5.2873 -1.1304,7.2633 -0.7536,2.0295 -1.8301,3.6851 -3.2297,4.9669 -1.3995,1.2817 -3.122,2.1897 -5.1136,2.8305 -1.9916,0.5875 -4.4139,0.908 -7.1591,0.908 H 1.88397 c -0.53828,0 -0.9689,-0.1603 -1.345694,-0.4807 C 0.161482,30.175 -1.64269e-6,29.6943 -1.64269e-6,29 V 1.97606 C -1.64269e-6,1.28177 0.161482,0.747699 0.538276,0.480664 0.91507,0.160222 1.34569,0 1.88397,0 h 8.02034 c 2.79899,0 5.16749,0.320442 7.10529,0.961326 1.9378,0.640884 3.5526,1.602214 4.8983,2.883974 1.3457,1.28177 2.3146,2.83058 3.0143,4.69982 0.646,1.81588 1.0228,4.00548 1.0228,6.46228 z m -6.567,0.2136 c 0,-1.442 -0.1615,-2.8306 -0.5383,-4.1123 C 18.5167,9.82689 17.9246,8.75875 17.1711,7.85083 16.4175,6.94291 15.4486,6.19521 14.2105,5.66114 13.0263,5.12707 11.4653,4.86004 9.47369,4.86004 H 6.24402 V 25.9024 h 3.28349 c 1.72249,0 3.17579,-0.2136 4.41389,-0.6943 1.1842,-0.4273 2.2069,-1.1215 2.9605,-2.0295 0.8074,-0.9079 1.3995,-2.0294 1.7763,-3.3646 0.4845,-1.2284 0.6998,-2.8306 0.6998,-4.593 z"
       inkscape:connector-curvature="0" />
    <path
       id="path36_fill"
       d="m 6.35168,29.9613 c 0,0.1602 -0.05383,0.3205 -0.16149,0.4273 -0.10766,0.1068 -0.26914,0.2136 -0.53828,0.3204 -0.21531,0.0534 -0.53828,0.1602 -0.9689,0.2137 -0.37679,0.0534 -0.91506,0.0534 -1.50717,0.0534 -0.5921,0 -1.13038,0 -1.50718,-0.0534 C 1.23804,30.8692 0.915072,30.8158 0.699761,30.709 0.48445,30.6556 0.269139,30.5488 0.161483,30.3886 0.0538278,30.2818 -1.64269e-6,30.1215 -1.64269e-6,29.9613 V 1.01473 C -1.64269e-6,0.854512 0.0538278,0.694291 0.161483,0.587477 0.269139,0.480663 0.430622,0.37385 0.699761,0.267036 0.9689,0.213629 1.29187,0.106814 1.66866,0.053407 2.04546,0 2.58374,8.14926e-7 3.17584,8.14926e-7 3.82177,8.14926e-7 4.30622,0 4.68301,0.053407 c 0.3768,0.053407 0.69976,0.106815 0.9689,0.213629 0.21531,0.053407 0.43062,0.16022 0.53828,0.320441 0.10766,0.106814 0.16149,0.267035 0.16149,0.427253 z"
       inkscape:connector-curvature="0" />
    <path
       id="path37_fill"
       d="M 6.24402,0.587479 C 6.13636,0.480665 5.97488,0.373847 5.70574,0.267033 5.49043,0.160219 5.16746,0.106816 4.73684,0.0534086 4.36005,1.62746e-6 3.82177,-1.62985e-6 3.22966,-1.62985e-6 H 3.17584 c -0.59211,0 -1.13038,3.25731e-6 -1.50718,0.05341022985 C 1.29187,0.106816 0.968899,0.160219 0.69976,0.267033 0.430621,0.373847 0.269138,0.480665 0.161482,0.587479 0.0538269,0.694293 -4.10673e-7,0.854511 -4.10673e-7,1.01473 V 11.3223 c 0,0.1602 0.053827310673,0.3204 0.161482410673,0.4272 0.107656,0.1069 0.269139,0.2137 0.538278,0.3205 0.215311,0.1068 0.53828,0.1602 0.9689,0.2136 0.3768,0.0534 0.91507,0.0534 1.50718,0.0534 h 0.05382 c 0.59211,0 1.13039,0 1.50718,-0.0534 C 5.11364,12.2302 5.4366,12.1768 5.70574,12.07 5.97488,11.9632 6.13636,11.8564 6.24402,11.7495 6.35168,11.6427 6.4055,11.4825 6.4055,11.3223 V 1.01473 c 0,-0.160219 -0.05382,-0.320437 -0.16148,-0.427251 z"
       inkscape:connector-curvature="0" />
    <path
       id="path38_fill"
       d="M 16.9557,8.14926e-7 H 0 V 6.67588 h 16.9557 l 3.3912,-3.31124 z"
       inkscape:connector-curvature="0" />
    <path
       id="path39_fill"
       d="M 16.9557,-1.62985e-6 H 0 V 6.67587 h 16.9557 l 3.3912,-3.31123 z"
       inkscape:connector-curvature="0" />
  </defs>
</svg>
