<svg xmlns="http://www.w3.org/2000/svg" xmlns:xlink="http://www.w3.org/1999/xlink" width="29" height="72"><use xlink:href="#a" transform="translate(.649 .943)" width="100%" height="100%" fill="#222"/><defs><path id="a" d="M27.806 2.763c-.966.53-2.147.85-3.22.956 1.18-.744 2.04-1.913 2.469-3.294-1.074.637-2.255 1.169-3.65 1.488C22.33.743 20.934 0 19.324 0c-3.114 0-5.69 2.656-5.69 6.056 0 .425 0 .957.107 1.382-4.724-.213-8.91-2.657-11.702-6.27-.537.85-.752 1.913-.752 3.082 0 2.125.967 3.931 2.47 4.994-.967 0-1.826-.319-2.577-.744v.106c0 2.869 1.932 5.313 4.509 5.95-.43.107-.966.213-1.503.213-.322 0-.752 0-1.074-.106.752 2.443 2.792 4.143 5.261 4.143-1.932 1.594-4.402 2.55-6.978 2.55-.43 0-.86 0-1.396-.106 2.47 1.7 5.475 2.762 8.696 2.762 10.414 0 16.104-9.137 16.104-17.106v-.743c1.288-1.063 2.255-2.126 3.006-3.4z"/><path d="M12.668 8.713H8.374V5.95c0-1.063.752-1.275 1.181-1.275h3.006V0H8.374c-4.724 0-5.69 3.506-5.69 5.631v3.082H0v4.78h2.684v13.495h5.69V13.494h3.865z" id="b"/></defs><use transform="translate(8.218 42.578)" xlink:href="#b" width="100%" height="100%" fill="#222"/></svg>